<svg width="1182" height="843" viewBox="0 0 1182 843" fill="none" xmlns="http://www.w3.org/2000/svg">
<g filter="url(#filter0_d_531_5073)">
<path d="M908.979 106.623C905.884 104.405 903.478 101.358 902.041 97.8316C900.603 94.3056 900.191 90.4449 900.852 86.6949L909.198 88.9311C907.614 94.713 907.539 100.804 908.979 106.623ZM927.915 93.9465C924.735 104.41 918.949 110.61 915.474 109.678C911.996 108.747 910.088 100.485 912.563 89.8328L927.915 93.9465ZM939.59 97.0746C938.293 100.66 936.005 103.803 932.992 106.138C929.978 108.474 926.363 109.904 922.568 110.264C926.739 105.954 929.727 100.641 931.244 94.8384L939.59 97.0746ZM940.486 93.7286L932.14 91.4924C933.732 85.7072 933.802 79.6136 932.34 73.7949C935.448 76.0027 937.865 79.0492 939.308 82.5788C940.75 86.1084 941.159 89.9754 940.486 93.7286ZM928.812 90.6005L913.459 86.4868C916.647 76.0047 922.426 69.8237 925.903 70.7554C929.378 71.6867 931.275 79.9242 928.812 90.6005ZM918.726 70.2485C914.567 74.5655 911.586 79.8783 910.069 85.6778L901.724 83.4416C903.02 79.8598 905.305 76.719 908.315 74.3838C911.324 72.0486 914.934 70.6147 918.726 70.2485Z" fill="#EEE8A9"/>
</g>
<g filter="url(#filter1_d_531_5073)">
<path d="M232.49 84.3358L220.672 86.4196L221.367 90.3588L233.185 88.275L232.49 84.3358Z" fill="#EEE8A9"/>
</g>
<g filter="url(#filter2_d_531_5073)">
<path d="M225.539 79.4689L219.631 80.5108L218.658 74.9958C214.771 73.5691 211.714 70.1683 210.943 65.7957C209.794 59.2763 214.158 53.0438 220.677 51.8942C227.197 50.7447 233.429 55.1087 234.579 61.6282C235.35 66.0007 233.64 70.242 230.476 72.9121L231.448 78.427L225.539 79.4689Z" fill="#EEE8A9"/>
<path d="M225.539 79.4689L219.631 80.5108L218.658 74.9958C214.771 73.5691 211.714 70.1683 210.943 65.7957C209.794 59.2763 214.158 53.0438 220.677 51.8942C227.197 50.7447 233.429 55.1087 234.579 61.6282C235.35 66.0007 233.64 70.242 230.476 72.9121L231.448 78.427L225.539 79.4689Z" stroke="#EEE8A9" stroke-width="2" stroke-linecap="round" stroke-linejoin="round"/>
</g>
<g filter="url(#filter3_d_531_5073)">
<path d="M1007.17 394.479C988.753 395.292 982.474 406.716 976.582 416.176L980.075 418.132L982.745 413.932C983.631 414.434 984.571 414.863 985.28 414.989C1006.95 418.809 1018.76 386.367 1018.76 386.367C1016.09 389.959 1002.22 388.02 992.025 388.254C981.83 388.487 976.414 396.163 975.72 400.102C975.025 404.041 977.864 408.096 977.864 408.096C987.478 391.006 1007.17 394.479 1007.17 394.479Z" fill="#EEE8A9"/>
</g>
<g filter="url(#filter4_d_531_5073)">
<path d="M246.757 646.04C247.494 650.219 246.54 654.519 244.106 657.995C241.672 661.471 237.957 663.838 233.778 664.575C229.599 665.312 225.299 664.358 221.823 661.924C218.347 659.49 215.98 655.775 215.243 651.596C214.506 647.417 215.46 643.117 217.894 639.641C220.327 636.165 224.043 633.798 228.222 633.061C232.401 632.324 236.701 633.278 240.177 635.711C243.653 638.145 246.02 641.861 246.757 646.04Z" fill="#EEE8A9"/>
</g>
<g filter="url(#filter5_d_531_5073)">
<path fill-rule="evenodd" clip-rule="evenodd" d="M226.231 620.796C226.754 620.704 227.291 620.823 227.726 621.127C228.16 621.431 228.456 621.896 228.548 622.418L229.011 625.044C229.103 625.567 228.984 626.104 228.68 626.539C228.376 626.973 227.911 627.269 227.389 627.361C226.866 627.453 226.329 627.334 225.894 627.03C225.46 626.726 225.164 626.261 225.072 625.739L224.609 623.113C224.517 622.59 224.636 622.053 224.94 621.618C225.244 621.184 225.709 620.888 226.231 620.796ZM207.728 632.585C208.032 632.151 208.496 631.856 209.018 631.764C209.54 631.672 210.077 631.791 210.512 632.095L211.725 632.942C212.15 633.25 212.436 633.712 212.523 634.23C212.61 634.747 212.49 635.277 212.189 635.707C211.889 636.137 211.431 636.431 210.916 636.527C210.4 636.623 209.868 636.512 209.433 636.219L208.219 635.369C207.785 635.065 207.489 634.601 207.397 634.079C207.305 633.557 207.424 633.02 207.728 632.585ZM247.651 625.546C248.085 625.85 248.38 626.314 248.472 626.836C248.564 627.358 248.445 627.895 248.142 628.33L247.291 629.544C246.979 629.957 246.519 630.234 246.007 630.315C245.495 630.396 244.972 630.275 244.548 629.978C244.123 629.681 243.83 629.23 243.731 628.721C243.633 628.213 243.735 627.686 244.017 627.251L244.867 626.037C245.171 625.603 245.635 625.307 246.157 625.215C246.679 625.123 247.216 625.242 247.651 625.546ZM202.978 654.005C202.886 653.483 203.005 652.945 203.309 652.511C203.613 652.076 204.078 651.78 204.6 651.688L207.226 651.225C207.749 651.133 208.286 651.252 208.721 651.556C209.155 651.861 209.451 652.325 209.543 652.847C209.635 653.37 209.516 653.907 209.212 654.342C208.908 654.776 208.443 655.072 207.921 655.164L205.295 655.627C204.772 655.719 204.235 655.6 203.8 655.296C203.366 654.992 203.07 654.527 202.978 654.005ZM252.875 645.207C252.783 644.684 252.902 644.147 253.206 643.712C253.51 643.278 253.975 642.982 254.497 642.89L257.123 642.427C257.646 642.335 258.183 642.454 258.618 642.758C259.052 643.062 259.348 643.527 259.44 644.049C259.532 644.572 259.413 645.109 259.109 645.544C258.805 645.978 258.34 646.274 257.818 646.366L255.192 646.829C254.669 646.921 254.132 646.802 253.697 646.498C253.263 646.194 252.967 645.729 252.875 645.207ZM250.202 662.326C250.506 661.892 250.97 661.596 251.492 661.504C252.014 661.412 252.551 661.531 252.985 661.835L254.199 662.685C254.425 662.831 254.618 663.021 254.768 663.244C254.919 663.467 255.023 663.717 255.074 663.981C255.125 664.244 255.123 664.516 255.067 664.778C255.011 665.041 254.903 665.29 254.749 665.51C254.595 665.73 254.398 665.917 254.17 666.059C253.943 666.201 253.688 666.296 253.423 666.338C253.158 666.38 252.887 666.368 252.626 666.303C252.366 666.238 252.121 666.121 251.906 665.96L250.692 665.109C250.258 664.805 249.963 664.341 249.871 663.819C249.779 663.297 249.898 662.76 250.202 662.326ZM217.91 668.02C218.344 668.324 218.64 668.788 218.732 669.31C218.824 669.832 218.705 670.369 218.401 670.803L217.551 672.017C217.405 672.243 217.215 672.436 216.992 672.586C216.77 672.737 216.519 672.841 216.255 672.892C215.992 672.943 215.72 672.941 215.458 672.885C215.195 672.829 214.946 672.721 214.726 672.567C214.506 672.413 214.319 672.216 214.177 671.988C214.035 671.761 213.94 671.506 213.898 671.241C213.856 670.976 213.868 670.705 213.933 670.444C213.998 670.184 214.115 669.939 214.277 669.724L215.124 668.511C215.275 668.296 215.466 668.112 215.688 667.971C215.909 667.83 216.157 667.733 216.415 667.688C216.674 667.642 216.939 667.648 217.196 667.705C217.452 667.762 217.695 667.869 217.91 668.02ZM235.029 670.693C235.552 670.601 236.089 670.72 236.524 671.024C236.958 671.328 237.254 671.793 237.346 672.315L237.809 674.941C237.901 675.464 237.782 676.001 237.478 676.436C237.174 676.87 236.709 677.166 236.187 677.258C235.665 677.35 235.127 677.231 234.693 676.927C234.258 676.623 233.962 676.158 233.87 675.636L233.407 673.01C233.315 672.487 233.434 671.95 233.738 671.515C234.043 671.081 234.507 670.785 235.029 670.693Z" fill="#EEE8A9"/>
</g>
<g filter="url(#filter6_d_531_5073)">
<path d="M952.76 752.068L954.601 741.629C953.523 740.83 952.979 739.312 953.222 737.934L954.611 730.055C954.854 728.676 955.85 727.634 957.171 727.054L957.275 726.463C957.657 724.297 956.197 722.211 954.031 721.829C951.864 721.447 949.779 722.907 949.397 725.074C949.015 727.241 950.475 729.326 952.641 729.708L948.702 729.013C947.717 728.84 946.559 729.651 946.385 730.636L944.996 738.514C944.822 739.499 945.634 740.657 946.618 740.831L944.882 750.679L952.76 752.068ZM976.277 733.875L972.338 733.181C974.504 733.563 976.589 732.103 976.971 729.936C977.353 727.77 975.893 725.684 973.727 725.302C971.56 724.92 969.475 726.38 969.093 728.547L968.989 729.138C970.032 730.134 970.611 731.455 970.368 732.834L968.979 740.712C968.736 742.091 967.705 743.331 966.419 743.713L964.578 754.152L972.457 755.541L974.193 745.693C975.178 745.867 976.336 745.056 976.51 744.071L977.899 736.192C978.073 735.208 977.262 734.049 976.277 733.875ZM967.471 726.23C967.39 726.757 967.205 727.262 966.926 727.716C966.648 728.17 966.281 728.564 965.848 728.875C965.415 729.186 964.925 729.406 964.405 729.525C963.886 729.643 963.348 729.657 962.823 729.564C962.298 729.472 961.797 729.275 961.35 728.987C960.902 728.698 960.516 728.323 960.215 727.883C959.914 727.443 959.704 726.948 959.598 726.426C959.491 725.904 959.49 725.366 959.594 724.843C959.798 723.818 960.396 722.913 961.258 722.323C962.121 721.733 963.181 721.504 964.21 721.685C965.24 721.867 966.158 722.444 966.767 723.293C967.376 724.143 967.629 725.197 967.471 726.23Z" fill="#EEE8A9"/>
</g>
<g filter="url(#filter7_d_531_5073)">
<path d="M966.776 730.169L958.898 728.78C957.913 728.607 956.754 729.418 956.581 730.402L955.191 738.281C955.018 739.266 955.829 740.424 956.814 740.598L954.73 752.416L962.608 753.805L964.692 741.987C965.677 742.161 966.836 741.35 967.009 740.365L968.398 732.486C968.572 731.501 967.761 730.343 966.776 730.169Z" fill="#EEE8A9"/>
</g>
<g opacity="0.5" clip-path="url(#clip0_531_5073)">
<g filter="url(#filter8_d_531_5073)">
<path fill-rule="evenodd" clip-rule="evenodd" d="M151.178 456.37L150.179 470.762L160.027 469.026L140.444 498.88L142.014 476.264L134.136 477.653L135.421 459.149L151.178 456.37Z" fill="#EEE8A9"/>
</g>
</g>
<g opacity="0.6">
<g opacity="0.5" filter="url(#filter9_d_531_5073)">
<path d="M192.83 769.68L187.723 775.556C186.873 776.531 186.936 778.005 187.868 778.901C188.856 779.856 190.438 779.799 191.357 778.78L196.631 772.951C197.003 772.543 197.632 772.508 198.046 772.879C198.461 773.25 198.489 773.88 198.118 774.295L197.007 775.518L206.952 781.888L204.903 770.268L204.86 770.275L204.593 770.164L199.62 768.09C198.571 767.652 197.413 767.527 196.293 767.724C194.951 767.961 193.728 768.652 192.83 769.68ZM195.584 777.09L192.838 780.125C191.166 781.981 188.284 782.083 186.479 780.345C184.782 778.709 184.664 776.026 186.21 774.249L190.601 769.204C189.834 769.028 189.037 769.01 188.256 769.148C187.097 769.346 186.032 769.889 185.178 770.699L181.268 774.435L183.699 788.222L185.434 787.916L191.965 792.058C193.366 792.947 195.216 792.532 196.105 791.131C196.377 790.696 196.528 790.219 196.564 789.743L197.78 790.518C199.175 791.409 201.032 790.999 201.922 789.604C202.146 789.254 202.287 788.867 202.352 788.481C203.687 789.071 205.283 788.618 206.093 787.345C206.983 785.951 206.573 784.094 205.179 783.204L195.584 777.09ZM174.374 775.651C173.832 775.746 173.467 776.268 173.563 776.809L175.82 789.612C176.012 790.701 177.048 791.426 178.137 791.234L180.107 790.887C181.196 790.695 181.921 789.659 181.729 788.57L179.298 774.782L174.374 775.651ZM178.427 787.121C178.689 787.075 178.957 787.135 179.175 787.287C179.392 787.439 179.54 787.671 179.586 787.932C179.632 788.193 179.572 788.462 179.42 788.679C179.268 788.897 179.036 789.045 178.775 789.091C178.513 789.137 178.245 789.077 178.027 788.925C177.81 788.773 177.662 788.541 177.616 788.28C177.57 788.018 177.63 787.75 177.782 787.532C177.934 787.315 178.166 787.167 178.427 787.121ZM206.873 769.92L209.304 783.708C209.496 784.797 210.531 785.522 211.621 785.33L213.59 784.983C214.68 784.791 215.405 783.755 215.213 782.666L212.955 769.863C212.86 769.322 212.338 768.957 211.797 769.052L206.873 769.92ZM211.1 782.376C211.054 782.114 211.113 781.846 211.265 781.628C211.417 781.411 211.65 781.263 211.911 781.217C212.172 781.171 212.441 781.231 212.658 781.383C212.875 781.535 213.023 781.767 213.069 782.028C213.115 782.289 213.056 782.558 212.904 782.775C212.752 782.993 212.519 783.141 212.258 783.187C211.997 783.233 211.728 783.173 211.511 783.021C211.294 782.869 211.146 782.637 211.1 782.376Z" fill="#EEE8A9"/>
</g>
</g>
<g opacity="0.5">
<g filter="url(#filter10_d_531_5073)">
<path d="M93.3987 207.845L101.386 187.611L94.6912 188.197L93.5983 175.705L85.3324 195.962L92.3057 195.352L93.3987 207.845ZM91.2573 171.894C96.7363 171.415 101.593 172.998 105.818 176.543C110.043 180.088 112.445 184.596 112.924 190.075C113.404 195.554 111.821 200.411 108.276 204.636C104.73 208.861 100.223 211.263 94.7435 211.742C89.2644 212.221 84.408 210.639 80.1829 207.093C75.9579 203.548 73.5558 199.04 73.0765 193.561C72.5971 188.082 74.1799 183.226 77.7251 179.001C81.2704 174.776 85.7782 172.374 91.2573 171.894Z" fill="#EEE8A9"/>
</g>
</g>
<g filter="url(#filter11_d_531_5073)">
<path d="M218.23 279.292C212.426 280.316 208.14 283.495 208.651 286.397C208.907 287.847 210.29 288.816 211.741 288.56L227.498 285.782C228.948 285.526 229.916 284.143 229.661 282.693C229.149 279.791 224.034 278.269 218.23 279.292ZM211.588 272.34C211.834 273.733 212.623 274.971 213.782 275.783C214.94 276.594 216.374 276.912 217.767 276.666C219.16 276.421 220.398 275.632 221.21 274.473C222.021 273.314 222.339 271.881 222.093 270.488M214.563 262.338C214.17 262.408 213.956 262.73 214.023 263.111L214.602 266.393C214.665 266.756 214.423 267.102 214.061 267.166C213.698 267.229 213.352 266.987 213.288 266.625L213.078 265.429C212.956 264.739 212.203 264.435 211.765 264.982C211.166 265.731 210.553 266.923 210.643 268.617C210.669 269.098 210.376 269.587 210.163 270.019C210.126 270.093 210.094 270.175 210.068 270.267C209.916 270.798 210.485 271.181 211.029 271.085L222.144 269.125C222.706 269.026 223.108 268.442 222.759 267.992C222.714 267.932 222.667 267.88 222.62 267.834C222.28 267.499 221.849 267.133 221.711 266.677C221.218 265.048 220.231 264.134 219.411 263.634C218.812 263.27 218.208 263.813 218.33 264.503L218.541 265.699C218.605 266.061 218.363 266.407 218 266.471C217.637 266.535 217.292 266.293 217.228 265.93L216.649 262.647C216.582 262.267 216.284 262.035 215.877 262.107L214.563 262.338Z" fill="#EEE8A9"/>
</g>
<g opacity="0.5">
<g filter="url(#filter12_d_531_5073)">
<path d="M1039.34 201.152C1039.06 201.103 1038.84 200.968 1038.69 200.747C1038.53 200.526 1038.48 200.275 1038.53 199.994C1038.57 199.713 1038.71 199.495 1038.93 199.34C1039.15 199.186 1039.4 199.133 1039.69 199.183L1043.06 199.778C1043.34 199.827 1043.56 199.962 1043.71 200.183C1043.87 200.404 1043.92 200.655 1043.87 200.936C1043.82 201.217 1043.68 201.435 1043.46 201.589C1043.24 201.744 1042.99 201.797 1042.71 201.747L1039.34 201.152ZM1034.07 227.639L1032.94 230.533C1032.57 231.495 1032.64 232.419 1033.13 233.304C1033.62 234.19 1034.37 234.722 1035.39 234.902L1047.84 237.097L1049.04 230.28L1034.07 227.639ZM1040.77 209.894L1043.59 207.918C1043.81 207.767 1044.05 207.714 1044.31 207.761C1044.58 207.807 1044.79 207.939 1044.95 208.157C1045.13 208.387 1045.19 208.639 1045.13 208.912C1045.07 209.186 1044.93 209.402 1044.7 209.562L1041.88 211.541C1041.66 211.692 1041.42 211.745 1041.15 211.698C1040.89 211.652 1040.68 211.52 1040.52 211.302C1040.34 211.071 1040.28 210.818 1040.34 210.543C1040.4 210.268 1040.54 210.05 1040.77 209.894ZM1034.82 225.742L1049.39 228.31L1050.61 221.377L1040.03 219.512C1039.26 219.376 1038.54 219.496 1037.89 219.873C1037.23 220.25 1036.75 220.794 1036.46 221.507L1034.82 225.742ZM1051.41 216.871L1052 213.501C1052.05 213.22 1052.19 213.002 1052.41 212.847C1052.63 212.693 1052.88 212.64 1053.16 212.69C1053.44 212.739 1053.66 212.875 1053.81 213.095C1053.97 213.316 1054.02 213.567 1053.97 213.848L1053.38 217.218C1053.33 217.499 1053.19 217.717 1052.97 217.872C1052.75 218.026 1052.5 218.079 1052.22 218.029C1051.94 217.98 1051.72 217.845 1051.56 217.624C1051.41 217.403 1051.36 217.152 1051.41 216.871ZM1049.81 237.446L1062.22 239.634C1063.24 239.814 1064.13 239.572 1064.89 238.908C1065.66 238.243 1066.04 237.396 1066.02 236.368L1065.95 233.262L1051.01 230.627L1049.81 237.446ZM1051.36 228.658L1065.89 231.22L1065.8 226.682C1065.77 225.911 1065.51 225.236 1065.02 224.657C1064.53 224.078 1063.89 223.72 1063.12 223.585L1052.58 221.727L1051.36 228.658ZM1064.19 215.464L1062.19 212.594C1062.04 212.378 1061.99 212.138 1062.04 211.876C1062.1 211.613 1062.24 211.403 1062.46 211.244C1062.68 211.092 1062.92 211.039 1063.17 211.084C1063.43 211.129 1063.63 211.26 1063.78 211.476L1065.85 214.318C1066.03 214.54 1066.1 214.783 1066.05 215.047C1066.01 215.311 1065.86 215.532 1065.6 215.712C1065.35 215.892 1065.09 215.959 1064.84 215.913C1064.59 215.867 1064.37 215.718 1064.19 215.464ZM1070.09 206.576L1066.72 205.981C1066.44 205.932 1066.22 205.797 1066.07 205.575C1065.91 205.354 1065.86 205.103 1065.91 204.823C1065.96 204.542 1066.1 204.324 1066.32 204.169C1066.54 204.015 1066.79 203.962 1067.07 204.011L1070.44 204.606C1070.72 204.655 1070.94 204.791 1071.09 205.012C1071.25 205.233 1071.3 205.484 1071.25 205.764C1071.2 206.045 1071.07 206.263 1070.85 206.418C1070.63 206.573 1070.38 206.625 1070.09 206.576ZM1053.67 209.812C1051.75 209.474 1050.17 208.574 1048.95 207.113C1047.72 205.654 1047.07 203.984 1047.01 202.104C1047 201.667 1047.17 201.31 1047.52 201.033C1047.86 200.756 1048.27 200.657 1048.72 200.738L1061.42 202.976C1061.85 203.052 1062.18 203.28 1062.43 203.662C1062.67 204.043 1062.71 204.437 1062.56 204.844C1061.86 206.589 1060.68 207.938 1059.03 208.891C1057.37 209.842 1055.59 210.151 1053.67 209.812Z" fill="#EEE8A9"/>
</g>
</g>
<g opacity="0.5">
<g filter="url(#filter13_d_531_5073)">
<path d="M91.196 617.138C91.1359 616.932 91.0321 616.74 90.8915 616.577C90.7509 616.414 90.5768 616.283 90.3811 616.193L84.5315 613.505L83.9596 607.228C83.94 607.011 83.8737 606.802 83.7653 606.614C83.6569 606.426 83.5089 606.263 83.3317 606.138C81.161 604.605 78.7188 603.499 76.1351 602.877C75.9316 602.828 75.7199 602.821 75.5137 602.858C75.3076 602.896 75.1115 602.976 74.9381 603.093L69.5925 606.727L63.6912 604.071C63.4998 603.985 63.2926 603.94 63.0827 603.939C62.8728 603.938 62.6651 603.981 62.4729 604.065C60.0383 605.131 57.8283 606.65 55.9606 608.54C55.808 608.694 55.6906 608.88 55.6165 609.083C55.5424 609.287 55.5133 609.504 55.5312 609.72L56.0531 616.008L50.7591 619.671C50.5819 619.793 50.4332 619.953 50.3231 620.138C50.2129 620.323 50.1439 620.529 50.1207 620.743C49.8351 623.35 50.0659 625.988 50.7999 628.506C50.8599 628.713 50.9637 628.904 51.1044 629.067C51.245 629.23 51.419 629.361 51.6147 629.451L57.4644 632.139L58.0364 638.419C58.056 638.635 58.1222 638.844 58.2307 639.032C58.3391 639.22 58.487 639.383 58.6643 639.508C60.835 641.041 63.2772 642.148 65.8609 642.769C66.0644 642.819 66.2761 642.825 66.4822 642.788C66.6884 642.751 66.8845 642.671 67.0579 642.553L72.4082 638.91L78.3096 641.565C78.5431 641.67 78.7997 641.712 79.0544 641.688C79.2176 641.674 79.3774 641.633 79.5276 641.568C81.9615 640.502 84.1714 638.985 86.0401 637.096C86.1927 636.942 86.3101 636.757 86.3843 636.553C86.4584 636.349 86.4875 636.132 86.4696 635.916L85.9477 629.628L91.2417 625.965C91.4188 625.843 91.5675 625.684 91.6777 625.499C91.7878 625.314 91.8568 625.107 91.8801 624.893C92.163 622.288 91.9305 619.653 91.196 617.138ZM71.6541 630.29C70.1763 630.419 68.6935 630.107 67.393 629.394C66.0925 628.68 65.0327 627.597 64.3478 626.281C63.6629 624.966 63.3835 623.476 63.545 622.002C63.7065 620.527 64.3016 619.134 65.2551 617.997C66.2085 616.861 67.4776 616.033 68.9017 615.618C70.3258 615.203 71.841 615.219 73.2557 615.665C74.6704 616.111 75.9211 616.967 76.8495 618.124C77.778 619.281 78.3426 620.687 78.4718 622.165C78.6452 624.146 78.0243 626.115 76.7457 627.639C75.4671 629.163 73.6356 630.116 71.6541 630.29Z" fill="#EEE8A9"/>
</g>
</g>
<g opacity="0.5" filter="url(#filter14_d_531_5073)">
<path d="M1037.23 597.055L1037.93 593.116C1038.29 591.027 1038.02 588.876 1037.16 586.939C1036.3 585.002 1034.87 583.367 1033.07 582.242L1031.82 589.332L1030.51 589.101L1032.36 578.596L1027.11 577.67L1025.26 588.175L1023.95 587.943L1025.2 580.853C1023.12 581.294 1021.23 582.345 1019.75 583.869C1018.28 585.394 1017.29 587.324 1016.92 589.412L1016.22 593.351L1013.6 592.888L1013.13 595.514L1039.4 600.145L1039.86 597.518L1037.23 597.055Z" fill="#EEE8A9"/>
</g>
<g opacity="0.5" filter="url(#filter15_d_531_5073)">
<path d="M1099.13 481.454L1100.82 481.602L1102.7 460.176C1102.74 459.642 1102.96 459.137 1103.31 458.731C1103.66 458.326 1104.12 458.04 1104.65 457.916L1118.6 454.583C1119 454.49 1119.41 454.49 1119.8 454.586C1120.19 454.682 1120.56 454.869 1120.86 455.134C1121.17 455.398 1121.41 455.731 1121.56 456.105C1121.71 456.48 1121.77 456.885 1121.74 457.288L1119.47 483.234L1121.16 483.382L1122.5 468.109C1122.51 467.984 1122.55 467.862 1122.61 467.754C1122.68 467.645 1122.76 467.552 1122.87 467.481C1122.97 467.41 1123.09 467.363 1123.21 467.343C1123.34 467.324 1123.46 467.332 1123.58 467.367L1127.24 468.439C1127.81 468.604 1128.3 468.961 1128.63 469.448C1128.97 469.935 1129.12 470.522 1129.07 471.109L1127.94 483.975L1129.64 484.124C1130.09 484.163 1130.5 484.379 1130.79 484.725C1131.08 485.071 1131.22 485.517 1131.18 485.967C1131.15 486.417 1130.93 486.832 1130.58 487.122C1130.24 487.412 1129.79 487.553 1129.34 487.514L1098.83 484.844C1098.38 484.805 1097.96 484.589 1097.67 484.243C1097.38 483.897 1097.24 483.451 1097.28 483.001C1097.32 482.551 1097.54 482.136 1097.88 481.846C1098.23 481.556 1098.68 481.415 1099.13 481.454Z" fill="#EEE8A9"/>
</g>
<defs>
<filter id="filter0_d_531_5073" x="850.545" y="20.2485" width="140.256" height="140.016" filterUnits="userSpaceOnUse" color-interpolation-filters="sRGB">
<feFlood flood-opacity="0" result="BackgroundImageFix"/>
<feColorMatrix in="SourceAlpha" type="matrix" values="0 0 0 0 0 0 0 0 0 0 0 0 0 0 0 0 0 0 127 0" result="hardAlpha"/>
<feOffset/>
<feGaussianBlur stdDeviation="25"/>
<feComposite in2="hardAlpha" operator="out"/>
<feColorMatrix type="matrix" values="0 0 0 0 1 0 0 0 0 1 0 0 0 0 1 0 0 0 1 0"/>
<feBlend mode="overlay" in2="BackgroundImageFix" result="effect1_dropShadow_531_5073"/>
<feBlend mode="normal" in="SourceGraphic" in2="effect1_dropShadow_531_5073" result="shape"/>
</filter>
<filter id="filter1_d_531_5073" x="170.672" y="34.3358" width="112.512" height="106.023" filterUnits="userSpaceOnUse" color-interpolation-filters="sRGB">
<feFlood flood-opacity="0" result="BackgroundImageFix"/>
<feColorMatrix in="SourceAlpha" type="matrix" values="0 0 0 0 0 0 0 0 0 0 0 0 0 0 0 0 0 0 127 0" result="hardAlpha"/>
<feOffset/>
<feGaussianBlur stdDeviation="25"/>
<feComposite in2="hardAlpha" operator="out"/>
<feColorMatrix type="matrix" values="0 0 0 0 1 0 0 0 0 1 0 0 0 0 1 0 0 0 1 0"/>
<feBlend mode="overlay" in2="BackgroundImageFix" result="effect1_dropShadow_531_5073"/>
<feBlend mode="normal" in="SourceGraphic" in2="effect1_dropShadow_531_5073" result="shape"/>
</filter>
<filter id="filter2_d_531_5073" x="159.759" y="0.710327" width="126.003" height="130.801" filterUnits="userSpaceOnUse" color-interpolation-filters="sRGB">
<feFlood flood-opacity="0" result="BackgroundImageFix"/>
<feColorMatrix in="SourceAlpha" type="matrix" values="0 0 0 0 0 0 0 0 0 0 0 0 0 0 0 0 0 0 127 0" result="hardAlpha"/>
<feOffset/>
<feGaussianBlur stdDeviation="25"/>
<feComposite in2="hardAlpha" operator="out"/>
<feColorMatrix type="matrix" values="0 0 0 0 1 0 0 0 0 1 0 0 0 0 1 0 0 0 1 0"/>
<feBlend mode="overlay" in2="BackgroundImageFix" result="effect1_dropShadow_531_5073"/>
<feBlend mode="normal" in="SourceGraphic" in2="effect1_dropShadow_531_5073" result="shape"/>
</filter>
<filter id="filter3_d_531_5073" x="925.61" y="336.367" width="143.148" height="131.765" filterUnits="userSpaceOnUse" color-interpolation-filters="sRGB">
<feFlood flood-opacity="0" result="BackgroundImageFix"/>
<feColorMatrix in="SourceAlpha" type="matrix" values="0 0 0 0 0 0 0 0 0 0 0 0 0 0 0 0 0 0 127 0" result="hardAlpha"/>
<feOffset/>
<feGaussianBlur stdDeviation="25"/>
<feComposite in2="hardAlpha" operator="out"/>
<feColorMatrix type="matrix" values="0 0 0 0 1 0 0 0 0 1 0 0 0 0 1 0 0 0 1 0"/>
<feBlend mode="overlay" in2="BackgroundImageFix" result="effect1_dropShadow_531_5073"/>
<feBlend mode="normal" in="SourceGraphic" in2="effect1_dropShadow_531_5073" result="shape"/>
</filter>
<filter id="filter4_d_531_5073" x="165" y="582.818" width="132" height="132" filterUnits="userSpaceOnUse" color-interpolation-filters="sRGB">
<feFlood flood-opacity="0" result="BackgroundImageFix"/>
<feColorMatrix in="SourceAlpha" type="matrix" values="0 0 0 0 0 0 0 0 0 0 0 0 0 0 0 0 0 0 127 0" result="hardAlpha"/>
<feOffset/>
<feGaussianBlur stdDeviation="25"/>
<feComposite in2="hardAlpha" operator="out"/>
<feColorMatrix type="matrix" values="0 0 0 0 1 0 0 0 0 1 0 0 0 0 1 0 0 0 1 0"/>
<feBlend mode="overlay" in2="BackgroundImageFix" result="effect1_dropShadow_531_5073"/>
<feBlend mode="normal" in="SourceGraphic" in2="effect1_dropShadow_531_5073" result="shape"/>
</filter>
<filter id="filter5_d_531_5073" x="152.948" y="570.766" width="156.523" height="156.523" filterUnits="userSpaceOnUse" color-interpolation-filters="sRGB">
<feFlood flood-opacity="0" result="BackgroundImageFix"/>
<feColorMatrix in="SourceAlpha" type="matrix" values="0 0 0 0 0 0 0 0 0 0 0 0 0 0 0 0 0 0 127 0" result="hardAlpha"/>
<feOffset/>
<feGaussianBlur stdDeviation="25"/>
<feComposite in2="hardAlpha" operator="out"/>
<feColorMatrix type="matrix" values="0 0 0 0 1 0 0 0 0 1 0 0 0 0 1 0 0 0 1 0"/>
<feBlend mode="overlay" in2="BackgroundImageFix" result="effect1_dropShadow_531_5073"/>
<feBlend mode="normal" in="SourceGraphic" in2="effect1_dropShadow_531_5073" result="shape"/>
</filter>
<filter id="filter6_d_531_5073" x="894.882" y="671.625" width="133.041" height="133.917" filterUnits="userSpaceOnUse" color-interpolation-filters="sRGB">
<feFlood flood-opacity="0" result="BackgroundImageFix"/>
<feColorMatrix in="SourceAlpha" type="matrix" values="0 0 0 0 0 0 0 0 0 0 0 0 0 0 0 0 0 0 127 0" result="hardAlpha"/>
<feOffset/>
<feGaussianBlur stdDeviation="25"/>
<feComposite in2="hardAlpha" operator="out"/>
<feColorMatrix type="matrix" values="0 0 0 0 1 0 0 0 0 1 0 0 0 0 1 0 0 0 1 0"/>
<feBlend mode="overlay" in2="BackgroundImageFix" result="effect1_dropShadow_531_5073"/>
<feBlend mode="normal" in="SourceGraphic" in2="effect1_dropShadow_531_5073" result="shape"/>
</filter>
<filter id="filter7_d_531_5073" x="904.73" y="678.757" width="113.692" height="125.048" filterUnits="userSpaceOnUse" color-interpolation-filters="sRGB">
<feFlood flood-opacity="0" result="BackgroundImageFix"/>
<feColorMatrix in="SourceAlpha" type="matrix" values="0 0 0 0 0 0 0 0 0 0 0 0 0 0 0 0 0 0 127 0" result="hardAlpha"/>
<feOffset/>
<feGaussianBlur stdDeviation="25"/>
<feComposite in2="hardAlpha" operator="out"/>
<feColorMatrix type="matrix" values="0 0 0 0 1 0 0 0 0 1 0 0 0 0 1 0 0 0 1 0"/>
<feBlend mode="overlay" in2="BackgroundImageFix" result="effect1_dropShadow_531_5073"/>
<feBlend mode="normal" in="SourceGraphic" in2="effect1_dropShadow_531_5073" result="shape"/>
</filter>
<filter id="filter8_d_531_5073" x="84.136" y="406.37" width="125.891" height="142.51" filterUnits="userSpaceOnUse" color-interpolation-filters="sRGB">
<feFlood flood-opacity="0" result="BackgroundImageFix"/>
<feColorMatrix in="SourceAlpha" type="matrix" values="0 0 0 0 0 0 0 0 0 0 0 0 0 0 0 0 0 0 127 0" result="hardAlpha"/>
<feOffset/>
<feGaussianBlur stdDeviation="25"/>
<feComposite in2="hardAlpha" operator="out"/>
<feColorMatrix type="matrix" values="0 0 0 0 1 0 0 0 0 1 0 0 0 0 1 0 0 0 1 0"/>
<feBlend mode="overlay" in2="BackgroundImageFix" result="effect1_dropShadow_531_5073"/>
<feBlend mode="normal" in="SourceGraphic" in2="effect1_dropShadow_531_5073" result="shape"/>
</filter>
<filter id="filter9_d_531_5073" x="123.548" y="717.633" width="141.696" height="124.893" filterUnits="userSpaceOnUse" color-interpolation-filters="sRGB">
<feFlood flood-opacity="0" result="BackgroundImageFix"/>
<feColorMatrix in="SourceAlpha" type="matrix" values="0 0 0 0 0 0 0 0 0 0 0 0 0 0 0 0 0 0 127 0" result="hardAlpha"/>
<feOffset/>
<feGaussianBlur stdDeviation="25"/>
<feComposite in2="hardAlpha" operator="out"/>
<feColorMatrix type="matrix" values="0 0 0 0 1 0 0 0 0 1 0 0 0 0 1 0 0 0 1 0"/>
<feBlend mode="overlay" in2="BackgroundImageFix" result="effect1_dropShadow_531_5073"/>
<feBlend mode="normal" in="SourceGraphic" in2="effect1_dropShadow_531_5073" result="shape"/>
</filter>
<filter id="filter10_d_531_5073" x="22.9927" y="121.811" width="140.015" height="140.015" filterUnits="userSpaceOnUse" color-interpolation-filters="sRGB">
<feFlood flood-opacity="0" result="BackgroundImageFix"/>
<feColorMatrix in="SourceAlpha" type="matrix" values="0 0 0 0 0 0 0 0 0 0 0 0 0 0 0 0 0 0 127 0" result="hardAlpha"/>
<feOffset/>
<feGaussianBlur stdDeviation="25"/>
<feComposite in2="hardAlpha" operator="out"/>
<feColorMatrix type="matrix" values="0 0 0 0 1 0 0 0 0 1 0 0 0 0 1 0 0 0 1 0"/>
<feBlend mode="overlay" in2="BackgroundImageFix" result="effect1_dropShadow_531_5073"/>
<feBlend mode="normal" in="SourceGraphic" in2="effect1_dropShadow_531_5073" result="shape"/>
</filter>
<filter id="filter11_d_531_5073" x="158.61" y="212.094" width="121.092" height="126.507" filterUnits="userSpaceOnUse" color-interpolation-filters="sRGB">
<feFlood flood-opacity="0" result="BackgroundImageFix"/>
<feColorMatrix in="SourceAlpha" type="matrix" values="0 0 0 0 0 0 0 0 0 0 0 0 0 0 0 0 0 0 127 0" result="hardAlpha"/>
<feOffset/>
<feGaussianBlur stdDeviation="25"/>
<feComposite in2="hardAlpha" operator="out"/>
<feColorMatrix type="matrix" values="0 0 0 0 1 0 0 0 0 1 0 0 0 0 1 0 0 0 1 0"/>
<feBlend mode="overlay" in2="BackgroundImageFix" result="effect1_dropShadow_531_5073"/>
<feBlend mode="normal" in="SourceGraphic" in2="effect1_dropShadow_531_5073" result="shape"/>
</filter>
<filter id="filter12_d_531_5073" x="982.704" y="149.165" width="138.568" height="140.527" filterUnits="userSpaceOnUse" color-interpolation-filters="sRGB">
<feFlood flood-opacity="0" result="BackgroundImageFix"/>
<feColorMatrix in="SourceAlpha" type="matrix" values="0 0 0 0 0 0 0 0 0 0 0 0 0 0 0 0 0 0 127 0" result="hardAlpha"/>
<feOffset/>
<feGaussianBlur stdDeviation="25"/>
<feComposite in2="hardAlpha" operator="out"/>
<feColorMatrix type="matrix" values="0 0 0 0 1 0 0 0 0 1 0 0 0 0 1 0 0 0 1 0"/>
<feBlend mode="overlay" in2="BackgroundImageFix" result="effect1_dropShadow_531_5073"/>
<feBlend mode="normal" in="SourceGraphic" in2="effect1_dropShadow_531_5073" result="shape"/>
</filter>
<filter id="filter13_d_531_5073" x="0.00195312" y="552.835" width="141.995" height="139.977" filterUnits="userSpaceOnUse" color-interpolation-filters="sRGB">
<feFlood flood-opacity="0" result="BackgroundImageFix"/>
<feColorMatrix in="SourceAlpha" type="matrix" values="0 0 0 0 0 0 0 0 0 0 0 0 0 0 0 0 0 0 127 0" result="hardAlpha"/>
<feOffset/>
<feGaussianBlur stdDeviation="25"/>
<feComposite in2="hardAlpha" operator="out"/>
<feColorMatrix type="matrix" values="0 0 0 0 1 0 0 0 0 1 0 0 0 0 1 0 0 0 1 0"/>
<feBlend mode="overlay" in2="BackgroundImageFix" result="effect1_dropShadow_531_5073"/>
<feBlend mode="normal" in="SourceGraphic" in2="effect1_dropShadow_531_5073" result="shape"/>
</filter>
<filter id="filter14_d_531_5073" x="963.134" y="527.67" width="126.725" height="122.474" filterUnits="userSpaceOnUse" color-interpolation-filters="sRGB">
<feFlood flood-opacity="0" result="BackgroundImageFix"/>
<feColorMatrix in="SourceAlpha" type="matrix" values="0 0 0 0 0 0 0 0 0 0 0 0 0 0 0 0 0 0 127 0" result="hardAlpha"/>
<feOffset/>
<feGaussianBlur stdDeviation="25"/>
<feComposite in2="hardAlpha" operator="out"/>
<feColorMatrix type="matrix" values="0 0 0 0 1 0 0 0 0 1 0 0 0 0 1 0 0 0 1 0"/>
<feBlend mode="overlay" in2="BackgroundImageFix" result="effect1_dropShadow_531_5073"/>
<feBlend mode="normal" in="SourceGraphic" in2="effect1_dropShadow_531_5073" result="shape"/>
</filter>
<filter id="filter15_d_531_5073" x="1047.28" y="404.514" width="133.915" height="133.007" filterUnits="userSpaceOnUse" color-interpolation-filters="sRGB">
<feFlood flood-opacity="0" result="BackgroundImageFix"/>
<feColorMatrix in="SourceAlpha" type="matrix" values="0 0 0 0 0 0 0 0 0 0 0 0 0 0 0 0 0 0 127 0" result="hardAlpha"/>
<feOffset/>
<feGaussianBlur stdDeviation="25"/>
<feComposite in2="hardAlpha" operator="out"/>
<feColorMatrix type="matrix" values="0 0 0 0 1 0 0 0 0 1 0 0 0 0 1 0 0 0 1 0"/>
<feBlend mode="overlay" in2="BackgroundImageFix" result="effect1_dropShadow_531_5073"/>
<feBlend mode="normal" in="SourceGraphic" in2="effect1_dropShadow_531_5073" result="shape"/>
</filter>
<clipPath id="clip0_531_5073">
<rect width="48" height="48" fill="white" transform="translate(117 458.335) rotate(-10)"/>
</clipPath>
</defs>
</svg>
