<svg width="49" height="48" viewBox="0 0 49 48" fill="none" xmlns="http://www.w3.org/2000/svg">
<g clip-path="url(#clip0_159_3224)">
<path opacity="0.2" d="M33.6672 18.1348V23.2498C33.6672 26.6248 28.1847 29.4091 21.0166 29.9173C23.6247 30.9054 26.9922 31.4998 30.6672 31.4998C38.951 31.4998 45.6672 28.4773 45.6672 24.7498C45.6672 21.4835 40.5147 18.761 33.6672 18.1348Z" fill="url(#paint0_linear_159_3224)"/>
<path opacity="0.2" d="M18.667 22.5C26.9513 22.5 33.667 19.4779 33.667 15.75C33.667 12.0221 26.9513 9 18.667 9C10.3827 9 3.66699 12.0221 3.66699 15.75C3.66699 19.4779 10.3827 22.5 18.667 22.5Z" fill="url(#paint1_linear_159_3224)"/>
<path d="M18.667 22.5C26.9513 22.5 33.667 19.4779 33.667 15.75C33.667 12.0221 26.9513 9 18.667 9C10.3827 9 3.66699 12.0221 3.66699 15.75C3.66699 19.4779 10.3827 22.5 18.667 22.5Z" stroke="url(#paint2_linear_159_3224)" stroke-width="3" stroke-linecap="round" stroke-linejoin="round"/>
<path d="M3.66699 15.75V23.25C3.66699 26.9775 10.3832 30 18.667 30C26.9507 30 33.667 26.9775 33.667 23.25V15.75" stroke="url(#paint3_linear_159_3224)" stroke-width="3" stroke-linecap="round" stroke-linejoin="round"/>
<path d="M12.667 21.9375V29.4375" stroke="url(#paint4_linear_159_3224)" stroke-width="3" stroke-linecap="round" stroke-linejoin="round"/>
<path d="M33.6672 18.1348C40.5147 18.761 45.6672 21.4835 45.6672 24.7498C45.6672 28.4773 38.951 31.4998 30.6672 31.4998C26.9922 31.4998 23.6247 30.9054 21.0166 29.9173" stroke="url(#paint5_linear_159_3224)" stroke-width="3" stroke-linecap="round" stroke-linejoin="round"/>
<path d="M15.667 29.865V32.25C15.667 35.9775 22.3832 39 30.667 39C38.9507 39 45.667 35.9775 45.667 32.25V24.75" stroke="url(#paint6_linear_159_3224)" stroke-width="3" stroke-linecap="round" stroke-linejoin="round"/>
<path d="M36.667 30.9375V38.4375" stroke="url(#paint7_linear_159_3224)" stroke-width="3" stroke-linecap="round" stroke-linejoin="round"/>
<path d="M24.667 21.9375V38.4375" stroke="url(#paint8_linear_159_3224)" stroke-width="3" stroke-linecap="round" stroke-linejoin="round"/>
</g>
<defs>
<linearGradient id="paint0_linear_159_3224" x1="21.0166" y1="24.8173" x2="45.6672" y2="24.8173" gradientUnits="userSpaceOnUse">
<stop stop-color="#0E7490"/>
<stop offset="1" stop-color="#139ABF"/>
</linearGradient>
<linearGradient id="paint1_linear_159_3224" x1="3.66699" y1="15.75" x2="33.667" y2="15.75" gradientUnits="userSpaceOnUse">
<stop stop-color="#0E7490"/>
<stop offset="1" stop-color="#139ABF"/>
</linearGradient>
<linearGradient id="paint2_linear_159_3224" x1="3.66699" y1="15.75" x2="33.667" y2="15.75" gradientUnits="userSpaceOnUse">
<stop stop-color="#0E7490"/>
<stop offset="1" stop-color="#139ABF"/>
</linearGradient>
<linearGradient id="paint3_linear_159_3224" x1="3.66699" y1="22.875" x2="33.667" y2="22.875" gradientUnits="userSpaceOnUse">
<stop stop-color="#0E7490"/>
<stop offset="1" stop-color="#139ABF"/>
</linearGradient>
<linearGradient id="paint4_linear_159_3224" x1="12.667" y1="25.6875" x2="13.667" y2="25.6875" gradientUnits="userSpaceOnUse">
<stop stop-color="#0E7490"/>
<stop offset="1" stop-color="#139ABF"/>
</linearGradient>
<linearGradient id="paint5_linear_159_3224" x1="21.0166" y1="24.8173" x2="45.6672" y2="24.8173" gradientUnits="userSpaceOnUse">
<stop stop-color="#0E7490"/>
<stop offset="1" stop-color="#139ABF"/>
</linearGradient>
<linearGradient id="paint6_linear_159_3224" x1="15.667" y1="31.875" x2="45.667" y2="31.875" gradientUnits="userSpaceOnUse">
<stop stop-color="#0E7490"/>
<stop offset="1" stop-color="#139ABF"/>
</linearGradient>
<linearGradient id="paint7_linear_159_3224" x1="36.667" y1="34.6875" x2="37.667" y2="34.6875" gradientUnits="userSpaceOnUse">
<stop stop-color="#0E7490"/>
<stop offset="1" stop-color="#139ABF"/>
</linearGradient>
<linearGradient id="paint8_linear_159_3224" x1="24.667" y1="30.1875" x2="25.667" y2="30.1875" gradientUnits="userSpaceOnUse">
<stop stop-color="#0E7490"/>
<stop offset="1" stop-color="#139ABF"/>
</linearGradient>
<clipPath id="clip0_159_3224">
<rect width="48" height="48" fill="white" transform="translate(0.666992)"/>
</clipPath>
</defs>
</svg>
