<svg width="101" height="40" viewBox="0 0 101 40" fill="none" xmlns="http://www.w3.org/2000/svg">
<path d="M30.3444 16.7822C29.7054 10.6979 15.8057 11.2154 15.6127 4.96747L15.625 0C15.8156 6.24775 29.7054 5.74515 30.3444 11.8294V16.7822Z" fill="url(#paint0_linear_716_4232)"/>
<path d="M14.7219 0C14.5287 6.24775 0.641235 5.74515 0 11.8294V16.782C0.641235 10.6977 14.5411 11.2152 14.7317 4.96727L14.7219 0Z" fill="url(#paint1_linear_716_4232)"/>
<path d="M15.6127 28.3527V33.3053C15.8057 27.0576 29.7056 27.575 30.3444 21.4907V16.5381C29.7054 22.6226 15.8055 22.105 15.6127 28.3527Z" fill="url(#paint2_linear_716_4232)"/>
<path d="M14.7317 33.3055C14.5409 27.0578 0.641235 27.5752 0 21.4909V16.5383C0.641235 22.6226 14.5411 22.1052 14.7317 28.3529V33.3055Z" fill="url(#paint3_linear_716_4232)"/>
<path d="M15.6127 35.039V39.9915C15.8057 33.7436 29.7056 34.2613 30.3444 28.1768V23.2242C29.7054 29.3087 15.8055 28.791 15.6127 35.039Z" fill="url(#paint4_linear_716_4232)"/>
<path d="M14.808 40C14.6174 33.752 0.71025 34.3168 0.071228 28.2323V23.2795C0.71005 29.3638 14.6123 28.8464 14.8029 35.0943L14.808 40Z" fill="url(#paint5_linear_716_4232)"/>
<path d="M18.0563 13.6885L23.3281 16.5719L18.0563 19.4552L15.1729 24.7269L12.2896 19.4552L7.0176 16.5719L12.2896 13.6885L15.1729 8.41695L18.0563 13.6885Z" fill="url(#paint6_linear_716_4232)"/>
<path d="M44.416 2.336V2.816C43.904 2.832 43.512 2.896 43.24 3.008C42.984 3.104 42.816 3.296 42.736 3.584C42.656 3.856 42.616 4.288 42.616 4.88V16.784C42.616 17.36 42.656 17.792 42.736 18.08C42.832 18.368 43.008 18.56 43.264 18.656C43.52 18.752 43.904 18.816 44.416 18.848V19.328C43.984 19.296 43.44 19.28 42.784 19.28C42.128 19.264 41.464 19.256 40.792 19.256C40.008 19.256 39.28 19.264 38.608 19.28C37.952 19.28 37.416 19.296 37 19.328V18.848C37.512 18.816 37.896 18.752 38.152 18.656C38.408 18.56 38.576 18.368 38.656 18.08C38.752 17.792 38.8 17.36 38.8 16.784V4.88C38.8 4.288 38.752 3.856 38.656 3.584C38.576 3.296 38.4 3.104 38.128 3.008C37.872 2.896 37.496 2.832 37 2.816V2.336C37.416 2.352 37.952 2.368 38.608 2.384C39.28 2.4 40.008 2.408 40.792 2.408C41.464 2.408 42.128 2.4 42.784 2.384C43.44 2.368 43.984 2.352 44.416 2.336ZM61.8396 2.336V2.816C61.3276 2.88 60.9436 3.016 60.6876 3.224C60.4316 3.416 60.2556 3.728 60.1596 4.16C60.0796 4.592 60.0396 5.2 60.0396 5.984V19.376C59.8476 19.36 59.6476 19.352 59.4396 19.352C59.2476 19.352 59.0396 19.36 58.8156 19.376L48.3994 6.176V15.392C48.3994 16.272 48.4474 16.952 48.5434 17.432C48.6394 17.896 48.8475 18.232 49.1674 18.44C49.5035 18.632 50.0236 18.768 50.7276 18.848V19.328C50.4236 19.296 50.0236 19.28 49.5275 19.28C49.0315 19.264 48.5674 19.256 48.1354 19.256C47.7674 19.256 47.3914 19.264 47.0075 19.28C46.6235 19.28 46.3035 19.296 46.0475 19.328V18.848C46.5595 18.768 46.9435 18.632 47.1995 18.44C47.4555 18.248 47.6234 17.936 47.7034 17.504C47.7994 17.056 47.8475 16.448 47.8475 15.68V4.88C47.8475 4.288 47.7994 3.856 47.7034 3.584C47.6234 3.296 47.4474 3.104 47.1754 3.008C46.9194 2.896 46.5435 2.832 46.0475 2.816V2.336C46.3035 2.352 46.6235 2.368 47.0075 2.384C47.3914 2.4 47.7674 2.408 48.1354 2.408C48.5194 2.408 48.8874 2.4 49.2394 2.384C49.5914 2.368 49.9116 2.352 50.1996 2.336L59.4876 13.784V6.272C59.4876 5.392 59.4396 4.72 59.3436 4.256C59.2476 3.776 59.0316 3.432 58.6956 3.224C58.3756 3.016 57.8636 2.88 57.1596 2.816V2.336C57.4636 2.352 57.8636 2.368 58.3596 2.384C58.8556 2.4 59.3196 2.408 59.7516 2.408C60.1356 2.408 60.5116 2.4 60.8796 2.384C61.2636 2.368 61.5836 2.352 61.8396 2.336ZM70.7596 2.336C73.9116 2.336 76.2556 3.056 77.7916 4.496C79.3276 5.92 80.0956 7.968 80.0956 10.64C80.0956 12.384 79.7196 13.912 78.9676 15.224C78.2156 16.52 77.1196 17.528 75.6796 18.248C74.2556 18.968 72.5436 19.328 70.5436 19.328C70.2876 19.328 69.9516 19.32 69.5356 19.304C69.1196 19.288 68.6876 19.28 68.2396 19.28C67.7916 19.264 67.3916 19.256 67.0396 19.256C66.3356 19.256 65.6396 19.264 64.9516 19.28C64.2796 19.28 63.7436 19.296 63.3436 19.328V18.848C63.8556 18.816 64.2396 18.752 64.4956 18.656C64.7516 18.56 64.9196 18.368 64.9996 18.08C65.0956 17.792 65.1436 17.36 65.1436 16.784V4.88C65.1436 4.288 65.0956 3.856 64.9996 3.584C64.9196 3.296 64.7436 3.104 64.4716 3.008C64.2156 2.896 63.8396 2.832 63.3436 2.816V2.336C63.7436 2.352 64.2796 2.376 64.9516 2.408C65.6396 2.424 66.3196 2.424 66.9916 2.408C67.5676 2.392 68.2156 2.376 68.9356 2.36C69.6716 2.344 70.2796 2.336 70.7596 2.336ZM70.7356 2.768C69.9996 2.768 69.5196 2.904 69.2956 3.176C69.0716 3.448 68.9596 4 68.9596 4.832V16.832C68.9596 17.664 69.0716 18.216 69.2956 18.488C69.5356 18.76 70.0236 18.896 70.7596 18.896C72.1036 18.896 73.1596 18.584 73.9276 17.96C74.7116 17.32 75.2716 16.392 75.6076 15.176C75.9436 13.96 76.1116 12.48 76.1116 10.736C76.1116 8.944 75.9276 7.464 75.5596 6.296C75.2076 5.112 74.6396 4.232 73.8556 3.656C73.0716 3.064 72.0316 2.768 70.7356 2.768ZM90.6886 2C92.3846 2 93.8646 2.344 95.1286 3.032C96.4086 3.72 97.4006 4.712 98.1046 6.008C98.8086 7.288 99.1606 8.848 99.1606 10.688C99.1606 12.48 98.8006 14.048 98.0806 15.392C97.3606 16.736 96.3526 17.784 95.0566 18.536C93.7766 19.288 92.3126 19.664 90.6646 19.664C88.9686 19.664 87.4806 19.32 86.2006 18.632C84.9366 17.944 83.9526 16.952 83.2486 15.656C82.5446 14.36 82.1926 12.8 82.1926 10.976C82.1926 9.184 82.5526 7.616 83.2726 6.272C84.0086 4.928 85.0086 3.88 86.2726 3.128C87.5526 2.376 89.0246 2 90.6886 2ZM90.5926 2.432C89.6966 2.432 88.9126 2.792 88.2406 3.512C87.5846 4.232 87.0726 5.224 86.7046 6.488C86.3526 7.752 86.1766 9.216 86.1766 10.88C86.1766 12.576 86.3766 14.056 86.7766 15.32C87.1926 16.568 87.7446 17.536 88.4326 18.224C89.1366 18.896 89.9126 19.232 90.7606 19.232C91.6566 19.232 92.4326 18.872 93.0886 18.152C93.7606 17.432 94.2726 16.44 94.6246 15.176C94.9926 13.896 95.1766 12.432 95.1766 10.784C95.1766 9.072 94.9686 7.592 94.5526 6.344C94.1526 5.096 93.6006 4.136 92.8966 3.464C92.2086 2.776 91.4406 2.432 90.5926 2.432Z" fill="#525252"/>
<path d="M43.2924 23.754C44.0844 23.754 44.7264 23.874 45.2184 24.114C45.7104 24.342 46.1604 24.612 46.5684 24.924C46.7244 25.044 46.8444 25.104 46.9284 25.104C47.1564 25.104 47.3064 24.738 47.3784 24.006H47.7924C47.7684 24.462 47.7504 25.014 47.7384 25.662C47.7264 26.298 47.7204 27.15 47.7204 28.218H47.3064C47.2224 27.642 47.1084 27.108 46.9644 26.616C46.8324 26.124 46.5984 25.704 46.2624 25.356C45.9384 24.972 45.5124 24.672 44.9844 24.456C44.4684 24.24 43.9404 24.132 43.4004 24.132C42.7764 24.132 42.2244 24.288 41.7444 24.6C41.2644 24.9 40.8564 25.332 40.5204 25.896C40.1964 26.46 39.9444 27.126 39.7644 27.894C39.5964 28.65 39.5124 29.484 39.5124 30.396C39.5124 32.556 39.8424 34.14 40.5024 35.148C41.1744 36.144 42.1824 36.642 43.5264 36.642C43.9104 36.642 44.2404 36.588 44.5164 36.48C44.8044 36.372 45.0324 36.264 45.2004 36.156C45.4044 36.012 45.5364 35.874 45.5964 35.742C45.6564 35.598 45.6864 35.412 45.6864 35.184V33.438C45.6864 32.922 45.6384 32.544 45.5424 32.304C45.4584 32.052 45.2844 31.884 45.0204 31.8C44.7564 31.704 44.3724 31.65 43.8684 31.638V31.278C44.0964 31.29 44.3664 31.302 44.6784 31.314C44.9904 31.314 45.3144 31.32 45.6504 31.332C45.9984 31.332 46.3104 31.332 46.5864 31.332C47.0184 31.332 47.4084 31.326 47.7564 31.314C48.1164 31.302 48.4104 31.29 48.6384 31.278V31.638C48.3864 31.65 48.1944 31.692 48.0624 31.764C47.9424 31.836 47.8584 31.98 47.8104 32.196C47.7744 32.412 47.7564 32.742 47.7564 33.186V36.75H47.3964C47.3844 36.546 47.3364 36.324 47.2524 36.084C47.1804 35.844 47.0664 35.724 46.9104 35.724C46.8264 35.724 46.7364 35.742 46.6404 35.778C46.5564 35.814 46.4064 35.904 46.1904 36.048C45.7704 36.336 45.3324 36.57 44.8764 36.75C44.4204 36.918 43.9044 37.002 43.3284 37.002C42.0444 37.002 40.9464 36.75 40.0344 36.246C39.1224 35.73 38.4264 34.992 37.9464 34.032C37.4784 33.06 37.2444 31.908 37.2444 30.576C37.2444 29.184 37.5024 27.978 38.0184 26.958C38.5464 25.938 39.2604 25.152 40.1604 24.6C41.0724 24.036 42.1164 23.754 43.2924 23.754ZM49.896 24.006C50.172 24.018 50.526 24.03 50.958 24.042C51.402 24.054 51.84 24.06 52.272 24.06C52.848 24.06 53.394 24.054 53.91 24.042C54.438 24.03 54.81 24.024 55.026 24.024C56.046 24.024 56.892 24.156 57.564 24.42C58.248 24.684 58.752 25.056 59.076 25.536C59.412 26.004 59.58 26.544 59.58 27.156C59.58 27.528 59.502 27.924 59.346 28.344C59.202 28.752 58.944 29.136 58.572 29.496C58.2 29.844 57.696 30.132 57.06 30.36C56.424 30.588 55.614 30.702 54.63 30.702H52.902V30.342H54.45C55.254 30.342 55.866 30.21 56.286 29.946C56.718 29.67 57.006 29.31 57.15 28.866C57.306 28.41 57.384 27.906 57.384 27.354C57.384 26.406 57.18 25.674 56.772 25.158C56.364 24.63 55.656 24.366 54.648 24.366C54.132 24.366 53.79 24.468 53.622 24.672C53.466 24.876 53.388 25.29 53.388 25.914V34.842C53.388 35.274 53.424 35.598 53.496 35.814C53.568 36.03 53.706 36.174 53.91 36.246C54.114 36.318 54.414 36.366 54.81 36.39V36.75C54.522 36.726 54.156 36.714 53.712 36.714C53.28 36.702 52.836 36.696 52.38 36.696C51.876 36.696 51.402 36.702 50.958 36.714C50.526 36.714 50.172 36.726 49.896 36.75V36.39C50.304 36.366 50.61 36.318 50.814 36.246C51.018 36.174 51.15 36.03 51.21 35.814C51.282 35.598 51.318 35.274 51.318 34.842V25.914C51.318 25.47 51.282 25.146 51.21 24.942C51.15 24.726 51.012 24.582 50.796 24.51C50.592 24.426 50.292 24.378 49.896 24.366V24.006ZM52.938 30.396C53.55 30.42 54.042 30.45 54.414 30.486C54.786 30.51 55.098 30.534 55.35 30.558C55.602 30.582 55.836 30.612 56.052 30.648C56.952 30.768 57.606 31.008 58.014 31.368C58.434 31.728 58.722 32.28 58.878 33.024L59.328 34.86C59.436 35.376 59.55 35.742 59.67 35.958C59.802 36.174 59.994 36.282 60.246 36.282C60.438 36.27 60.594 36.216 60.714 36.12C60.846 36.012 60.984 35.868 61.128 35.688L61.38 35.886C61.104 36.258 60.816 36.54 60.516 36.732C60.216 36.912 59.814 37.002 59.31 37.002C58.794 37.002 58.35 36.87 57.978 36.606C57.618 36.33 57.36 35.814 57.204 35.058L56.844 33.258C56.736 32.742 56.616 32.298 56.484 31.926C56.352 31.542 56.166 31.242 55.926 31.026C55.698 30.81 55.362 30.702 54.918 30.702H52.974L52.938 30.396ZM67.9695 23.754C69.1455 23.754 70.1775 24.012 71.0655 24.528C71.9655 25.044 72.6615 25.788 73.1535 26.76C73.6455 27.72 73.8915 28.89 73.8915 30.27C73.8915 31.614 73.6395 32.79 73.1355 33.798C72.6315 34.806 71.9295 35.592 71.0295 36.156C70.1295 36.72 69.1035 37.002 67.9515 37.002C66.7635 37.002 65.7255 36.744 64.8375 36.228C63.9495 35.712 63.2595 34.968 62.7675 33.996C62.2755 33.024 62.0295 31.854 62.0295 30.486C62.0295 29.142 62.2815 27.966 62.7855 26.958C63.3015 25.95 64.0035 25.164 64.8915 24.6C65.7795 24.036 66.8055 23.754 67.9695 23.754ZM67.8975 24.078C67.1535 24.078 66.5055 24.348 65.9535 24.888C65.4015 25.428 64.9755 26.172 64.6755 27.12C64.3755 28.068 64.2255 29.166 64.2255 30.414C64.2255 31.686 64.3935 32.796 64.7295 33.744C65.0655 34.68 65.5215 35.406 66.0975 35.922C66.6735 36.426 67.3155 36.678 68.0235 36.678C68.7675 36.678 69.4095 36.408 69.9495 35.868C70.5015 35.328 70.9275 34.584 71.2275 33.636C71.5395 32.676 71.6955 31.578 71.6955 30.342C71.6955 29.058 71.5215 27.948 71.1735 27.012C70.8375 26.076 70.3815 25.356 69.8055 24.852C69.2415 24.336 68.6055 24.078 67.8975 24.078ZM86.5445 24.006V24.366C86.1485 24.39 85.8485 24.462 85.6445 24.582C85.4405 24.702 85.3025 24.9 85.2305 25.176C85.1585 25.44 85.1225 25.818 85.1225 26.31V31.512C85.1225 32.328 85.0685 33.054 84.9605 33.69C84.8525 34.326 84.6605 34.872 84.3845 35.328C84.0845 35.832 83.6405 36.24 83.0525 36.552C82.4765 36.852 81.7865 37.002 80.9825 37.002C80.4065 37.002 79.8485 36.936 79.3085 36.804C78.7685 36.672 78.2945 36.42 77.8865 36.048C77.5265 35.724 77.2445 35.37 77.0405 34.986C76.8365 34.602 76.6985 34.14 76.6265 33.6C76.5545 33.048 76.5185 32.37 76.5185 31.566V25.914C76.5185 25.47 76.4825 25.146 76.4105 24.942C76.3505 24.726 76.2185 24.582 76.0145 24.51C75.8105 24.426 75.5045 24.378 75.0965 24.366V24.006C75.3725 24.018 75.7265 24.03 76.1585 24.042C76.6025 24.054 77.0765 24.06 77.5805 24.06C78.0365 24.06 78.4865 24.054 78.9305 24.042C79.3865 24.03 79.7585 24.018 80.0465 24.006V24.366C79.6385 24.378 79.3265 24.426 79.1105 24.51C78.9065 24.582 78.7685 24.726 78.6965 24.942C78.6245 25.146 78.5885 25.47 78.5885 25.914V32.142C78.5885 32.754 78.6185 33.318 78.6785 33.834C78.7505 34.35 78.8765 34.8 79.0565 35.184C79.2485 35.556 79.5245 35.85 79.8845 36.066C80.2565 36.27 80.7365 36.372 81.3245 36.372C82.2125 36.372 82.8965 36.174 83.3765 35.778C83.8685 35.37 84.2105 34.818 84.4025 34.122C84.6065 33.414 84.7085 32.61 84.7085 31.71V26.382C84.7085 25.866 84.6605 25.47 84.5645 25.194C84.4685 24.918 84.3005 24.72 84.0605 24.6C83.8205 24.468 83.4785 24.39 83.0345 24.366V24.006C83.2625 24.018 83.5565 24.03 83.9165 24.042C84.2765 24.054 84.6065 24.06 84.9065 24.06C85.2185 24.06 85.5185 24.054 85.8065 24.042C86.1065 24.03 86.3525 24.018 86.5445 24.006ZM87.6715 24.006C87.9475 24.018 88.3015 24.03 88.7335 24.042C89.1775 24.054 89.6155 24.06 90.0475 24.06C90.6235 24.06 91.1695 24.054 91.6855 24.042C92.2135 24.03 92.5855 24.024 92.8015 24.024C94.3255 24.024 95.4655 24.354 96.2215 25.014C96.9775 25.674 97.3555 26.526 97.3555 27.57C97.3555 28.002 97.2775 28.458 97.1215 28.938C96.9775 29.406 96.7195 29.844 96.3475 30.252C95.9755 30.648 95.4715 30.972 94.8355 31.224C94.1995 31.476 93.3895 31.602 92.4055 31.602H90.6415V31.242H92.2255C93.0295 31.242 93.6415 31.08 94.0615 30.756C94.4935 30.432 94.7815 30.006 94.9255 29.478C95.0815 28.95 95.1595 28.38 95.1595 27.768C95.1595 26.628 94.9555 25.776 94.5475 25.212C94.1395 24.648 93.4315 24.366 92.4235 24.366C91.9075 24.366 91.5655 24.468 91.3975 24.672C91.2415 24.876 91.1635 25.29 91.1635 25.914V34.806C91.1635 35.25 91.2115 35.586 91.3075 35.814C91.4035 36.03 91.5835 36.174 91.8475 36.246C92.1115 36.318 92.5015 36.36 93.0175 36.372V36.75C92.6935 36.726 92.2735 36.714 91.7575 36.714C91.2415 36.702 90.7075 36.696 90.1555 36.696C89.6755 36.696 89.2135 36.702 88.7695 36.714C88.3375 36.714 87.9715 36.726 87.6715 36.75V36.39C88.0795 36.366 88.3855 36.318 88.5895 36.246C88.7935 36.174 88.9255 36.03 88.9855 35.814C89.0575 35.598 89.0935 35.274 89.0935 34.842V25.914C89.0935 25.47 89.0575 25.146 88.9855 24.942C88.9255 24.726 88.7875 24.582 88.5715 24.51C88.3675 24.426 88.0675 24.378 87.6715 24.366V24.006Z" fill="#525252"/>
<defs>
<linearGradient id="paint0_linear_716_4232" x1="15.6127" y1="8.3911" x2="30.3444" y2="8.3911" gradientUnits="userSpaceOnUse">
<stop stop-color="#0E7490"/>
<stop offset="1" stop-color="#139ABF"/>
</linearGradient>
<linearGradient id="paint1_linear_716_4232" x1="0" y1="8.391" x2="14.7317" y2="8.391" gradientUnits="userSpaceOnUse">
<stop stop-color="#0E7490"/>
<stop offset="1" stop-color="#139ABF"/>
</linearGradient>
<linearGradient id="paint2_linear_716_4232" x1="15.6127" y1="24.9217" x2="30.3444" y2="24.9217" gradientUnits="userSpaceOnUse">
<stop stop-color="#0E7490"/>
<stop offset="1" stop-color="#139ABF"/>
</linearGradient>
<linearGradient id="paint3_linear_716_4232" x1="0" y1="24.9219" x2="14.7317" y2="24.9219" gradientUnits="userSpaceOnUse">
<stop stop-color="#0E7490"/>
<stop offset="1" stop-color="#139ABF"/>
</linearGradient>
<linearGradient id="paint4_linear_716_4232" x1="15.6127" y1="31.6079" x2="30.3444" y2="31.6079" gradientUnits="userSpaceOnUse">
<stop stop-color="#0E7490"/>
<stop offset="1" stop-color="#139ABF"/>
</linearGradient>
<linearGradient id="paint5_linear_716_4232" x1="0.071228" y1="31.6397" x2="14.808" y2="31.6397" gradientUnits="userSpaceOnUse">
<stop stop-color="#0E7490"/>
<stop offset="1" stop-color="#139ABF"/>
</linearGradient>
<linearGradient id="paint6_linear_716_4232" x1="7.0176" y1="16.5719" x2="23.3281" y2="16.5719" gradientUnits="userSpaceOnUse">
<stop stop-color="#0E7490"/>
<stop offset="1" stop-color="#139ABF"/>
</linearGradient>
</defs>
</svg>
