<svg width="32" height="32" viewBox="0 0 32 32" fill="none" xmlns="http://www.w3.org/2000/svg">
<g clip-path="url(#clip0_554_5163)">
<path opacity="0.2" d="M20.0887 17.5328C19.9697 17.4602 19.8369 17.413 19.6987 17.394L16.8462 17.009C16.632 16.98 16.4141 17.0212 16.2253 17.1265C16.0364 17.2317 15.8868 17.3953 15.7987 17.5928L14.0862 21.4353C14.0066 21.6141 13.9813 21.8123 14.0133 22.0054C14.0453 22.1985 14.1332 22.378 14.2662 22.5215L16.7337 25.0628C16.8407 25.1778 16.9191 25.3164 16.9625 25.4673C17.0059 25.6182 17.0132 25.7773 16.9837 25.9315L16.5875 27.9865C18.6778 27.8848 20.7051 27.2383 22.4683 26.111C24.2315 24.9837 25.6692 23.4149 26.6387 21.5603L20.0887 17.5328Z" fill="#EEE8A9"/>
<path d="M16 28C22.6274 28 28 22.6274 28 16C28 9.37258 22.6274 4 16 4C9.37258 4 4 9.37258 4 16C4 22.6274 9.37258 28 16 28Z" stroke="#EEE8A9" stroke-width="2" stroke-linecap="round" stroke-linejoin="round"/>
<path d="M9.48499 15.4072L11.15 12.4997C11.2379 12.3475 11.3643 12.2211 11.5166 12.1333C11.6689 12.0455 11.8417 11.9994 12.0175 11.9997H14.1062C14.2751 12 14.4412 11.9569 14.5887 11.8747L16.125 11.0297C16.1926 10.9933 16.2552 10.9484 16.3112 10.8959L19.6762 7.85469C19.8437 7.70241 19.9545 7.49784 19.9906 7.27442C20.0267 7.051 19.9859 6.82195 19.875 6.62469L18.5625 4.27344" stroke="#EEE8A9" stroke-width="2" stroke-linecap="round" stroke-linejoin="round"/>
<path d="M8.47251 6.65332L7.00001 10.1346C6.90055 10.3702 6.89519 10.6351 6.98502 10.8746L8.42251 14.7083C8.48158 14.865 8.57902 15.0043 8.70591 15.1135C8.8328 15.2227 8.98507 15.2983 9.14877 15.3333L11.8275 15.9096C11.9761 15.9414 12.1155 16.0067 12.235 16.1005C12.3546 16.1943 12.4512 16.3141 12.5175 16.4508L12.9925 17.4346C13.0745 17.6036 13.2023 17.7461 13.3615 17.8458C13.5207 17.9455 13.7047 17.9984 13.8925 17.9983H15.6175" stroke="#EEE8A9" stroke-width="2" stroke-linecap="round" stroke-linejoin="round"/>
<path opacity="0.2" d="M9.48501 15.4075L11.15 12.5C11.2379 12.3478 11.3644 12.2214 11.5167 12.1336C11.669 12.0458 11.8417 11.9998 12.0175 12H14.1063C14.2751 12.0003 14.4413 11.9573 14.5888 11.875L16.125 11.03C16.1926 10.9936 16.2552 10.9487 16.3113 10.8963L19.6763 7.85501C19.8437 7.70274 19.9545 7.49817 19.9906 7.27475C20.0267 7.05133 19.986 6.82227 19.875 6.62501L18.5625 4.27376C17.7206 4.09138 16.8615 3.99961 16 4.00001C13.2609 3.99584 10.6034 4.93269 8.47251 6.65376L7.00001 10.135C6.90055 10.3707 6.89519 10.6355 6.98502 10.875L8.42251 14.7088C8.48158 14.8654 8.57902 15.0047 8.70591 15.1139C8.8328 15.2231 8.98507 15.2987 9.14877 15.3338L9.48501 15.4075Z" fill="#EEE8A9"/>
<path d="M26.6362 21.5603L20.0887 17.5328C19.9697 17.4602 19.8369 17.413 19.6987 17.394L16.8462 17.009C16.632 16.98 16.4141 17.0212 16.2253 17.1265C16.0364 17.2317 15.8868 17.3953 15.7987 17.5928L14.0862 21.4353C14.0066 21.6141 13.9813 21.8123 14.0133 22.0054C14.0453 22.1985 14.1332 22.378 14.2662 22.5215L16.7337 25.0628C16.8407 25.1778 16.9191 25.3164 16.9625 25.4673C17.0059 25.6182 17.0132 25.7773 16.9837 25.9315L16.5875 27.9865" stroke="#EEE8A9" stroke-width="2" stroke-linecap="round" stroke-linejoin="round"/>
</g>
<defs>
<clipPath id="clip0_554_5163">
<rect width="32" height="32" fill="white"/>
</clipPath>
</defs>
</svg>
