<svg width="1746" height="1004" viewBox="0 0 1746 1004" fill="none" xmlns="http://www.w3.org/2000/svg">
<g opacity="0.8" filter="url(#filter0_d_532_5169)">
<path d="M341.36 168.239C337.693 167.213 334.39 165.172 331.833 162.35C329.276 159.529 327.568 156.042 326.907 152.292L335.515 151.539C336.004 157.514 338.017 163.263 341.36 168.239ZM354.819 149.85C355.409 160.77 352.092 168.575 348.508 168.888C344.922 169.202 340.302 162.092 338.985 151.235L354.819 149.85ZM366.859 148.797C366.867 152.609 365.792 156.345 363.759 159.57C361.726 162.795 358.818 165.376 355.375 167.013C357.82 161.536 358.811 155.521 358.252 149.55L366.859 148.797ZM366.557 145.346L357.95 146.099C357.467 140.118 355.448 134.368 352.084 129.4C355.76 130.412 359.073 132.448 361.636 135.271C364.199 138.095 365.905 141.589 366.557 145.346ZM354.517 146.399L338.683 147.784C338.094 136.844 341.41 129.059 344.996 128.746C348.58 128.432 353.18 135.524 354.517 146.399ZM338.078 130.724C335.646 136.203 334.662 142.215 335.221 148.184L326.614 148.937C326.607 145.128 327.68 141.394 329.71 138.171C331.739 134.947 334.641 132.365 338.078 130.724Z" fill="#EEE8A9"/>
</g>
<g opacity="0.8">
<g filter="url(#filter1_d_532_5169)">
<path d="M271.372 802.416L259.418 803.462L259.766 807.447L271.721 806.401L271.372 802.416Z" fill="#EEE8A9"/>
</g>
<g filter="url(#filter2_d_532_5169)">
<path d="M264.872 796.962L258.895 797.485L258.407 791.906C254.659 790.146 251.91 786.492 251.523 782.069C250.946 775.474 255.837 769.645 262.432 769.068C269.026 768.491 274.855 773.382 275.432 779.977C275.819 784.4 273.746 788.476 270.361 790.86L270.849 796.439L264.872 796.962Z" fill="#EEE8A9"/>
<path d="M264.872 796.962L258.895 797.485L258.407 791.906C254.659 790.146 251.91 786.492 251.523 782.069C250.946 775.474 255.837 769.645 262.432 769.068C269.026 768.491 274.855 773.382 275.432 779.977C275.819 784.4 273.746 788.476 270.361 790.86L270.849 796.439L264.872 796.962Z" stroke="#EEE8A9" stroke-width="2" stroke-linecap="round" stroke-linejoin="round"/>
</g>
</g>
<g opacity="0.8">
<g filter="url(#filter3_d_532_5169)">
<path d="M1002 61C984 65 979.8 77.34 975.64 87.68L979.42 89L981.32 84.4C982.28 84.74 983.28 85 984 85C1006 85 1012 51 1012 51C1010 55 996 55.5 986 57.5C976 59.5 972 68 972 72C972 76 975.5 79.5 975.5 79.5C982 61 1002 61 1002 61Z" fill="#EEE8A9"/>
</g>
</g>
<g opacity="0.8">
<g filter="url(#filter4_d_532_5169)">
<path d="M831.94 901.605C832.309 905.833 830.985 910.034 828.257 913.284C825.529 916.535 821.622 918.569 817.395 918.939C813.168 919.309 808.966 917.984 805.716 915.256C802.465 912.529 800.431 908.622 800.061 904.394C799.691 900.167 801.016 895.966 803.744 892.715C806.471 889.464 810.379 887.43 814.606 887.061C818.833 886.691 823.034 888.015 826.285 890.743C829.536 893.471 831.57 897.378 831.94 901.605Z" fill="#EEE8A9"/>
</g>
<g filter="url(#filter5_d_532_5169)">
<path fill-rule="evenodd" clip-rule="evenodd" d="M813.692 874.669C814.22 874.623 814.746 874.788 815.152 875.129C815.558 875.47 815.813 875.959 815.859 876.487L816.091 879.144C816.137 879.672 815.972 880.197 815.631 880.603C815.29 881.01 814.801 881.264 814.273 881.31C813.745 881.357 813.22 881.191 812.813 880.85C812.407 880.509 812.153 880.021 812.106 879.492L811.874 876.836C811.828 876.307 811.993 875.782 812.334 875.376C812.675 874.969 813.164 874.715 813.692 874.669ZM794.232 884.801C794.573 884.395 795.061 884.141 795.589 884.095C796.117 884.049 796.641 884.214 797.048 884.555L798.183 885.505C798.579 885.848 798.824 886.334 798.865 886.857C798.907 887.38 798.741 887.898 798.404 888.3C798.067 888.702 797.586 888.955 797.064 889.005C796.542 889.056 796.021 888.899 795.613 888.57L794.478 887.617C794.072 887.276 793.818 886.788 793.772 886.26C793.726 885.732 793.891 885.207 794.232 884.801ZM834.616 881.268C835.022 881.609 835.276 882.097 835.322 882.625C835.368 883.153 835.203 883.677 834.862 884.084L833.91 885.219C833.563 885.604 833.08 885.839 832.563 885.875C832.046 885.911 831.535 885.745 831.138 885.412C830.741 885.079 830.489 884.605 830.435 884.09C830.381 883.574 830.529 883.058 830.848 882.65L831.8 881.514C832.141 881.108 832.629 880.854 833.157 880.808C833.685 880.762 834.21 880.927 834.616 881.268ZM787.633 905.725C787.587 905.197 787.752 904.672 788.093 904.265C788.434 903.859 788.923 903.605 789.451 903.558L792.108 903.326C792.636 903.28 793.161 903.445 793.567 903.786C793.974 904.127 794.228 904.616 794.274 905.144C794.32 905.672 794.155 906.198 793.814 906.604C793.473 907.01 792.985 907.264 792.456 907.311L789.8 907.543C789.271 907.589 788.746 907.424 788.34 907.083C787.933 906.742 787.679 906.253 787.633 905.725ZM838.107 901.309C838.061 900.781 838.226 900.256 838.567 899.849C838.908 899.443 839.396 899.189 839.925 899.142L842.581 898.91C843.11 898.864 843.635 899.029 844.041 899.37C844.448 899.711 844.702 900.2 844.748 900.728C844.794 901.257 844.629 901.782 844.288 902.188C843.947 902.594 843.458 902.849 842.93 902.895L840.273 903.127C839.745 903.173 839.22 903.008 838.814 902.667C838.407 902.326 838.153 901.838 838.107 901.309ZM833.952 918.13C834.293 917.724 834.781 917.47 835.309 917.424C835.837 917.378 836.361 917.543 836.768 917.884L837.903 918.836C838.115 919.002 838.291 919.208 838.421 919.443C838.551 919.678 838.633 919.936 838.661 920.203C838.689 920.47 838.663 920.74 838.585 920.997C838.506 921.254 838.377 921.493 838.204 921.698C838.032 921.904 837.819 922.073 837.58 922.195C837.341 922.317 837.079 922.389 836.811 922.408C836.543 922.427 836.274 922.391 836.021 922.304C835.767 922.216 835.533 922.078 835.333 921.899L834.198 920.946C833.792 920.605 833.538 920.117 833.492 919.589C833.446 919.061 833.611 918.536 833.952 918.13ZM801.287 920.988C801.693 921.329 801.947 921.817 801.993 922.345C802.039 922.873 801.874 923.397 801.533 923.804L800.581 924.939C800.416 925.151 800.209 925.327 799.974 925.457C799.74 925.588 799.481 925.669 799.214 925.697C798.947 925.725 798.677 925.699 798.42 925.621C798.163 925.542 797.924 925.413 797.719 925.24C797.513 925.068 797.344 924.855 797.222 924.616C797.1 924.377 797.028 924.115 797.009 923.847C796.99 923.58 797.026 923.311 797.113 923.057C797.201 922.803 797.339 922.569 797.519 922.369L798.469 921.234C798.637 921.033 798.844 920.867 799.077 920.746C799.31 920.624 799.565 920.55 799.827 920.527C800.088 920.504 800.352 920.533 800.603 920.612C800.853 920.691 801.086 920.819 801.287 920.988ZM818.108 925.143C818.636 925.097 819.161 925.262 819.568 925.603C819.974 925.944 820.228 926.433 820.275 926.961L820.507 929.617C820.553 930.146 820.388 930.671 820.047 931.077C819.706 931.484 819.217 931.738 818.689 931.784C818.161 931.83 817.635 931.665 817.229 931.324C816.823 930.983 816.568 930.495 816.522 929.966L816.29 927.31C816.244 926.781 816.409 926.256 816.75 925.85C817.091 925.443 817.58 925.189 818.108 925.143Z" fill="#EEE8A9"/>
</g>
</g>
<g opacity="0.8">
<g filter="url(#filter6_d_532_5169)">
<path d="M1459.96 127.75L1460.89 117.19C1459.74 116.488 1459.07 115.023 1459.19 113.629L1459.89 105.659C1460.01 104.264 1460.91 103.139 1462.18 102.446L1462.23 101.848C1462.42 99.6569 1460.78 97.7068 1458.59 97.5151C1456.4 97.3233 1454.45 98.9596 1454.26 101.151C1454.07 103.343 1455.7 105.293 1457.89 105.485L1453.91 105.136C1452.91 105.049 1451.83 105.958 1451.74 106.954L1451.05 114.924C1450.96 115.92 1451.87 117.003 1452.86 117.09L1451.99 127.052L1459.96 127.75ZM1481.8 107.576L1477.82 107.228C1480.01 107.419 1481.96 105.783 1482.15 103.592C1482.34 101.4 1480.71 99.4499 1478.52 99.2582C1476.32 99.0665 1474.37 100.703 1474.18 102.894L1474.13 103.492C1475.26 104.394 1475.95 105.659 1475.83 107.053L1475.13 115.023C1475.01 116.418 1474.09 117.743 1472.84 118.236L1471.92 128.795L1479.89 129.493L1480.76 119.531C1481.75 119.618 1482.84 118.709 1482.92 117.713L1483.62 109.743C1483.71 108.747 1482.8 107.664 1481.8 107.576ZM1472.36 100.728C1472.33 101.259 1472.19 101.779 1471.95 102.256C1471.71 102.732 1471.38 103.157 1470.98 103.504C1470.57 103.851 1470.11 104.114 1469.6 104.277C1469.09 104.44 1468.56 104.5 1468.03 104.454C1467.49 104.408 1466.98 104.256 1466.51 104.007C1466.04 103.759 1465.62 103.419 1465.28 103.007C1464.94 102.595 1464.69 102.12 1464.54 101.609C1464.39 101.098 1464.34 100.562 1464.4 100.033C1464.51 98.9934 1465.03 98.0403 1465.84 97.3771C1466.64 96.7139 1467.68 96.3935 1468.72 96.4843C1469.76 96.5752 1470.73 97.0701 1471.41 97.8632C1472.09 98.6563 1472.43 99.6845 1472.36 100.728Z" fill="#EEE8A9"/>
</g>
<g filter="url(#filter7_d_532_5169)">
<path d="M1472.02 104.713L1464.05 104.016C1463.05 103.928 1461.97 104.838 1461.88 105.834L1461.18 113.803C1461.1 114.799 1462 115.883 1463 115.97L1461.95 127.924L1469.92 128.622L1470.97 116.667C1471.97 116.754 1473.05 115.845 1473.14 114.849L1473.83 106.88C1473.92 105.883 1473.01 104.8 1472.02 104.713Z" fill="#EEE8A9"/>
</g>
</g>
<g opacity="0.5" clip-path="url(#clip0_532_5169)">
<g filter="url(#filter8_d_532_5169)">
<path fill-rule="evenodd" clip-rule="evenodd" d="M1173.71 939.947L1169.02 953.591L1178.98 954.462L1152.33 978.231L1159.71 956.791L1151.74 956.094L1157.77 938.553L1173.71 939.947Z" fill="#EEE8A9"/>
</g>
</g>
<g opacity="0.5">
<g filter="url(#filter9_d_532_5169)">
<path d="M1579.14 924.384L1572.69 928.738C1571.62 929.46 1571.29 930.9 1571.96 932.006C1572.67 933.185 1574.21 933.54 1575.36 932.793L1581.97 928.528C1582.43 928.229 1583.05 928.359 1583.35 928.824C1583.66 929.29 1583.52 929.906 1583.06 930.21L1581.67 931.105L1589.62 939.832L1590.65 928.076L1590.61 928.073L1590.38 927.896L1586.11 924.605C1585.21 923.912 1584.13 923.49 1582.99 923.391C1581.64 923.272 1580.28 923.624 1579.14 924.384ZM1579.88 932.254L1576.45 934.475C1574.35 935.835 1571.54 935.188 1570.25 933.042C1569.03 931.022 1569.61 928.4 1571.57 927.084L1577.11 923.347C1576.42 922.979 1575.65 922.755 1574.86 922.686C1573.69 922.577 1572.52 922.826 1571.49 923.388L1566.74 925.985L1565.52 939.931L1567.28 940.085L1572.52 945.776C1573.64 946.997 1575.53 947.075 1576.75 945.952C1577.13 945.602 1577.4 945.18 1577.56 944.73L1578.53 945.794C1579.65 947.014 1581.55 947.099 1582.77 945.982C1583.07 945.702 1583.31 945.365 1583.47 945.009C1584.61 945.924 1586.27 945.9 1587.38 944.88C1588.6 943.764 1588.69 941.864 1587.57 940.643L1579.88 932.254ZM1559.77 925.375C1559.22 925.327 1558.73 925.736 1558.69 926.284L1557.55 939.234C1557.46 940.336 1558.27 941.305 1559.37 941.401L1561.36 941.575C1562.47 941.672 1563.43 940.859 1563.53 939.757L1564.75 925.81L1559.77 925.375ZM1560.72 937.503C1560.98 937.526 1561.22 937.654 1561.4 937.857C1561.57 938.06 1561.65 938.322 1561.63 938.587C1561.6 938.851 1561.48 939.095 1561.27 939.266C1561.07 939.436 1560.81 939.519 1560.54 939.496C1560.28 939.473 1560.03 939.345 1559.86 939.142C1559.69 938.939 1559.61 938.677 1559.63 938.412C1559.66 938.148 1559.78 937.904 1559.99 937.733C1560.19 937.563 1560.45 937.48 1560.72 937.503ZM1592.64 928.251L1591.42 942.198C1591.33 943.3 1592.14 944.268 1593.24 944.364L1595.23 944.539C1596.34 944.635 1597.3 943.823 1597.4 942.72L1598.53 929.77C1598.58 929.222 1598.17 928.735 1597.63 928.687L1592.64 928.251ZM1593.5 941.376C1593.53 941.111 1593.65 940.867 1593.86 940.697C1594.06 940.526 1594.32 940.443 1594.59 940.467C1594.85 940.49 1595.1 940.617 1595.27 940.82C1595.44 941.023 1595.52 941.286 1595.5 941.55C1595.47 941.814 1595.35 942.058 1595.14 942.229C1594.94 942.399 1594.68 942.482 1594.41 942.459C1594.15 942.436 1593.9 942.309 1593.73 942.106C1593.56 941.902 1593.48 941.64 1593.5 941.376Z" fill="#EEE8A9"/>
</g>
</g>
<g opacity="0.5">
<g filter="url(#filter10_d_532_5169)">
<path d="M70.3987 887.026L78.3857 866.793L71.6912 867.379L70.5983 854.887L62.3324 875.144L69.3058 874.534L70.3987 887.026ZM68.2573 851.076C73.7364 850.597 78.5928 852.18 82.8179 855.725C87.0429 859.27 89.445 863.778 89.9243 869.257C90.4037 874.736 88.8209 879.592 85.2757 883.818C81.7304 888.043 77.2226 890.445 71.7435 890.924C66.2645 891.403 61.408 889.821 57.183 886.275C52.9579 882.73 50.5559 878.222 50.0765 872.743C49.5972 867.264 51.1799 862.408 54.7252 858.183C58.2704 853.958 62.7782 851.556 68.2573 851.076Z" fill="#EEE8A9"/>
</g>
</g>
<g opacity="0.8">
<g filter="url(#filter11_d_532_5169)">
<path d="M1301.48 852.977C1292.67 852.207 1285.23 855.149 1284.84 859.552C1284.65 861.753 1286.28 863.693 1288.48 863.886L1312.39 865.977C1314.59 866.17 1316.53 864.542 1316.72 862.341C1317.1 857.938 1310.28 853.748 1301.48 852.977ZM1294.55 840.326C1294.37 842.439 1295.03 844.54 1296.4 846.165C1297.76 847.791 1299.71 848.807 1301.83 848.992C1303.94 849.177 1306.04 848.515 1307.67 847.151C1309.29 845.787 1310.31 843.834 1310.49 841.72M1302.75 826.989C1302.15 826.937 1301.71 827.32 1301.66 827.898L1301.23 832.879C1301.18 833.429 1300.7 833.836 1300.14 833.788C1299.59 833.74 1299.19 833.255 1299.24 832.705L1299.46 830.167C1299.52 829.469 1298.87 828.971 1298.27 829.331C1296.97 830.112 1295.09 831.766 1294.55 834.973C1294.47 835.448 1294.08 835.839 1293.69 836.127C1293.42 836.33 1293.13 836.657 1292.94 837.182C1292.75 837.701 1293.18 838.198 1293.73 838.246L1311.62 839.811C1312.19 839.861 1312.7 839.418 1312.58 838.861C1312.47 838.343 1312.26 837.988 1312.05 837.747C1311.73 837.391 1311.42 836.936 1311.42 836.46C1311.45 833.201 1309.89 831.244 1308.74 830.247C1308.21 829.788 1307.49 830.166 1307.43 830.864L1307.21 833.402C1307.16 833.952 1306.67 834.359 1306.12 834.311C1305.57 834.263 1305.16 833.778 1305.21 833.228L1305.65 828.247C1305.7 827.669 1305.36 827.217 1304.74 827.163L1302.75 826.989Z" fill="#EEE8A9"/>
</g>
</g>
<g opacity="0.4" filter="url(#filter12_d_532_5169)">
<path d="M602.441 54.8597C602.158 54.8844 601.913 54.8102 601.706 54.6368C601.5 54.4635 601.384 54.2348 601.357 53.9506C601.331 53.6665 601.405 53.4211 601.58 53.2144C601.755 53.0078 601.984 52.892 602.268 52.8671L605.679 52.5687C605.962 52.5439 606.208 52.6182 606.416 52.7914C606.623 52.9646 606.739 53.1934 606.763 53.4777C606.786 53.7621 606.712 54.0075 606.54 54.2139C606.368 54.4204 606.139 54.5362 605.852 54.5613L602.441 54.8597ZM604.204 81.8085L603.862 84.8961C603.76 85.9196 604.061 86.7953 604.764 87.5235C605.468 88.2516 606.336 88.5705 607.368 88.4802L619.958 87.3787L619.354 80.4831L604.204 81.8085ZM606.086 62.9327L608.303 60.2935C608.472 60.0912 608.691 59.9784 608.958 59.9551C609.225 59.9317 609.464 60.0045 609.675 60.1734C609.911 60.3481 610.035 60.5755 610.046 60.8556C610.057 61.1357 609.975 61.3818 609.8 61.5939L607.582 64.2373C607.412 64.4395 607.194 64.5523 606.927 64.5757C606.66 64.599 606.421 64.5262 606.211 64.3572C605.975 64.1812 605.85 63.9525 605.838 63.6712C605.825 63.3898 605.908 63.1424 606.086 62.9327ZM604.444 79.7799L619.18 78.4907L618.566 71.4775L607.867 72.4135C607.084 72.4821 606.423 72.7835 605.884 73.3178C605.346 73.852 605.027 74.5017 604.927 75.2667L604.444 79.7799ZM618.168 66.9189L617.869 63.5099C617.844 63.2257 617.919 62.9803 618.092 62.7737C618.265 62.5671 618.494 62.4514 618.778 62.4266C619.063 62.4017 619.308 62.4759 619.515 62.6492C619.721 62.8226 619.837 63.0513 619.862 63.3356L620.16 66.7446C620.185 67.0288 620.111 67.2742 619.937 67.4808C619.764 67.6873 619.535 67.8031 619.251 67.8279C618.967 67.8528 618.721 67.7786 618.515 67.6052C618.308 67.4319 618.192 67.2031 618.168 66.9189ZM621.95 87.2064L634.502 86.1083C635.534 86.018 636.333 85.5532 636.9 84.714C637.466 83.8734 637.611 82.958 637.334 81.9677L636.459 78.9866L621.347 80.3088L621.95 87.2064ZM621.172 78.3164L635.87 77.0305L634.611 72.6696C634.38 71.9337 633.952 71.3493 633.33 70.9166C632.707 70.4839 632.003 70.3026 631.218 70.3726L620.559 71.3052L621.172 78.3164ZM630.156 62.2502L627.474 59.9975C627.271 59.8278 627.163 59.6091 627.147 59.3414C627.132 59.0737 627.213 58.8337 627.391 58.6214C627.561 58.4192 627.775 58.3067 628.035 58.2841C628.292 58.2615 628.522 58.3351 628.724 58.5048L631.455 60.7152C631.691 60.8819 631.82 61.0988 631.844 61.3658C631.867 61.6328 631.779 61.8861 631.579 62.1258C631.379 62.3654 631.151 62.4958 630.896 62.5168C630.641 62.5377 630.394 62.4489 630.156 62.2502ZM633.554 52.1376L630.143 52.4361C629.86 52.4608 629.615 52.3866 629.407 52.2134C629.199 52.0402 629.083 51.8114 629.059 51.527C629.036 51.2427 629.111 50.9972 629.284 50.7906C629.457 50.5841 629.686 50.4684 629.969 50.4437L633.379 50.1452C633.662 50.1205 633.908 50.1947 634.116 50.3679C634.324 50.5411 634.439 50.7699 634.463 51.0543C634.486 51.3387 634.412 51.5841 634.24 51.7905C634.068 51.9969 633.839 52.1127 633.554 52.1376ZM618.524 59.5157C616.583 59.6855 614.83 59.2238 613.265 58.1307C611.701 57.0389 610.646 55.5926 610.101 53.792C609.974 53.3734 610.044 52.9852 610.31 52.6273C610.576 52.2695 610.939 52.0704 611.398 52.0302L624.241 50.9066C624.675 50.8686 625.059 51.0023 625.392 51.3078C625.726 51.6132 625.87 51.9828 625.825 52.4163C625.6 54.283 624.812 55.8905 623.462 57.2386C622.112 58.5854 620.466 59.3458 618.524 59.5157Z" fill="#EEE8A9"/>
</g>
<g opacity="0.3">
<g filter="url(#filter13_d_532_5169)">
<path d="M461.196 929.32C461.136 929.113 461.032 928.922 460.892 928.759C460.751 928.596 460.577 928.465 460.381 928.375L454.531 925.687L453.96 919.409C453.94 919.193 453.874 918.984 453.765 918.796C453.657 918.608 453.509 918.445 453.332 918.32C451.161 916.787 448.719 915.68 446.135 915.059C445.932 915.009 445.72 915.003 445.514 915.04C445.308 915.077 445.112 915.157 444.938 915.275L439.593 918.908L433.691 916.253C433.5 916.167 433.293 916.122 433.083 916.121C432.873 916.12 432.665 916.163 432.473 916.247C430.038 917.313 427.828 918.831 425.961 920.722C425.808 920.876 425.691 921.061 425.617 921.265C425.542 921.469 425.513 921.686 425.531 921.902L426.053 928.19L420.759 931.853C420.582 931.975 420.433 932.134 420.323 932.319C420.213 932.504 420.144 932.711 420.121 932.925C419.835 935.532 420.066 938.17 420.8 940.688C420.86 940.895 420.964 941.086 421.104 941.249C421.245 941.412 421.419 941.543 421.615 941.633L427.464 944.321L428.036 950.6C428.056 950.817 428.122 951.026 428.231 951.214C428.339 951.402 428.487 951.565 428.664 951.69C430.835 953.223 433.277 954.329 435.861 954.951C436.064 955 436.276 955.007 436.482 954.97C436.688 954.932 436.885 954.852 437.058 954.735L442.408 951.092L448.31 953.747C448.543 953.851 448.8 953.894 449.054 953.87C449.218 953.855 449.377 953.815 449.528 953.749C451.962 952.684 454.171 951.167 456.04 949.278C456.193 949.124 456.31 948.939 456.384 948.735C456.458 948.531 456.488 948.314 456.47 948.098L455.948 941.81L461.242 938.147C461.419 938.025 461.568 937.866 461.678 937.681C461.788 937.496 461.857 937.289 461.88 937.075C462.163 934.47 461.931 931.835 461.196 929.32ZM441.654 942.471C440.176 942.601 438.694 942.289 437.393 941.575C436.092 940.862 435.033 939.779 434.348 938.463C433.663 937.147 433.384 935.658 433.545 934.183C433.706 932.709 434.302 931.315 435.255 930.179C436.209 929.043 437.478 928.215 438.902 927.8C440.326 927.385 441.841 927.401 443.256 927.847C444.67 928.293 445.921 929.149 446.85 930.306C447.778 931.462 448.343 932.869 448.472 934.346C448.645 936.328 448.024 938.297 446.746 939.821C445.467 941.345 443.636 942.298 441.654 942.471Z" fill="#EEE8A9"/>
</g>
</g>
<g opacity="0.5" filter="url(#filter14_d_532_5169)">
<path d="M1693.32 113.235L1693.67 109.25C1693.85 107.137 1693.4 105.018 1692.37 103.163C1691.34 101.309 1689.78 99.8039 1687.89 98.8402L1687.26 106.013L1685.93 105.897L1686.86 95.2705L1681.55 94.8056L1680.62 105.432L1679.29 105.316L1679.92 98.1429C1677.89 98.7639 1676.09 99.9755 1674.76 101.623C1673.42 103.27 1672.61 105.278 1672.42 107.391L1672.07 111.376L1669.41 111.143L1669.18 113.8L1695.74 116.124L1695.98 113.468L1693.32 113.235Z" fill="#EEE8A9"/>
</g>
<g opacity="0.4" filter="url(#filter15_d_532_5169)">
<path d="M1252.66 104.214L1254.36 104.362L1256.23 82.9359C1256.28 82.4022 1256.49 81.8967 1256.84 81.4911C1257.19 81.0854 1257.66 80.8002 1258.18 80.6759L1272.14 77.3431C1272.53 77.2493 1272.94 77.2502 1273.33 77.3459C1273.73 77.4415 1274.09 77.6291 1274.4 77.8933C1274.7 78.1574 1274.94 78.4905 1275.1 78.8652C1275.25 79.2398 1275.31 79.6452 1275.27 80.048L1273 105.994L1274.7 106.142L1276.04 90.8688C1276.05 90.7435 1276.08 90.6222 1276.15 90.5136C1276.21 90.405 1276.3 90.3119 1276.4 90.2409C1276.51 90.1699 1276.63 90.1229 1276.75 90.1032C1276.87 90.0835 1277 90.0916 1277.12 90.1269L1280.78 91.1984C1281.34 91.364 1281.84 91.7206 1282.17 92.2074C1282.5 92.6943 1282.66 93.2815 1282.61 93.8691L1281.48 106.735L1283.17 106.883C1283.62 106.923 1284.04 107.139 1284.33 107.485C1284.62 107.83 1284.76 108.277 1284.72 108.727C1284.68 109.176 1284.47 109.592 1284.12 109.882C1283.77 110.172 1283.33 110.313 1282.88 110.274L1252.37 107.604C1251.92 107.565 1251.5 107.349 1251.21 107.003C1250.92 106.657 1250.78 106.21 1250.82 105.761C1250.86 105.311 1251.07 104.896 1251.42 104.606C1251.77 104.315 1252.21 104.175 1252.66 104.214Z" fill="#EEE8A9"/>
</g>
<defs>
<filter id="filter0_d_532_5169" x="276.614" y="78.7358" width="140.245" height="140.163" filterUnits="userSpaceOnUse" color-interpolation-filters="sRGB">
<feFlood flood-opacity="0" result="BackgroundImageFix"/>
<feColorMatrix in="SourceAlpha" type="matrix" values="0 0 0 0 0 0 0 0 0 0 0 0 0 0 0 0 0 0 127 0" result="hardAlpha"/>
<feOffset/>
<feGaussianBlur stdDeviation="25"/>
<feComposite in2="hardAlpha" operator="out"/>
<feColorMatrix type="matrix" values="0 0 0 0 1 0 0 0 0 1 0 0 0 0 1 0 0 0 1 0"/>
<feBlend mode="overlay" in2="BackgroundImageFix" result="effect1_dropShadow_532_5169"/>
<feBlend mode="normal" in="SourceGraphic" in2="effect1_dropShadow_532_5169" result="shape"/>
</filter>
<filter id="filter1_d_532_5169" x="209.418" y="752.416" width="112.303" height="105.031" filterUnits="userSpaceOnUse" color-interpolation-filters="sRGB">
<feFlood flood-opacity="0" result="BackgroundImageFix"/>
<feColorMatrix in="SourceAlpha" type="matrix" values="0 0 0 0 0 0 0 0 0 0 0 0 0 0 0 0 0 0 127 0" result="hardAlpha"/>
<feOffset/>
<feGaussianBlur stdDeviation="25"/>
<feComposite in2="hardAlpha" operator="out"/>
<feColorMatrix type="matrix" values="0 0 0 0 1 0 0 0 0 1 0 0 0 0 1 0 0 0 1 0"/>
<feBlend mode="overlay" in2="BackgroundImageFix" result="effect1_dropShadow_532_5169"/>
<feBlend mode="normal" in="SourceGraphic" in2="effect1_dropShadow_532_5169" result="shape"/>
</filter>
<filter id="filter2_d_532_5169" x="200.477" y="718.022" width="126.001" height="130.463" filterUnits="userSpaceOnUse" color-interpolation-filters="sRGB">
<feFlood flood-opacity="0" result="BackgroundImageFix"/>
<feColorMatrix in="SourceAlpha" type="matrix" values="0 0 0 0 0 0 0 0 0 0 0 0 0 0 0 0 0 0 127 0" result="hardAlpha"/>
<feOffset/>
<feGaussianBlur stdDeviation="25"/>
<feComposite in2="hardAlpha" operator="out"/>
<feColorMatrix type="matrix" values="0 0 0 0 1 0 0 0 0 1 0 0 0 0 1 0 0 0 1 0"/>
<feBlend mode="overlay" in2="BackgroundImageFix" result="effect1_dropShadow_532_5169"/>
<feBlend mode="normal" in="SourceGraphic" in2="effect1_dropShadow_532_5169" result="shape"/>
</filter>
<filter id="filter3_d_532_5169" x="922" y="1" width="140" height="138" filterUnits="userSpaceOnUse" color-interpolation-filters="sRGB">
<feFlood flood-opacity="0" result="BackgroundImageFix"/>
<feColorMatrix in="SourceAlpha" type="matrix" values="0 0 0 0 0 0 0 0 0 0 0 0 0 0 0 0 0 0 127 0" result="hardAlpha"/>
<feOffset/>
<feGaussianBlur stdDeviation="25"/>
<feComposite in2="hardAlpha" operator="out"/>
<feColorMatrix type="matrix" values="0 0 0 0 1 0 0 0 0 1 0 0 0 0 1 0 0 0 1 0"/>
<feBlend mode="overlay" in2="BackgroundImageFix" result="effect1_dropShadow_532_5169"/>
<feBlend mode="normal" in="SourceGraphic" in2="effect1_dropShadow_532_5169" result="shape"/>
</filter>
<filter id="filter4_d_532_5169" x="750" y="837" width="132" height="132" filterUnits="userSpaceOnUse" color-interpolation-filters="sRGB">
<feFlood flood-opacity="0" result="BackgroundImageFix"/>
<feColorMatrix in="SourceAlpha" type="matrix" values="0 0 0 0 0 0 0 0 0 0 0 0 0 0 0 0 0 0 127 0" result="hardAlpha"/>
<feOffset/>
<feGaussianBlur stdDeviation="25"/>
<feComposite in2="hardAlpha" operator="out"/>
<feColorMatrix type="matrix" values="0 0 0 0 1 0 0 0 0 1 0 0 0 0 1 0 0 0 1 0"/>
<feBlend mode="overlay" in2="BackgroundImageFix" result="effect1_dropShadow_532_5169"/>
<feBlend mode="normal" in="SourceGraphic" in2="effect1_dropShadow_532_5169" result="shape"/>
</filter>
<filter id="filter5_d_532_5169" x="737.625" y="824.662" width="157.13" height="157.13" filterUnits="userSpaceOnUse" color-interpolation-filters="sRGB">
<feFlood flood-opacity="0" result="BackgroundImageFix"/>
<feColorMatrix in="SourceAlpha" type="matrix" values="0 0 0 0 0 0 0 0 0 0 0 0 0 0 0 0 0 0 127 0" result="hardAlpha"/>
<feOffset/>
<feGaussianBlur stdDeviation="25"/>
<feComposite in2="hardAlpha" operator="out"/>
<feColorMatrix type="matrix" values="0 0 0 0 1 0 0 0 0 1 0 0 0 0 1 0 0 0 1 0"/>
<feBlend mode="overlay" in2="BackgroundImageFix" result="effect1_dropShadow_532_5169"/>
<feBlend mode="normal" in="SourceGraphic" in2="effect1_dropShadow_532_5169" result="shape"/>
</filter>
<filter id="filter6_d_532_5169" x="1401.04" y="46.4692" width="132.587" height="133.023" filterUnits="userSpaceOnUse" color-interpolation-filters="sRGB">
<feFlood flood-opacity="0" result="BackgroundImageFix"/>
<feColorMatrix in="SourceAlpha" type="matrix" values="0 0 0 0 0 0 0 0 0 0 0 0 0 0 0 0 0 0 127 0" result="hardAlpha"/>
<feOffset/>
<feGaussianBlur stdDeviation="25"/>
<feComposite in2="hardAlpha" operator="out"/>
<feColorMatrix type="matrix" values="0 0 0 0 1 0 0 0 0 1 0 0 0 0 1 0 0 0 1 0"/>
<feBlend mode="overlay" in2="BackgroundImageFix" result="effect1_dropShadow_532_5169"/>
<feBlend mode="normal" in="SourceGraphic" in2="effect1_dropShadow_532_5169" result="shape"/>
</filter>
<filter id="filter7_d_532_5169" x="1411.18" y="54.0098" width="112.663" height="124.612" filterUnits="userSpaceOnUse" color-interpolation-filters="sRGB">
<feFlood flood-opacity="0" result="BackgroundImageFix"/>
<feColorMatrix in="SourceAlpha" type="matrix" values="0 0 0 0 0 0 0 0 0 0 0 0 0 0 0 0 0 0 127 0" result="hardAlpha"/>
<feOffset/>
<feGaussianBlur stdDeviation="25"/>
<feComposite in2="hardAlpha" operator="out"/>
<feColorMatrix type="matrix" values="0 0 0 0 1 0 0 0 0 1 0 0 0 0 1 0 0 0 1 0"/>
<feBlend mode="overlay" in2="BackgroundImageFix" result="effect1_dropShadow_532_5169"/>
<feBlend mode="normal" in="SourceGraphic" in2="effect1_dropShadow_532_5169" result="shape"/>
</filter>
<filter id="filter8_d_532_5169" x="1101.74" y="888.553" width="127.241" height="139.678" filterUnits="userSpaceOnUse" color-interpolation-filters="sRGB">
<feFlood flood-opacity="0" result="BackgroundImageFix"/>
<feColorMatrix in="SourceAlpha" type="matrix" values="0 0 0 0 0 0 0 0 0 0 0 0 0 0 0 0 0 0 127 0" result="hardAlpha"/>
<feOffset/>
<feGaussianBlur stdDeviation="25"/>
<feComposite in2="hardAlpha" operator="out"/>
<feColorMatrix type="matrix" values="0 0 0 0 1 0 0 0 0 1 0 0 0 0 1 0 0 0 1 0"/>
<feBlend mode="overlay" in2="BackgroundImageFix" result="effect1_dropShadow_532_5169"/>
<feBlend mode="normal" in="SourceGraphic" in2="effect1_dropShadow_532_5169" result="shape"/>
</filter>
<filter id="filter9_d_532_5169" x="1507.55" y="872.661" width="140.992" height="124.106" filterUnits="userSpaceOnUse" color-interpolation-filters="sRGB">
<feFlood flood-opacity="0" result="BackgroundImageFix"/>
<feColorMatrix in="SourceAlpha" type="matrix" values="0 0 0 0 0 0 0 0 0 0 0 0 0 0 0 0 0 0 127 0" result="hardAlpha"/>
<feOffset/>
<feGaussianBlur stdDeviation="25"/>
<feComposite in2="hardAlpha" operator="out"/>
<feColorMatrix type="matrix" values="0 0 0 0 1 0 0 0 0 1 0 0 0 0 1 0 0 0 1 0"/>
<feBlend mode="overlay" in2="BackgroundImageFix" result="effect1_dropShadow_532_5169"/>
<feBlend mode="normal" in="SourceGraphic" in2="effect1_dropShadow_532_5169" result="shape"/>
</filter>
<filter id="filter10_d_532_5169" x="-0.00721741" y="800.993" width="140.015" height="140.015" filterUnits="userSpaceOnUse" color-interpolation-filters="sRGB">
<feFlood flood-opacity="0" result="BackgroundImageFix"/>
<feColorMatrix in="SourceAlpha" type="matrix" values="0 0 0 0 0 0 0 0 0 0 0 0 0 0 0 0 0 0 127 0" result="hardAlpha"/>
<feOffset/>
<feGaussianBlur stdDeviation="25"/>
<feComposite in2="hardAlpha" operator="out"/>
<feColorMatrix type="matrix" values="0 0 0 0 1 0 0 0 0 1 0 0 0 0 1 0 0 0 1 0"/>
<feBlend mode="overlay" in2="BackgroundImageFix" result="effect1_dropShadow_532_5169"/>
<feBlend mode="normal" in="SourceGraphic" in2="effect1_dropShadow_532_5169" result="shape"/>
</filter>
<filter id="filter11_d_532_5169" x="1234.83" y="776.984" width="131.909" height="139.008" filterUnits="userSpaceOnUse" color-interpolation-filters="sRGB">
<feFlood flood-opacity="0" result="BackgroundImageFix"/>
<feColorMatrix in="SourceAlpha" type="matrix" values="0 0 0 0 0 0 0 0 0 0 0 0 0 0 0 0 0 0 127 0" result="hardAlpha"/>
<feOffset/>
<feGaussianBlur stdDeviation="25"/>
<feComposite in2="hardAlpha" operator="out"/>
<feColorMatrix type="matrix" values="0 0 0 0 1 0 0 0 0 1 0 0 0 0 1 0 0 0 1 0"/>
<feBlend mode="overlay" in2="BackgroundImageFix" result="effect1_dropShadow_532_5169"/>
<feBlend mode="normal" in="SourceGraphic" in2="effect1_dropShadow_532_5169" result="shape"/>
</filter>
<filter id="filter12_d_532_5169" x="551.352" y="0.140625" width="136.118" height="138.354" filterUnits="userSpaceOnUse" color-interpolation-filters="sRGB">
<feFlood flood-opacity="0" result="BackgroundImageFix"/>
<feColorMatrix in="SourceAlpha" type="matrix" values="0 0 0 0 0 0 0 0 0 0 0 0 0 0 0 0 0 0 127 0" result="hardAlpha"/>
<feOffset/>
<feGaussianBlur stdDeviation="25"/>
<feComposite in2="hardAlpha" operator="out"/>
<feColorMatrix type="matrix" values="0 0 0 0 1 0 0 0 0 1 0 0 0 0 1 0 0 0 1 0"/>
<feBlend mode="overlay" in2="BackgroundImageFix" result="effect1_dropShadow_532_5169"/>
<feBlend mode="normal" in="SourceGraphic" in2="effect1_dropShadow_532_5169" result="shape"/>
</filter>
<filter id="filter13_d_532_5169" x="370.002" y="865.017" width="141.995" height="139.977" filterUnits="userSpaceOnUse" color-interpolation-filters="sRGB">
<feFlood flood-opacity="0" result="BackgroundImageFix"/>
<feColorMatrix in="SourceAlpha" type="matrix" values="0 0 0 0 0 0 0 0 0 0 0 0 0 0 0 0 0 0 127 0" result="hardAlpha"/>
<feOffset/>
<feGaussianBlur stdDeviation="25"/>
<feComposite in2="hardAlpha" operator="out"/>
<feColorMatrix type="matrix" values="0 0 0 0 1 0 0 0 0 1 0 0 0 0 1 0 0 0 1 0"/>
<feBlend mode="overlay" in2="BackgroundImageFix" result="effect1_dropShadow_532_5169"/>
<feBlend mode="normal" in="SourceGraphic" in2="effect1_dropShadow_532_5169" result="shape"/>
</filter>
<filter id="filter14_d_532_5169" x="1619.18" y="44.8057" width="126.798" height="121.318" filterUnits="userSpaceOnUse" color-interpolation-filters="sRGB">
<feFlood flood-opacity="0" result="BackgroundImageFix"/>
<feColorMatrix in="SourceAlpha" type="matrix" values="0 0 0 0 0 0 0 0 0 0 0 0 0 0 0 0 0 0 127 0" result="hardAlpha"/>
<feOffset/>
<feGaussianBlur stdDeviation="25"/>
<feComposite in2="hardAlpha" operator="out"/>
<feColorMatrix type="matrix" values="0 0 0 0 1 0 0 0 0 1 0 0 0 0 1 0 0 0 1 0"/>
<feBlend mode="overlay" in2="BackgroundImageFix" result="effect1_dropShadow_532_5169"/>
<feBlend mode="normal" in="SourceGraphic" in2="effect1_dropShadow_532_5169" result="shape"/>
</filter>
<filter id="filter15_d_532_5169" x="1200.81" y="27.2734" width="133.915" height="133.007" filterUnits="userSpaceOnUse" color-interpolation-filters="sRGB">
<feFlood flood-opacity="0" result="BackgroundImageFix"/>
<feColorMatrix in="SourceAlpha" type="matrix" values="0 0 0 0 0 0 0 0 0 0 0 0 0 0 0 0 0 0 127 0" result="hardAlpha"/>
<feOffset/>
<feGaussianBlur stdDeviation="25"/>
<feComposite in2="hardAlpha" operator="out"/>
<feColorMatrix type="matrix" values="0 0 0 0 1 0 0 0 0 1 0 0 0 0 1 0 0 0 1 0"/>
<feBlend mode="overlay" in2="BackgroundImageFix" result="effect1_dropShadow_532_5169"/>
<feBlend mode="normal" in="SourceGraphic" in2="effect1_dropShadow_532_5169" result="shape"/>
</filter>
<clipPath id="clip0_532_5169">
<rect width="48" height="48" fill="white" transform="translate(1140.18 933) rotate(5)"/>
</clipPath>
</defs>
</svg>
