<svg width="49" height="48" viewBox="0 0 49 48" fill="none" xmlns="http://www.w3.org/2000/svg">
<g clip-path="url(#clip0_120_1154)">
<path opacity="0.2" d="M20.1665 30V9.62061C16.7104 10.6003 13.6684 12.6812 11.5026 15.5472C9.33677 18.4132 8.16545 21.9077 8.1665 25.5V30H20.1665Z" fill="url(#paint0_linear_120_1154)"/>
<path opacity="0.2" d="M29.1665 30V9.62061C32.6226 10.6003 35.6646 12.6812 37.8304 15.5472C39.9962 18.4132 41.1676 21.9077 41.1665 25.5V30H29.1665Z" fill="url(#paint1_linear_120_1154)"/>
<path d="M42.6665 30H6.6665C5.83808 30 5.1665 30.6716 5.1665 31.5V36C5.1665 36.8284 5.83808 37.5 6.6665 37.5H42.6665C43.4949 37.5 44.1665 36.8284 44.1665 36V31.5C44.1665 30.6716 43.4949 30 42.6665 30Z" stroke="url(#paint2_linear_120_1154)" stroke-width="3" stroke-linecap="round" stroke-linejoin="round"/>
<path d="M20.1665 30V7.5C20.1665 7.10218 20.3245 6.72064 20.6058 6.43934C20.8871 6.15804 21.2687 6 21.6665 6H27.6665C28.0643 6 28.4459 6.15804 28.7272 6.43934C29.0085 6.72064 29.1665 7.10218 29.1665 7.5V30" stroke="url(#paint3_linear_120_1154)" stroke-width="3" stroke-linecap="round" stroke-linejoin="round"/>
<path d="M41.1665 30V25.5C41.1676 21.9077 39.9962 18.4132 37.8304 15.5472C35.6646 12.6812 32.6226 10.6003 29.1665 9.62061" stroke="url(#paint4_linear_120_1154)" stroke-width="3" stroke-linecap="round" stroke-linejoin="round"/>
<path d="M8.1665 30V25.5C8.16545 21.9077 9.33677 18.4132 11.5026 15.5472C13.6684 12.6812 16.7104 10.6003 20.1665 9.62061" stroke="url(#paint5_linear_120_1154)" stroke-width="3" stroke-linecap="round" stroke-linejoin="round"/>
</g>
<defs>
<linearGradient id="paint0_linear_120_1154" x1="8.1665" y1="19.8103" x2="20.1665" y2="19.8103" gradientUnits="userSpaceOnUse">
<stop stop-color="#0E7490"/>
<stop offset="1" stop-color="#139ABF"/>
</linearGradient>
<linearGradient id="paint1_linear_120_1154" x1="29.1665" y1="19.8103" x2="41.1665" y2="19.8103" gradientUnits="userSpaceOnUse">
<stop stop-color="#0E7490"/>
<stop offset="1" stop-color="#139ABF"/>
</linearGradient>
<linearGradient id="paint2_linear_120_1154" x1="5.1665" y1="33.75" x2="44.1665" y2="33.75" gradientUnits="userSpaceOnUse">
<stop stop-color="#0E7490"/>
<stop offset="1" stop-color="#139ABF"/>
</linearGradient>
<linearGradient id="paint3_linear_120_1154" x1="20.1665" y1="18" x2="29.1665" y2="18" gradientUnits="userSpaceOnUse">
<stop stop-color="#0E7490"/>
<stop offset="1" stop-color="#139ABF"/>
</linearGradient>
<linearGradient id="paint4_linear_120_1154" x1="29.1665" y1="19.8103" x2="41.1665" y2="19.8103" gradientUnits="userSpaceOnUse">
<stop stop-color="#0E7490"/>
<stop offset="1" stop-color="#139ABF"/>
</linearGradient>
<linearGradient id="paint5_linear_120_1154" x1="8.1665" y1="19.8103" x2="20.1665" y2="19.8103" gradientUnits="userSpaceOnUse">
<stop stop-color="#0E7490"/>
<stop offset="1" stop-color="#139ABF"/>
</linearGradient>
<clipPath id="clip0_120_1154">
<rect width="48" height="48" fill="white" transform="translate(0.666504)"/>
</clipPath>
</defs>
</svg>
