<svg width="32" height="32" viewBox="0 0 32 32" fill="none" xmlns="http://www.w3.org/2000/svg">
<g clip-path="url(#clip0_159_3136)">
<path opacity="0.2" d="M5 23H13V26C13 26.2652 12.8946 26.5196 12.7071 26.7071C12.5196 26.8946 12.2652 27 12 27H6C5.73478 27 5.48043 26.8946 5.29289 26.7071C5.10536 26.5196 5 26.2652 5 26V23Z" fill="url(#paint0_linear_159_3136)"/>
<path opacity="0.2" d="M26 5H20C19.4477 5 19 5.44772 19 6V26C19 26.5523 19.4477 27 20 27H26C26.5523 27 27 26.5523 27 26V6C27 5.44772 26.5523 5 26 5Z" fill="url(#paint1_linear_159_3136)"/>
<path d="M26 5H20C19.4477 5 19 5.44772 19 6V26C19 26.5523 19.4477 27 20 27H26C26.5523 27 27 26.5523 27 26V6C27 5.44772 26.5523 5 26 5Z" stroke="url(#paint2_linear_159_3136)" stroke-width="2" stroke-linecap="round" stroke-linejoin="round"/>
<path d="M19 11H23" stroke="url(#paint3_linear_159_3136)" stroke-width="2" stroke-linecap="round" stroke-linejoin="round"/>
<path d="M19 16H23" stroke="url(#paint4_linear_159_3136)" stroke-width="2" stroke-linecap="round" stroke-linejoin="round"/>
<path d="M19 21H23" stroke="url(#paint5_linear_159_3136)" stroke-width="2" stroke-linecap="round" stroke-linejoin="round"/>
<path d="M5 8L9 4L13 8V26C13 26.2652 12.8946 26.5196 12.7071 26.7071C12.5196 26.8946 12.2652 27 12 27H6C5.73478 27 5.48043 26.8946 5.29289 26.7071C5.10536 26.5196 5 26.2652 5 26V8Z" stroke="url(#paint6_linear_159_3136)" stroke-width="2" stroke-linecap="round" stroke-linejoin="round"/>
<path d="M9 9V23" stroke="url(#paint7_linear_159_3136)" stroke-width="2" stroke-linecap="round" stroke-linejoin="round"/>
<path d="M13 9H5" stroke="url(#paint8_linear_159_3136)" stroke-width="2" stroke-linecap="round" stroke-linejoin="round"/>
<path d="M13 23H5" stroke="url(#paint9_linear_159_3136)" stroke-width="2" stroke-linecap="round" stroke-linejoin="round"/>
</g>
<defs>
<linearGradient id="paint0_linear_159_3136" x1="5" y1="25" x2="13" y2="25" gradientUnits="userSpaceOnUse">
<stop stop-color="#0E7490"/>
<stop offset="1" stop-color="#139ABF"/>
</linearGradient>
<linearGradient id="paint1_linear_159_3136" x1="19" y1="16" x2="27" y2="16" gradientUnits="userSpaceOnUse">
<stop stop-color="#0E7490"/>
<stop offset="1" stop-color="#139ABF"/>
</linearGradient>
<linearGradient id="paint2_linear_159_3136" x1="19" y1="16" x2="27" y2="16" gradientUnits="userSpaceOnUse">
<stop stop-color="#0E7490"/>
<stop offset="1" stop-color="#139ABF"/>
</linearGradient>
<linearGradient id="paint3_linear_159_3136" x1="19" y1="11.5" x2="23" y2="11.5" gradientUnits="userSpaceOnUse">
<stop stop-color="#0E7490"/>
<stop offset="1" stop-color="#139ABF"/>
</linearGradient>
<linearGradient id="paint4_linear_159_3136" x1="19" y1="16.5" x2="23" y2="16.5" gradientUnits="userSpaceOnUse">
<stop stop-color="#0E7490"/>
<stop offset="1" stop-color="#139ABF"/>
</linearGradient>
<linearGradient id="paint5_linear_159_3136" x1="19" y1="21.5" x2="23" y2="21.5" gradientUnits="userSpaceOnUse">
<stop stop-color="#0E7490"/>
<stop offset="1" stop-color="#139ABF"/>
</linearGradient>
<linearGradient id="paint6_linear_159_3136" x1="5" y1="15.5" x2="13" y2="15.5" gradientUnits="userSpaceOnUse">
<stop stop-color="#0E7490"/>
<stop offset="1" stop-color="#139ABF"/>
</linearGradient>
<linearGradient id="paint7_linear_159_3136" x1="9" y1="16" x2="10" y2="16" gradientUnits="userSpaceOnUse">
<stop stop-color="#0E7490"/>
<stop offset="1" stop-color="#139ABF"/>
</linearGradient>
<linearGradient id="paint8_linear_159_3136" x1="5" y1="9.5" x2="13" y2="9.5" gradientUnits="userSpaceOnUse">
<stop stop-color="#0E7490"/>
<stop offset="1" stop-color="#139ABF"/>
</linearGradient>
<linearGradient id="paint9_linear_159_3136" x1="5" y1="23.5" x2="13" y2="23.5" gradientUnits="userSpaceOnUse">
<stop stop-color="#0E7490"/>
<stop offset="1" stop-color="#139ABF"/>
</linearGradient>
<clipPath id="clip0_159_3136">
<rect width="32" height="32" fill="white"/>
</clipPath>
</defs>
</svg>
