<svg width="49" height="48" viewBox="0 0 49 48" fill="none" xmlns="http://www.w3.org/2000/svg">
<g clip-path="url(#clip0_183_3372)">
<path opacity="0.2" d="M24.3331 6C20.6917 5.99978 17.1359 7.10397 14.1352 9.16678C11.1345 11.2296 8.82992 14.154 7.52587 17.5539C6.22182 20.9537 5.9796 24.6691 6.83119 28.2095C7.68277 31.7499 9.58811 34.9488 12.2956 37.3838C13.4249 35.1617 15.1473 33.2957 17.2719 31.9924C19.3966 30.6891 21.8406 29.9995 24.3331 30C22.8498 30 21.3997 29.5601 20.1663 28.736C18.933 27.9119 17.9717 26.7406 17.404 25.3701C16.8364 23.9997 16.6878 22.4917 16.9772 21.0368C17.2666 19.582 17.9809 18.2456 19.0298 17.1967C20.0787 16.1478 21.4151 15.4335 22.8699 15.1441C24.3248 14.8547 25.8328 15.0032 27.2033 15.5709C28.5737 16.1386 29.745 17.0999 30.5691 18.3332C31.3933 19.5666 31.8331 21.0166 31.8331 22.5C31.8331 24.4891 31.0429 26.3968 29.6364 27.8033C28.2299 29.2098 26.3222 30 24.3331 30C26.8255 29.9994 29.2693 30.6887 31.394 31.9916C33.5186 33.2945 35.2411 35.1602 36.3706 37.3819C39.0774 34.9468 40.9822 31.7481 41.8333 28.208C42.6845 24.6679 42.4421 20.953 41.1382 17.5535C39.8342 14.1541 37.53 11.23 34.5297 9.16727C31.5294 7.10455 27.9741 6.0002 24.3331 6Z" fill="url(#paint0_linear_183_3372)"/>
<path d="M24.333 30C28.4751 30 31.833 26.6421 31.833 22.5C31.833 18.3579 28.4751 15 24.333 15C20.1909 15 16.833 18.3579 16.833 22.5C16.833 26.6421 20.1909 30 24.333 30Z" stroke="url(#paint1_linear_183_3372)" stroke-width="3" stroke-linecap="round" stroke-linejoin="round"/>
<path d="M12.2959 37.3818C13.4245 35.1589 15.1466 33.2918 17.2713 31.9877C19.396 30.6835 21.8404 29.9932 24.3334 29.9932C26.8264 29.9932 29.2708 30.6835 31.3955 31.9877C33.5202 33.2918 35.2423 35.1589 36.3709 37.3818" stroke="url(#paint2_linear_183_3372)" stroke-width="3" stroke-linecap="round" stroke-linejoin="round"/>
<path d="M37.833 24L42.333 28.5L46.833 24" stroke="url(#paint3_linear_183_3372)" stroke-width="3" stroke-linecap="round" stroke-linejoin="round"/>
<path d="M1.83301 24L6.33301 19.5L10.833 24" stroke="url(#paint4_linear_183_3372)" stroke-width="3" stroke-linecap="round" stroke-linejoin="round"/>
<path d="M6.33301 19.5V24C6.33159 27.8109 7.53975 31.524 9.7835 34.6044C12.0272 37.6848 15.1908 39.9736 18.8185 41.1412C22.4462 42.3087 26.3508 42.2947 29.9701 41.1012C33.5893 39.9078 36.7364 37.5964 38.958 34.5" stroke="url(#paint5_linear_183_3372)" stroke-width="3" stroke-linecap="round" stroke-linejoin="round"/>
<path d="M42.333 28.4999V23.9999C42.3344 20.1889 41.1263 16.4759 38.8825 13.3954C36.6388 10.315 33.4752 8.02624 29.8475 6.8587C26.2199 5.69117 22.3152 5.70514 18.696 6.89861C15.0767 8.09209 11.9296 10.4035 9.70801 13.4999" stroke="url(#paint6_linear_183_3372)" stroke-width="3" stroke-linecap="round" stroke-linejoin="round"/>
</g>
<defs>
<linearGradient id="paint0_linear_183_3372" x1="6.33203" y1="21.6919" x2="42.3321" y2="21.6919" gradientUnits="userSpaceOnUse">
<stop stop-color="#0E7490"/>
<stop offset="1" stop-color="#139ABF"/>
</linearGradient>
<linearGradient id="paint1_linear_183_3372" x1="16.833" y1="22.5" x2="31.833" y2="22.5" gradientUnits="userSpaceOnUse">
<stop stop-color="#0E7490"/>
<stop offset="1" stop-color="#139ABF"/>
</linearGradient>
<linearGradient id="paint2_linear_183_3372" x1="12.2959" y1="33.6875" x2="36.3709" y2="33.6875" gradientUnits="userSpaceOnUse">
<stop stop-color="#0E7490"/>
<stop offset="1" stop-color="#139ABF"/>
</linearGradient>
<linearGradient id="paint3_linear_183_3372" x1="37.833" y1="26.25" x2="46.833" y2="26.25" gradientUnits="userSpaceOnUse">
<stop stop-color="#0E7490"/>
<stop offset="1" stop-color="#139ABF"/>
</linearGradient>
<linearGradient id="paint4_linear_183_3372" x1="1.83301" y1="21.75" x2="10.833" y2="21.75" gradientUnits="userSpaceOnUse">
<stop stop-color="#0E7490"/>
<stop offset="1" stop-color="#139ABF"/>
</linearGradient>
<linearGradient id="paint5_linear_183_3372" x1="6.33301" y1="30.7533" x2="38.958" y2="30.7533" gradientUnits="userSpaceOnUse">
<stop stop-color="#0E7490"/>
<stop offset="1" stop-color="#139ABF"/>
</linearGradient>
<linearGradient id="paint6_linear_183_3372" x1="9.70801" y1="17.2465" x2="42.333" y2="17.2465" gradientUnits="userSpaceOnUse">
<stop stop-color="#0E7490"/>
<stop offset="1" stop-color="#139ABF"/>
</linearGradient>
<clipPath id="clip0_183_3372">
<rect width="48" height="48" fill="white" transform="translate(0.333008)"/>
</clipPath>
</defs>
</svg>
