<svg width="32" height="32" viewBox="0 0 32 32" fill="none" xmlns="http://www.w3.org/2000/svg">
<g clip-path="url(#clip0_566_5807)">
<path opacity="0.2" d="M23.9355 25C23.3837 24.9883 22.8458 24.8247 22.381 24.527C21.9163 24.2294 21.5426 23.8093 21.3012 23.313C21.0598 22.8167 20.9599 22.2634 21.0127 21.714C21.0654 21.1646 21.2687 20.6404 21.6001 20.1991C21.9316 19.7578 22.3783 19.4165 22.8913 19.2127C23.4042 19.0089 23.9634 18.9506 24.5073 19.0441C25.0512 19.1376 25.5588 19.3794 25.9742 19.7428C26.3896 20.1062 26.6967 20.5771 26.8617 21.1038C28.0465 18.5811 28.3163 15.7247 27.6247 13.0249C26.9332 10.325 25.3235 7.95007 23.0718 6.30763C20.8202 4.66519 18.0671 3.85771 15.285 4.02377C12.5029 4.18983 9.86544 5.31909 7.82517 7.21771C5.7849 9.11633 4.46911 11.6659 4.10364 14.4289C3.73818 17.1918 4.34582 19.9958 5.82228 22.3596C7.29874 24.7234 9.55194 26.4996 12.1952 27.3833C14.8384 28.267 17.7067 28.203 20.308 27.2025C20.6579 26.5425 21.1798 25.9894 21.8184 25.6016C22.4569 25.2139 23.1884 25.0061 23.9355 25Z" fill="#EEE8A9"/>
<path d="M22 13L16 16V9" stroke="#EEE8A9" stroke-width="2" stroke-linecap="round" stroke-linejoin="round"/>
<path d="M16 28C13.6266 28 11.3066 27.2962 9.33316 25.9776C7.35977 24.6591 5.8217 22.7849 4.91345 20.5922C4.0052 18.3995 3.76756 15.9867 4.23058 13.6589C4.6936 11.3312 5.83649 9.19295 7.51472 7.51472C9.19295 5.83649 11.3312 4.6936 13.6589 4.23058C15.9867 3.76756 18.3995 4.0052 20.5922 4.91345C22.7849 5.8217 24.6591 7.35977 25.9776 9.33316C27.2962 11.3066 28 13.6266 28 16" stroke="#EEE8A9" stroke-width="2" stroke-linecap="round" stroke-linejoin="round"/>
<path d="M20 28C20.4588 26.275 22.075 25 24 25C25.925 25 27.5412 26.275 28 28" stroke="#EEE8A9" stroke-width="2" stroke-linecap="round" stroke-linejoin="round"/>
<path d="M24 25C25.6569 25 27 23.6569 27 22C27 20.3431 25.6569 19 24 19C22.3431 19 21 20.3431 21 22C21 23.6569 22.3431 25 24 25Z" stroke="#EEE8A9" stroke-width="2" stroke-linecap="round" stroke-linejoin="round"/>
</g>
<defs>
<clipPath id="clip0_566_5807">
<rect width="32" height="32" fill="white"/>
</clipPath>
</defs>
</svg>
