<svg width="32" height="32" viewBox="0 0 32 32" fill="none" xmlns="http://www.w3.org/2000/svg">
<g clip-path="url(#clip0_554_5175)">
<path opacity="0.2" d="M25.9263 11.9414L21 18.0002L17 8.79395C16.686 8.93018 16.3473 9.00048 16.005 9.00048C15.6627 9.00048 15.324 8.93018 15.01 8.79395L11 18.0002L6.07626 11.9402C5.74353 12.2103 5.34643 12.3895 4.92376 12.4602H4.91376L6.86376 24.1589C6.90139 24.393 7.02097 24.6061 7.20116 24.7602C7.38135 24.9143 7.61042 24.9993 7.84751 25.0002H24.1525C24.3891 25.0002 24.618 24.9163 24.7986 24.7634C24.9792 24.6105 25.0997 24.3986 25.1388 24.1652L27.0888 12.4664H27.0788C26.6556 12.3942 26.2585 12.2133 25.9263 11.9414Z" fill="#EEE8A9"/>
<path d="M16 9C17.3807 9 18.5 7.88071 18.5 6.5C18.5 5.11929 17.3807 4 16 4C14.6193 4 13.5 5.11929 13.5 6.5C13.5 7.88071 14.6193 9 16 9Z" stroke="#EEE8A9" stroke-width="2" stroke-linecap="round" stroke-linejoin="round"/>
<path d="M27.5 12.5C28.8807 12.5 30 11.3807 30 10C30 8.61929 28.8807 7.5 27.5 7.5C26.1193 7.5 25 8.61929 25 10C25 11.3807 26.1193 12.5 27.5 12.5Z" stroke="#EEE8A9" stroke-width="2" stroke-linecap="round" stroke-linejoin="round"/>
<path d="M4.5 12.5C5.88071 12.5 7 11.3807 7 10C7 8.61929 5.88071 7.5 4.5 7.5C3.11929 7.5 2 8.61929 2 10C2 11.3807 3.11929 12.5 4.5 12.5Z" stroke="#EEE8A9" stroke-width="2" stroke-linecap="round" stroke-linejoin="round"/>
<path d="M15.0025 8.79395L11 18.0002L6.07623 11.9402" stroke="#EEE8A9" stroke-width="2" stroke-linecap="round" stroke-linejoin="round"/>
<path d="M25.9237 11.9402L21 18.0002L16.9975 8.79395" stroke="#EEE8A9" stroke-width="2" stroke-linecap="round" stroke-linejoin="round"/>
<path d="M4.91125 12.4658L6.86125 24.1646C6.90029 24.3979 7.02081 24.6099 7.20139 24.7628C7.38197 24.9157 7.6109 24.9996 7.8475 24.9996H24.1525C24.3891 24.9996 24.618 24.9157 24.7986 24.7628C24.9792 24.6099 25.0997 24.3979 25.1388 24.1646L27.0888 12.4658" stroke="#EEE8A9" stroke-width="2" stroke-linecap="round" stroke-linejoin="round"/>
</g>
<defs>
<clipPath id="clip0_554_5175">
<rect width="32" height="32" fill="white"/>
</clipPath>
</defs>
</svg>
