<svg width="101" height="40" viewBox="0 0 101 40" fill="none" xmlns="http://www.w3.org/2000/svg">
<path d="M30.3445 16.7822C29.7055 10.6979 15.8058 11.2154 15.6128 4.96747L15.625 0C15.8156 6.24775 29.7055 5.74515 30.3445 11.8294V16.7822Z" fill="url(#paint0_linear_714_5735)"/>
<path d="M14.7219 0C14.5287 6.24775 0.641235 5.74515 0 11.8294V16.782C0.641235 10.6977 14.5411 11.2152 14.7317 4.96727L14.7219 0Z" fill="url(#paint1_linear_714_5735)"/>
<path d="M15.6128 28.3527V33.3052C15.8058 27.0575 29.7057 27.575 30.3445 21.4907V16.5381C29.7055 22.6226 15.8056 22.1049 15.6128 28.3527Z" fill="url(#paint2_linear_714_5735)"/>
<path d="M14.7317 33.3055C14.5409 27.0577 0.641235 27.5752 0 21.4909V16.5383C0.641235 22.6226 14.5411 22.1052 14.7317 28.3529V33.3055Z" fill="url(#paint3_linear_714_5735)"/>
<path d="M15.6128 35.039V39.9915C15.8058 33.7436 29.7057 34.2613 30.3445 28.1768V23.2242C29.7055 29.3087 15.8056 28.791 15.6128 35.039Z" fill="url(#paint4_linear_714_5735)"/>
<path d="M14.8079 40C14.6173 33.752 0.710189 34.3168 0.071167 28.2323V23.2795C0.709989 29.3638 14.6123 28.8464 14.8029 35.0943L14.8079 40Z" fill="url(#paint5_linear_714_5735)"/>
<path d="M18.0562 13.6885L23.328 16.5719L18.0562 19.4552L15.1729 24.7268L12.2895 19.4552L7.01758 16.5719L12.2895 13.6885L15.1729 8.41693L18.0562 13.6885Z" fill="url(#paint6_linear_714_5735)"/>
<path d="M44.5764 3.258V3.738C44.0644 3.754 43.6724 3.818 43.4004 3.93C43.1444 4.026 42.9764 4.218 42.8964 4.506C42.8164 4.778 42.7764 5.21 42.7764 5.802V17.706C42.7764 18.282 42.8164 18.714 42.8964 19.002C42.9924 19.29 43.1684 19.482 43.4244 19.578C43.6804 19.674 44.0644 19.738 44.5764 19.77V20.25C44.1444 20.218 43.6004 20.202 42.9444 20.202C42.2884 20.186 41.6244 20.178 40.9524 20.178C40.1684 20.178 39.4404 20.186 38.7684 20.202C38.1124 20.202 37.5764 20.218 37.1604 20.25V19.77C37.6724 19.738 38.0564 19.674 38.3124 19.578C38.5684 19.482 38.7364 19.29 38.8164 19.002C38.9124 18.714 38.9604 18.282 38.9604 17.706V5.802C38.9604 5.21 38.9124 4.778 38.8164 4.506C38.7364 4.218 38.5604 4.026 38.2884 3.93C38.0324 3.818 37.6564 3.754 37.1604 3.738V3.258C37.5764 3.274 38.1124 3.29 38.7684 3.306C39.4404 3.322 40.1684 3.33 40.9524 3.33C41.6244 3.33 42.2884 3.322 42.9444 3.306C43.6004 3.29 44.1444 3.274 44.5764 3.258ZM62 3.258V3.738C61.488 3.802 61.104 3.938 60.848 4.146C60.592 4.338 60.416 4.65 60.32 5.082C60.24 5.514 60.2 6.122 60.2 6.906V20.298C60.008 20.282 59.808 20.274 59.6 20.274C59.408 20.274 59.2 20.282 58.976 20.298L48.5598 7.098V16.314C48.5598 17.194 48.6079 17.874 48.7038 18.354C48.7998 18.818 49.0079 19.154 49.3279 19.362C49.6639 19.554 50.184 19.69 50.888 19.77V20.25C50.584 20.218 50.184 20.202 49.6879 20.202C49.1919 20.186 48.7278 20.178 48.2958 20.178C47.9278 20.178 47.5519 20.186 47.1679 20.202C46.7839 20.202 46.4639 20.218 46.2079 20.25V19.77C46.7199 19.69 47.1039 19.554 47.3599 19.362C47.6159 19.17 47.7838 18.858 47.8638 18.426C47.9598 17.978 48.0079 17.37 48.0079 16.602V5.802C48.0079 5.21 47.9598 4.778 47.8638 4.506C47.7838 4.218 47.6079 4.026 47.3358 3.93C47.0799 3.818 46.7039 3.754 46.2079 3.738V3.258C46.4639 3.274 46.7839 3.29 47.1679 3.306C47.5519 3.322 47.9278 3.33 48.2958 3.33C48.6798 3.33 49.0478 3.322 49.3998 3.306C49.7518 3.29 50.072 3.274 50.36 3.258L59.648 14.706V7.194C59.648 6.314 59.6 5.642 59.504 5.178C59.408 4.698 59.192 4.354 58.856 4.146C58.536 3.938 58.024 3.802 57.32 3.738V3.258C57.624 3.274 58.024 3.29 58.52 3.306C59.016 3.322 59.48 3.33 59.912 3.33C60.296 3.33 60.672 3.322 61.04 3.306C61.424 3.29 61.744 3.274 62 3.258ZM70.92 3.258C74.072 3.258 76.416 3.978 77.952 5.418C79.488 6.842 80.256 8.89 80.256 11.562C80.256 13.306 79.88 14.834 79.128 16.146C78.376 17.442 77.28 18.45 75.84 19.17C74.416 19.89 72.704 20.25 70.704 20.25C70.448 20.25 70.112 20.242 69.696 20.226C69.28 20.21 68.848 20.202 68.4 20.202C67.952 20.186 67.552 20.178 67.2 20.178C66.496 20.178 65.8 20.186 65.112 20.202C64.44 20.202 63.904 20.218 63.504 20.25V19.77C64.016 19.738 64.4 19.674 64.656 19.578C64.912 19.482 65.08 19.29 65.16 19.002C65.256 18.714 65.304 18.282 65.304 17.706V5.802C65.304 5.21 65.256 4.778 65.16 4.506C65.08 4.218 64.904 4.026 64.632 3.93C64.376 3.818 64 3.754 63.504 3.738V3.258C63.904 3.274 64.44 3.298 65.112 3.33C65.8 3.346 66.48 3.346 67.152 3.33C67.728 3.314 68.376 3.298 69.096 3.282C69.832 3.266 70.44 3.258 70.92 3.258ZM70.896 3.69C70.16 3.69 69.68 3.826 69.456 4.098C69.232 4.37 69.12 4.922 69.12 5.754V17.754C69.12 18.586 69.232 19.138 69.456 19.41C69.696 19.682 70.184 19.818 70.92 19.818C72.264 19.818 73.32 19.506 74.088 18.882C74.872 18.242 75.432 17.314 75.768 16.098C76.104 14.882 76.272 13.402 76.272 11.658C76.272 9.866 76.088 8.386 75.72 7.218C75.368 6.034 74.8 5.154 74.016 4.578C73.232 3.986 72.192 3.69 70.896 3.69ZM90.849 2.922C92.545 2.922 94.025 3.266 95.289 3.954C96.569 4.642 97.561 5.634 98.265 6.93C98.969 8.21 99.321 9.77 99.321 11.61C99.321 13.402 98.961 14.97 98.241 16.314C97.521 17.658 96.513 18.706 95.217 19.458C93.937 20.21 92.473 20.586 90.825 20.586C89.129 20.586 87.641 20.242 86.361 19.554C85.097 18.866 84.113 17.874 83.409 16.578C82.705 15.282 82.353 13.722 82.353 11.898C82.353 10.106 82.713 8.538 83.433 7.194C84.169 5.85 85.169 4.802 86.433 4.05C87.713 3.298 89.185 2.922 90.849 2.922ZM90.753 3.354C89.857 3.354 89.073 3.714 88.401 4.434C87.745 5.154 87.233 6.146 86.865 7.41C86.513 8.674 86.337 10.138 86.337 11.802C86.337 13.498 86.537 14.978 86.937 16.242C87.353 17.49 87.905 18.458 88.593 19.146C89.297 19.818 90.073 20.154 90.921 20.154C91.817 20.154 92.593 19.794 93.249 19.074C93.921 18.354 94.433 17.362 94.785 16.098C95.153 14.818 95.337 13.354 95.337 11.706C95.337 9.994 95.129 8.514 94.713 7.266C94.313 6.018 93.761 5.058 93.057 4.386C92.369 3.698 91.601 3.354 90.753 3.354Z" fill="#F5F5F5"/>
<path d="M43.2924 23.754C44.0844 23.754 44.7264 23.874 45.2184 24.114C45.7104 24.342 46.1604 24.612 46.5684 24.924C46.7244 25.044 46.8444 25.104 46.9284 25.104C47.1564 25.104 47.3064 24.738 47.3784 24.006H47.7924C47.7684 24.462 47.7504 25.014 47.7384 25.662C47.7264 26.298 47.7204 27.15 47.7204 28.218H47.3064C47.2224 27.642 47.1084 27.108 46.9644 26.616C46.8324 26.124 46.5984 25.704 46.2624 25.356C45.9384 24.972 45.5124 24.672 44.9844 24.456C44.4684 24.24 43.9404 24.132 43.4004 24.132C42.7764 24.132 42.2244 24.288 41.7444 24.6C41.2644 24.9 40.8564 25.332 40.5204 25.896C40.1964 26.46 39.9444 27.126 39.7644 27.894C39.5964 28.65 39.5124 29.484 39.5124 30.396C39.5124 32.556 39.8424 34.14 40.5024 35.148C41.1744 36.144 42.1824 36.642 43.5264 36.642C43.9104 36.642 44.2404 36.588 44.5164 36.48C44.8044 36.372 45.0324 36.264 45.2004 36.156C45.4044 36.012 45.5364 35.874 45.5964 35.742C45.6564 35.598 45.6864 35.412 45.6864 35.184V33.438C45.6864 32.922 45.6384 32.544 45.5424 32.304C45.4584 32.052 45.2844 31.884 45.0204 31.8C44.7564 31.704 44.3724 31.65 43.8684 31.638V31.278C44.0964 31.29 44.3664 31.302 44.6784 31.314C44.9904 31.314 45.3144 31.32 45.6504 31.332C45.9984 31.332 46.3104 31.332 46.5864 31.332C47.0184 31.332 47.4084 31.326 47.7564 31.314C48.1164 31.302 48.4104 31.29 48.6384 31.278V31.638C48.3864 31.65 48.1944 31.692 48.0624 31.764C47.9424 31.836 47.8584 31.98 47.8104 32.196C47.7744 32.412 47.7564 32.742 47.7564 33.186V36.75H47.3964C47.3844 36.546 47.3364 36.324 47.2524 36.084C47.1804 35.844 47.0664 35.724 46.9104 35.724C46.8264 35.724 46.7364 35.742 46.6404 35.778C46.5564 35.814 46.4064 35.904 46.1904 36.048C45.7704 36.336 45.3324 36.57 44.8764 36.75C44.4204 36.918 43.9044 37.002 43.3284 37.002C42.0444 37.002 40.9464 36.75 40.0344 36.246C39.1224 35.73 38.4264 34.992 37.9464 34.032C37.4784 33.06 37.2444 31.908 37.2444 30.576C37.2444 29.184 37.5024 27.978 38.0184 26.958C38.5464 25.938 39.2604 25.152 40.1604 24.6C41.0724 24.036 42.1164 23.754 43.2924 23.754ZM49.896 24.006C50.172 24.018 50.526 24.03 50.958 24.042C51.402 24.054 51.84 24.06 52.272 24.06C52.848 24.06 53.394 24.054 53.91 24.042C54.438 24.03 54.81 24.024 55.026 24.024C56.046 24.024 56.892 24.156 57.564 24.42C58.248 24.684 58.752 25.056 59.076 25.536C59.412 26.004 59.58 26.544 59.58 27.156C59.58 27.528 59.502 27.924 59.346 28.344C59.202 28.752 58.944 29.136 58.572 29.496C58.2 29.844 57.696 30.132 57.06 30.36C56.424 30.588 55.614 30.702 54.63 30.702H52.902V30.342H54.45C55.254 30.342 55.866 30.21 56.286 29.946C56.718 29.67 57.006 29.31 57.15 28.866C57.306 28.41 57.384 27.906 57.384 27.354C57.384 26.406 57.18 25.674 56.772 25.158C56.364 24.63 55.656 24.366 54.648 24.366C54.132 24.366 53.79 24.468 53.622 24.672C53.466 24.876 53.388 25.29 53.388 25.914V34.842C53.388 35.274 53.424 35.598 53.496 35.814C53.568 36.03 53.706 36.174 53.91 36.246C54.114 36.318 54.414 36.366 54.81 36.39V36.75C54.522 36.726 54.156 36.714 53.712 36.714C53.28 36.702 52.836 36.696 52.38 36.696C51.876 36.696 51.402 36.702 50.958 36.714C50.526 36.714 50.172 36.726 49.896 36.75V36.39C50.304 36.366 50.61 36.318 50.814 36.246C51.018 36.174 51.15 36.03 51.21 35.814C51.282 35.598 51.318 35.274 51.318 34.842V25.914C51.318 25.47 51.282 25.146 51.21 24.942C51.15 24.726 51.012 24.582 50.796 24.51C50.592 24.426 50.292 24.378 49.896 24.366V24.006ZM52.938 30.396C53.55 30.42 54.042 30.45 54.414 30.486C54.786 30.51 55.098 30.534 55.35 30.558C55.602 30.582 55.836 30.612 56.052 30.648C56.952 30.768 57.606 31.008 58.014 31.368C58.434 31.728 58.722 32.28 58.878 33.024L59.328 34.86C59.436 35.376 59.55 35.742 59.67 35.958C59.802 36.174 59.994 36.282 60.246 36.282C60.438 36.27 60.594 36.216 60.714 36.12C60.846 36.012 60.984 35.868 61.128 35.688L61.38 35.886C61.104 36.258 60.816 36.54 60.516 36.732C60.216 36.912 59.814 37.002 59.31 37.002C58.794 37.002 58.35 36.87 57.978 36.606C57.618 36.33 57.36 35.814 57.204 35.058L56.844 33.258C56.736 32.742 56.616 32.298 56.484 31.926C56.352 31.542 56.166 31.242 55.926 31.026C55.698 30.81 55.362 30.702 54.918 30.702H52.974L52.938 30.396ZM67.9695 23.754C69.1455 23.754 70.1775 24.012 71.0655 24.528C71.9655 25.044 72.6615 25.788 73.1535 26.76C73.6455 27.72 73.8915 28.89 73.8915 30.27C73.8915 31.614 73.6395 32.79 73.1355 33.798C72.6315 34.806 71.9295 35.592 71.0295 36.156C70.1295 36.72 69.1035 37.002 67.9515 37.002C66.7635 37.002 65.7255 36.744 64.8375 36.228C63.9495 35.712 63.2595 34.968 62.7675 33.996C62.2755 33.024 62.0295 31.854 62.0295 30.486C62.0295 29.142 62.2815 27.966 62.7855 26.958C63.3015 25.95 64.0035 25.164 64.8915 24.6C65.7795 24.036 66.8055 23.754 67.9695 23.754ZM67.8975 24.078C67.1535 24.078 66.5055 24.348 65.9535 24.888C65.4015 25.428 64.9755 26.172 64.6755 27.12C64.3755 28.068 64.2255 29.166 64.2255 30.414C64.2255 31.686 64.3935 32.796 64.7295 33.744C65.0655 34.68 65.5215 35.406 66.0975 35.922C66.6735 36.426 67.3155 36.678 68.0235 36.678C68.7675 36.678 69.4095 36.408 69.9495 35.868C70.5015 35.328 70.9275 34.584 71.2275 33.636C71.5395 32.676 71.6955 31.578 71.6955 30.342C71.6955 29.058 71.5215 27.948 71.1735 27.012C70.8375 26.076 70.3815 25.356 69.8055 24.852C69.2415 24.336 68.6055 24.078 67.8975 24.078ZM86.5445 24.006V24.366C86.1485 24.39 85.8485 24.462 85.6445 24.582C85.4405 24.702 85.3025 24.9 85.2305 25.176C85.1585 25.44 85.1225 25.818 85.1225 26.31V31.512C85.1225 32.328 85.0685 33.054 84.9605 33.69C84.8525 34.326 84.6605 34.872 84.3845 35.328C84.0845 35.832 83.6405 36.24 83.0525 36.552C82.4765 36.852 81.7865 37.002 80.9825 37.002C80.4065 37.002 79.8485 36.936 79.3085 36.804C78.7685 36.672 78.2945 36.42 77.8865 36.048C77.5265 35.724 77.2445 35.37 77.0405 34.986C76.8365 34.602 76.6985 34.14 76.6265 33.6C76.5545 33.048 76.5185 32.37 76.5185 31.566V25.914C76.5185 25.47 76.4825 25.146 76.4105 24.942C76.3505 24.726 76.2185 24.582 76.0145 24.51C75.8105 24.426 75.5045 24.378 75.0965 24.366V24.006C75.3725 24.018 75.7265 24.03 76.1585 24.042C76.6025 24.054 77.0765 24.06 77.5805 24.06C78.0365 24.06 78.4865 24.054 78.9305 24.042C79.3865 24.03 79.7585 24.018 80.0465 24.006V24.366C79.6385 24.378 79.3265 24.426 79.1105 24.51C78.9065 24.582 78.7685 24.726 78.6965 24.942C78.6245 25.146 78.5885 25.47 78.5885 25.914V32.142C78.5885 32.754 78.6185 33.318 78.6785 33.834C78.7505 34.35 78.8765 34.8 79.0565 35.184C79.2485 35.556 79.5245 35.85 79.8845 36.066C80.2565 36.27 80.7365 36.372 81.3245 36.372C82.2125 36.372 82.8965 36.174 83.3765 35.778C83.8685 35.37 84.2105 34.818 84.4025 34.122C84.6065 33.414 84.7085 32.61 84.7085 31.71V26.382C84.7085 25.866 84.6605 25.47 84.5645 25.194C84.4685 24.918 84.3005 24.72 84.0605 24.6C83.8205 24.468 83.4785 24.39 83.0345 24.366V24.006C83.2625 24.018 83.5565 24.03 83.9165 24.042C84.2765 24.054 84.6065 24.06 84.9065 24.06C85.2185 24.06 85.5185 24.054 85.8065 24.042C86.1065 24.03 86.3525 24.018 86.5445 24.006ZM87.6715 24.006C87.9475 24.018 88.3015 24.03 88.7335 24.042C89.1775 24.054 89.6155 24.06 90.0475 24.06C90.6235 24.06 91.1695 24.054 91.6855 24.042C92.2135 24.03 92.5855 24.024 92.8015 24.024C94.3255 24.024 95.4655 24.354 96.2215 25.014C96.9775 25.674 97.3555 26.526 97.3555 27.57C97.3555 28.002 97.2775 28.458 97.1215 28.938C96.9775 29.406 96.7195 29.844 96.3475 30.252C95.9755 30.648 95.4715 30.972 94.8355 31.224C94.1995 31.476 93.3895 31.602 92.4055 31.602H90.6415V31.242H92.2255C93.0295 31.242 93.6415 31.08 94.0615 30.756C94.4935 30.432 94.7815 30.006 94.9255 29.478C95.0815 28.95 95.1595 28.38 95.1595 27.768C95.1595 26.628 94.9555 25.776 94.5475 25.212C94.1395 24.648 93.4315 24.366 92.4235 24.366C91.9075 24.366 91.5655 24.468 91.3975 24.672C91.2415 24.876 91.1635 25.29 91.1635 25.914V34.806C91.1635 35.25 91.2115 35.586 91.3075 35.814C91.4035 36.03 91.5835 36.174 91.8475 36.246C92.1115 36.318 92.5015 36.36 93.0175 36.372V36.75C92.6935 36.726 92.2735 36.714 91.7575 36.714C91.2415 36.702 90.7075 36.696 90.1555 36.696C89.6755 36.696 89.2135 36.702 88.7695 36.714C88.3375 36.714 87.9715 36.726 87.6715 36.75V36.39C88.0795 36.366 88.3855 36.318 88.5895 36.246C88.7935 36.174 88.9255 36.03 88.9855 35.814C89.0575 35.598 89.0935 35.274 89.0935 34.842V25.914C89.0935 25.47 89.0575 25.146 88.9855 24.942C88.9255 24.726 88.7875 24.582 88.5715 24.51C88.3675 24.426 88.0675 24.378 87.6715 24.366V24.006Z" fill="#F5F5F5"/>
<defs>
<linearGradient id="paint0_linear_714_5735" x1="15.6128" y1="8.3911" x2="30.3445" y2="8.3911" gradientUnits="userSpaceOnUse">
<stop stop-color="#0E7490"/>
<stop offset="1" stop-color="#139ABF"/>
</linearGradient>
<linearGradient id="paint1_linear_714_5735" x1="0" y1="8.391" x2="14.7317" y2="8.391" gradientUnits="userSpaceOnUse">
<stop stop-color="#0E7490"/>
<stop offset="1" stop-color="#139ABF"/>
</linearGradient>
<linearGradient id="paint2_linear_714_5735" x1="15.6128" y1="24.9217" x2="30.3445" y2="24.9217" gradientUnits="userSpaceOnUse">
<stop stop-color="#0E7490"/>
<stop offset="1" stop-color="#139ABF"/>
</linearGradient>
<linearGradient id="paint3_linear_714_5735" x1="0" y1="24.9219" x2="14.7317" y2="24.9219" gradientUnits="userSpaceOnUse">
<stop stop-color="#0E7490"/>
<stop offset="1" stop-color="#139ABF"/>
</linearGradient>
<linearGradient id="paint4_linear_714_5735" x1="15.6128" y1="31.6079" x2="30.3445" y2="31.6079" gradientUnits="userSpaceOnUse">
<stop stop-color="#0E7490"/>
<stop offset="1" stop-color="#139ABF"/>
</linearGradient>
<linearGradient id="paint5_linear_714_5735" x1="0.071167" y1="31.6397" x2="14.8079" y2="31.6397" gradientUnits="userSpaceOnUse">
<stop stop-color="#0E7490"/>
<stop offset="1" stop-color="#139ABF"/>
</linearGradient>
<linearGradient id="paint6_linear_714_5735" x1="7.01758" y1="16.5719" x2="23.328" y2="16.5719" gradientUnits="userSpaceOnUse">
<stop stop-color="#0E7490"/>
<stop offset="1" stop-color="#139ABF"/>
</linearGradient>
</defs>
</svg>
