<svg width="49" height="48" viewBox="0 0 49 48" fill="none" xmlns="http://www.w3.org/2000/svg">
<g clip-path="url(#clip0_159_3244)">
<path opacity="0.2" d="M30.4664 26.2987C30.2878 26.1898 30.0886 26.119 29.8814 26.0906L25.6026 25.5131C25.2813 25.4696 24.9545 25.5314 24.6712 25.6892C24.3879 25.8471 24.1634 26.0925 24.0314 26.3887L21.4626 32.1524C21.3432 32.4207 21.3052 32.718 21.3532 33.0076C21.4012 33.2973 21.5331 33.5665 21.7326 33.7818L25.4339 37.5937C25.5943 37.7662 25.7119 37.9741 25.777 38.2005C25.8422 38.4269 25.8531 38.6654 25.8089 38.8968L25.2145 41.9793C28.3499 41.8268 31.3909 40.8569 34.0357 39.166C36.6805 37.475 38.837 35.1218 40.2914 32.3399L30.4664 26.2987Z" fill="url(#paint0_linear_159_3244)"/>
<path d="M24.333 42C34.2741 42 42.333 33.9411 42.333 24C42.333 14.0589 34.2741 6 24.333 6C14.3919 6 6.33301 14.0589 6.33301 24C6.33301 33.9411 14.3919 42 24.333 42Z" stroke="url(#paint1_linear_159_3244)" stroke-width="3" stroke-linecap="round" stroke-linejoin="round"/>
<path d="M14.5605 23.1113L17.058 18.75C17.1899 18.5217 17.3796 18.3321 17.608 18.2004C17.8365 18.0688 18.0956 17.9996 18.3593 18H21.4924C21.7457 18.0004 21.9949 17.9359 22.2162 17.8125L24.5205 16.545C24.6219 16.4905 24.7158 16.423 24.7999 16.3444L29.8474 11.7825C30.0986 11.5541 30.2648 11.2473 30.3189 10.9121C30.3731 10.577 30.312 10.2334 30.1455 9.93752L28.1768 6.41064" stroke="url(#paint2_linear_159_3244)" stroke-width="3" stroke-linecap="round" stroke-linejoin="round"/>
<path d="M13.0416 9.98047L10.8329 15.2023C10.6837 15.5558 10.6756 15.9531 10.8104 16.3123L12.9666 22.063C13.0552 22.2979 13.2014 22.5069 13.3917 22.6707C13.5821 22.8345 13.8105 22.9479 14.056 23.0005L18.0741 23.8648C18.297 23.9126 18.506 24.0106 18.6854 24.1513C18.8647 24.292 19.0096 24.4717 19.1091 24.6767L19.8216 26.1523C19.9445 26.4058 20.1363 26.6196 20.3751 26.7692C20.6139 26.9187 20.8899 26.998 21.1716 26.998H23.7591" stroke="url(#paint3_linear_159_3244)" stroke-width="3" stroke-linecap="round" stroke-linejoin="round"/>
<path opacity="0.2" d="M14.5604 23.1113L17.0579 18.75C17.1897 18.5217 17.3794 18.3321 17.6079 18.2004C17.8363 18.0688 18.0954 17.9996 18.3591 18H21.4923C21.7456 18.0004 21.9948 17.9359 22.216 17.8125L24.5204 16.545C24.6218 16.4905 24.7157 16.423 24.7998 16.3444L29.8473 11.7825C30.0984 11.5541 30.2646 11.2473 30.3188 10.9121C30.3729 10.577 30.3118 10.2334 30.1454 9.93752L28.1766 6.41065C26.9137 6.13708 25.6251 5.99942 24.3329 6.00002C20.2242 5.99375 16.238 7.39904 13.0416 9.98065L10.8329 15.2025C10.6837 15.556 10.6756 15.9533 10.8104 16.3125L12.9666 22.0631C13.0552 22.2981 13.2014 22.5071 13.3917 22.6709C13.5821 22.8347 13.8105 22.9481 14.056 23.0006L14.5604 23.1113Z" fill="url(#paint4_linear_159_3244)"/>
<path d="M40.2876 32.3399L30.4664 26.2987C30.2878 26.1898 30.0886 26.119 29.8814 26.0906L25.6026 25.5131C25.2813 25.4696 24.9545 25.5314 24.6712 25.6892C24.3879 25.8471 24.1634 26.0925 24.0314 26.3887L21.4626 32.1524C21.3432 32.4207 21.3052 32.718 21.3532 33.0076C21.4012 33.2973 21.5331 33.5665 21.7326 33.7818L25.4339 37.5937C25.5943 37.7662 25.7119 37.9741 25.777 38.2005C25.8422 38.4269 25.8531 38.6654 25.8089 38.8968L25.2145 41.9793" stroke="url(#paint5_linear_159_3244)" stroke-width="3" stroke-linecap="round" stroke-linejoin="round"/>
</g>
<defs>
<linearGradient id="paint0_linear_159_3244" x1="21.333" y1="33.7394" x2="40.2914" y2="33.7394" gradientUnits="userSpaceOnUse">
<stop stop-color="#EF4444"/>
<stop offset="1" stop-color="#B91C1C"/>
</linearGradient>
<linearGradient id="paint1_linear_159_3244" x1="6.33301" y1="24" x2="42.333" y2="24" gradientUnits="userSpaceOnUse">
<stop stop-color="#EF4444"/>
<stop offset="1" stop-color="#B91C1C"/>
</linearGradient>
<linearGradient id="paint2_linear_159_3244" x1="14.5605" y1="14.761" x2="30.3382" y2="14.761" gradientUnits="userSpaceOnUse">
<stop stop-color="#EF4444"/>
<stop offset="1" stop-color="#B91C1C"/>
</linearGradient>
<linearGradient id="paint3_linear_159_3244" x1="10.7148" y1="18.4892" x2="23.7591" y2="18.4892" gradientUnits="userSpaceOnUse">
<stop stop-color="#EF4444"/>
<stop offset="1" stop-color="#B91C1C"/>
</linearGradient>
<linearGradient id="paint4_linear_159_3244" x1="10.7148" y1="14.5556" x2="30.338" y2="14.5556" gradientUnits="userSpaceOnUse">
<stop stop-color="#EF4444"/>
<stop offset="1" stop-color="#B91C1C"/>
</linearGradient>
<linearGradient id="paint5_linear_159_3244" x1="21.333" y1="33.7394" x2="40.2876" y2="33.7394" gradientUnits="userSpaceOnUse">
<stop stop-color="#EF4444"/>
<stop offset="1" stop-color="#B91C1C"/>
</linearGradient>
<clipPath id="clip0_159_3244">
<rect width="48" height="48" fill="white" transform="translate(0.333008)"/>
</clipPath>
</defs>
</svg>
