<svg width="32" height="32" viewBox="0 0 32 32" fill="none" xmlns="http://www.w3.org/2000/svg">
<g clip-path="url(#clip0_554_5138)">
<path opacity="0.2" d="M12.465 16.0888C12.3382 16.0086 12.2311 15.9009 12.1515 15.7737C12.072 15.6465 12.0221 15.5031 12.0055 15.354C11.989 15.2049 12.0062 15.054 12.0558 14.9124C12.1055 14.7709 12.1864 14.6423 12.2925 14.5363L18 9H22.95L22.915 8.82875L16 7L9.085 8.82875L5 17L12 22L20 24L25 19L20 15C17.625 17.3912 14.6538 17.4875 12.465 16.0888Z" fill="#EEE8A9"/>
<path d="M25 19L20 24L12 22L5 17" stroke="#EEE8A9" stroke-width="2" stroke-linecap="round" stroke-linejoin="round"/>
<path d="M9.08502 8.82875L16 7L22.915 8.82875" stroke="#EEE8A9" stroke-width="2" stroke-linecap="round" stroke-linejoin="round"/>
<path d="M4.29622 7.55236L1.10622 13.9349C0.987667 14.1719 0.968075 14.4463 1.05175 14.6978C1.13543 14.9493 1.31552 15.1573 1.55247 15.2761L4.99997 16.9999L9.08497 8.82861L5.63872 7.10611C5.52128 7.04721 5.39338 7.01204 5.26234 7.00259C5.1313 6.99314 4.99968 7.00961 4.875 7.05105C4.75033 7.09249 4.63504 7.1581 4.53573 7.24412C4.43642 7.33013 4.35503 7.43488 4.29622 7.55236Z" stroke="#EEE8A9" stroke-width="2" stroke-linecap="round" stroke-linejoin="round"/>
<path d="M27 16.9999L30.4475 15.2761C30.6844 15.1573 30.8645 14.9493 30.9482 14.6978C31.0319 14.4463 31.0123 14.1719 30.8937 13.9349L27.7037 7.55236C27.6449 7.43488 27.5635 7.33013 27.4642 7.24412C27.3649 7.1581 27.2496 7.09249 27.1249 7.05105C27.0003 7.00961 26.8687 6.99314 26.7376 7.00259C26.6066 7.01204 26.4787 7.04721 26.3612 7.10611L22.915 8.82861L27 16.9999Z" stroke="#EEE8A9" stroke-width="2" stroke-linecap="round" stroke-linejoin="round"/>
<path d="M23 9H18L12.2925 14.5363C12.1864 14.6423 12.1055 14.7709 12.0559 14.9124C12.0062 15.054 11.989 15.2049 12.0056 15.354C12.0221 15.5031 12.072 15.6465 12.1516 15.7737C12.2311 15.9009 12.3382 16.0086 12.465 16.0888C14.6538 17.4875 17.625 17.3912 20 15L25 19L27 17" stroke="#EEE8A9" stroke-width="2" stroke-linecap="round" stroke-linejoin="round"/>
<path d="M15.5075 27L10.2925 25.6963L7 23.3438" stroke="#EEE8A9" stroke-width="2" stroke-linecap="round" stroke-linejoin="round"/>
</g>
<defs>
<clipPath id="clip0_554_5138">
<rect width="32" height="32" fill="white"/>
</clipPath>
</defs>
</svg>
