<svg width="49" height="48" viewBox="0 0 49 48" fill="none" xmlns="http://www.w3.org/2000/svg">
<g clip-path="url(#clip0_183_1836)">
<path opacity="0.2" d="M24.333 42C24.333 42 4.83301 31.5 4.83301 19.125C4.83301 16.4397 5.89975 13.8643 7.79855 11.9655C9.69736 10.0667 12.2727 9 14.958 9C19.1936 9 22.8218 11.3081 24.333 15V42Z" fill="url(#paint0_linear_183_1836)"/>
<path d="M24.333 42C24.333 42 4.83301 31.5 4.83301 19.125C4.83301 16.4397 5.89975 13.8643 7.79855 11.9655C9.69736 10.0667 12.2727 9 14.958 9C19.1936 9 22.8218 11.3081 24.333 15C25.8443 11.3081 29.4724 9 33.708 9C36.3933 9 38.9687 10.0667 40.8675 11.9655C42.7663 13.8643 43.833 16.4397 43.833 19.125C43.833 31.5 24.333 42 24.333 42Z" stroke="url(#paint1_linear_183_1836)" stroke-width="3" stroke-linecap="round" stroke-linejoin="round"/>
<path d="M24.333 15V42" stroke="url(#paint2_linear_183_1836)" stroke-width="3" stroke-linecap="round" stroke-linejoin="round"/>
</g>
<defs>
<linearGradient id="paint0_linear_183_1836" x1="4.83301" y1="25.5" x2="24.333" y2="25.5" gradientUnits="userSpaceOnUse">
<stop stop-color="#EF4444"/>
<stop offset="1" stop-color="#B91C1C"/>
</linearGradient>
<linearGradient id="paint1_linear_183_1836" x1="4.83301" y1="25.5" x2="43.833" y2="25.5" gradientUnits="userSpaceOnUse">
<stop stop-color="#EF4444"/>
<stop offset="1" stop-color="#B91C1C"/>
</linearGradient>
<linearGradient id="paint2_linear_183_1836" x1="24.333" y1="28.5" x2="25.333" y2="28.5" gradientUnits="userSpaceOnUse">
<stop stop-color="#EF4444"/>
<stop offset="1" stop-color="#B91C1C"/>
</linearGradient>
<clipPath id="clip0_183_1836">
<rect width="48" height="48" fill="white" transform="translate(0.333008)"/>
</clipPath>
</defs>
</svg>
