<svg width="49" height="48" viewBox="0 0 49 48" fill="none" xmlns="http://www.w3.org/2000/svg">
<g clip-path="url(#clip0_240_3023)">
<path opacity="0.2" d="M17.8024 23.0306C17.1576 21.4261 16.8284 19.7123 16.833 17.9831C16.833 10.7494 22.6605 4.73812 29.8905 4.50749C31.7374 4.44593 33.5774 4.76421 35.2963 5.44262C37.0152 6.12104 38.5766 7.14513 39.8836 8.45149C41.1907 9.75785 42.2156 11.3186 42.895 13.0372C43.5743 14.7558 43.8936 16.5955 43.833 18.4425C43.5949 25.6725 37.5836 31.5 30.3499 31.5C28.6207 31.5046 26.9069 31.1754 25.3024 30.5306L22.833 33H18.333V37.5H13.833V42H7.83301C7.43518 42 7.05365 41.842 6.77235 41.5607C6.49104 41.2793 6.33301 40.8978 6.33301 40.5V35.1206C6.33319 34.7233 6.49098 34.3423 6.77176 34.0612L17.8024 23.0306Z" fill="url(#paint0_linear_240_3023)"/>
<path d="M17.8024 23.0306C17.1576 21.4261 16.8284 19.7123 16.833 17.9831C16.833 10.7494 22.6605 4.73812 29.8905 4.50749C31.7374 4.44593 33.5774 4.76421 35.2963 5.44262C37.0152 6.12104 38.5766 7.14513 39.8836 8.45149C41.1907 9.75785 42.2156 11.3186 42.895 13.0372C43.5743 14.7558 43.8936 16.5955 43.833 18.4425C43.5949 25.6725 37.5836 31.5 30.3499 31.5C28.6207 31.5046 26.9069 31.1754 25.3024 30.5306L22.833 33H18.333V37.5H13.833V42H7.83301C7.43518 42 7.05365 41.842 6.77235 41.5607C6.49104 41.2793 6.33301 40.8978 6.33301 40.5V35.1206C6.33319 34.7233 6.49098 34.3423 6.77176 34.0612L17.8024 23.0306Z" stroke="url(#paint1_linear_240_3023)" stroke-width="3" stroke-linecap="round" stroke-linejoin="round"/>
<path d="M34.083 16.5C35.3256 16.5 36.333 15.4926 36.333 14.25C36.333 13.0074 35.3256 12 34.083 12C32.8404 12 31.833 13.0074 31.833 14.25C31.833 15.4926 32.8404 16.5 34.083 16.5Z" fill="url(#paint2_linear_240_3023)"/>
</g>
<defs>
<linearGradient id="paint0_linear_240_3023" x1="6.33301" y1="23.25" x2="43.8403" y2="23.25" gradientUnits="userSpaceOnUse">
<stop stop-color="#EF4444"/>
<stop offset="1" stop-color="#B91C1C"/>
</linearGradient>
<linearGradient id="paint1_linear_240_3023" x1="6.33301" y1="23.25" x2="43.8403" y2="23.25" gradientUnits="userSpaceOnUse">
<stop stop-color="#EF4444"/>
<stop offset="1" stop-color="#B91C1C"/>
</linearGradient>
<linearGradient id="paint2_linear_240_3023" x1="31.833" y1="14.25" x2="36.333" y2="14.25" gradientUnits="userSpaceOnUse">
<stop stop-color="#EF4444"/>
<stop offset="1" stop-color="#B91C1C"/>
</linearGradient>
<clipPath id="clip0_240_3023">
<rect width="48" height="48" fill="white" transform="translate(0.333008)"/>
</clipPath>
</defs>
</svg>
