<svg width="48" height="48" viewBox="0 0 48 48" fill="none" xmlns="http://www.w3.org/2000/svg">
<g clip-path="url(#clip0_183_1792)">
<path opacity="0.2" d="M36.7277 11.2725C40.1031 14.6481 41.9994 19.2263 41.9994 24C41.9994 28.7737 40.1031 33.3518 36.7277 36.7275L29.3027 29.3025C30.7088 27.896 31.4986 25.9887 31.4986 24C31.4986 22.0112 30.7088 20.1039 29.3027 18.6975L36.7277 11.2725Z" fill="url(#paint0_linear_183_1792)"/>
<path opacity="0.2" d="M11.2726 36.7275C7.89724 33.3518 6.00098 28.7737 6.00098 24C6.00098 19.2263 7.89724 14.6481 11.2726 11.2725L18.6976 18.6975C17.2916 20.1039 16.5017 22.0112 16.5017 24C16.5017 25.9887 17.2916 27.896 18.6976 29.3025L11.2726 36.7275Z" fill="url(#paint1_linear_183_1792)"/>
<path d="M24 42C33.9411 42 42 33.9411 42 24C42 14.0589 33.9411 6 24 6C14.0589 6 6 14.0589 6 24C6 33.9411 14.0589 42 24 42Z" stroke="url(#paint2_linear_183_1792)" stroke-width="3" stroke-linecap="round" stroke-linejoin="round"/>
<path d="M24 31.5C28.1421 31.5 31.5 28.1421 31.5 24C31.5 19.8579 28.1421 16.5 24 16.5C19.8579 16.5 16.5 19.8579 16.5 24C16.5 28.1421 19.8579 31.5 24 31.5Z" stroke="url(#paint3_linear_183_1792)" stroke-width="3" stroke-linecap="round" stroke-linejoin="round"/>
<path d="M18.6975 18.6975L11.2725 11.2725" stroke="url(#paint4_linear_183_1792)" stroke-width="3" stroke-linecap="round" stroke-linejoin="round"/>
<path d="M29.3027 18.6975L36.7277 11.2725" stroke="url(#paint5_linear_183_1792)" stroke-width="3" stroke-linecap="round" stroke-linejoin="round"/>
<path d="M29.3027 29.3027L36.7277 36.7277" stroke="url(#paint6_linear_183_1792)" stroke-width="3" stroke-linecap="round" stroke-linejoin="round"/>
<path d="M18.6975 29.3027L11.2725 36.7277" stroke="url(#paint7_linear_183_1792)" stroke-width="3" stroke-linecap="round" stroke-linejoin="round"/>
</g>
<defs>
<linearGradient id="paint0_linear_183_1792" x1="29.3027" y1="24" x2="41.9994" y2="24" gradientUnits="userSpaceOnUse">
<stop stop-color="#EF4444"/>
<stop offset="1" stop-color="#B91C1C"/>
</linearGradient>
<linearGradient id="paint1_linear_183_1792" x1="6.00098" y1="24" x2="18.6976" y2="24" gradientUnits="userSpaceOnUse">
<stop stop-color="#EF4444"/>
<stop offset="1" stop-color="#B91C1C"/>
</linearGradient>
<linearGradient id="paint2_linear_183_1792" x1="6" y1="24" x2="42" y2="24" gradientUnits="userSpaceOnUse">
<stop stop-color="#EF4444"/>
<stop offset="1" stop-color="#B91C1C"/>
</linearGradient>
<linearGradient id="paint3_linear_183_1792" x1="16.5" y1="24" x2="31.5" y2="24" gradientUnits="userSpaceOnUse">
<stop stop-color="#EF4444"/>
<stop offset="1" stop-color="#B91C1C"/>
</linearGradient>
<linearGradient id="paint4_linear_183_1792" x1="11.2725" y1="14.985" x2="18.6975" y2="14.985" gradientUnits="userSpaceOnUse">
<stop stop-color="#EF4444"/>
<stop offset="1" stop-color="#B91C1C"/>
</linearGradient>
<linearGradient id="paint5_linear_183_1792" x1="29.3027" y1="14.985" x2="36.7277" y2="14.985" gradientUnits="userSpaceOnUse">
<stop stop-color="#EF4444"/>
<stop offset="1" stop-color="#B91C1C"/>
</linearGradient>
<linearGradient id="paint6_linear_183_1792" x1="29.3027" y1="33.0152" x2="36.7277" y2="33.0152" gradientUnits="userSpaceOnUse">
<stop stop-color="#EF4444"/>
<stop offset="1" stop-color="#B91C1C"/>
</linearGradient>
<linearGradient id="paint7_linear_183_1792" x1="11.2725" y1="33.0152" x2="18.6975" y2="33.0152" gradientUnits="userSpaceOnUse">
<stop stop-color="#EF4444"/>
<stop offset="1" stop-color="#B91C1C"/>
</linearGradient>
<clipPath id="clip0_183_1792">
<rect width="48" height="48" fill="white"/>
</clipPath>
</defs>
</svg>
