<svg width="49" height="48" viewBox="0 0 49 48" fill="none" xmlns="http://www.w3.org/2000/svg">
<g clip-path="url(#clip0_183_1825)">
<path opacity="0.2" d="M10.8782 37.7887C9.15324 36.0637 10.297 32.4394 9.41949 30.3169C8.50824 28.125 5.16699 26.3438 5.16699 24C5.16699 21.6562 8.50824 19.875 9.41949 17.6831C10.297 15.5625 9.15324 11.9362 10.8782 10.2112C12.6032 8.48625 16.2295 9.63 18.3501 8.7525C20.5514 7.84125 22.3232 4.5 24.667 4.5C27.0107 4.5 28.792 7.84125 30.9839 8.7525C33.1064 9.63 36.7307 8.48625 38.4557 10.2112C40.1807 11.9362 39.037 15.5606 39.9145 17.6831C40.8257 19.8844 44.167 21.6562 44.167 24C44.167 26.3438 40.8257 28.125 39.9145 30.3169C39.037 32.4394 40.1807 36.0637 38.4557 37.7887C36.7307 39.5137 33.1064 38.37 30.9839 39.2475C28.792 40.1588 27.0107 43.5 24.667 43.5C22.3232 43.5 20.542 40.1588 18.3501 39.2475C16.2295 38.37 12.6032 39.5137 10.8782 37.7887Z" fill="url(#paint0_linear_183_1825)"/>
<path d="M10.8782 37.7887C9.15324 36.0637 10.297 32.4394 9.41949 30.3169C8.50824 28.125 5.16699 26.3438 5.16699 24C5.16699 21.6562 8.50824 19.875 9.41949 17.6831C10.297 15.5625 9.15324 11.9362 10.8782 10.2112C12.6032 8.48625 16.2295 9.63 18.3501 8.7525C20.5514 7.84125 22.3232 4.5 24.667 4.5C27.0107 4.5 28.792 7.84125 30.9839 8.7525C33.1064 9.63 36.7307 8.48625 38.4557 10.2112C40.1807 11.9362 39.037 15.5606 39.9145 17.6831C40.8257 19.8844 44.167 21.6562 44.167 24C44.167 26.3438 40.8257 28.125 39.9145 30.3169C39.037 32.4394 40.1807 36.0637 38.4557 37.7887C36.7307 39.5137 33.1064 38.37 30.9839 39.2475C28.792 40.1588 27.0107 43.5 24.667 43.5C22.3232 43.5 20.542 40.1588 18.3501 39.2475C16.2295 38.37 12.6032 39.5137 10.8782 37.7887Z" stroke="url(#paint1_linear_183_1825)" stroke-width="3" stroke-linecap="round" stroke-linejoin="round"/>
<path d="M17.167 25.5L21.667 30L32.167 19.5" stroke="url(#paint2_linear_183_1825)" stroke-width="3" stroke-linecap="round" stroke-linejoin="round"/>
</g>
<defs>
<linearGradient id="paint0_linear_183_1825" x1="5.16699" y1="24" x2="44.167" y2="24" gradientUnits="userSpaceOnUse">
<stop stop-color="#0E7490"/>
<stop offset="1" stop-color="#139ABF"/>
</linearGradient>
<linearGradient id="paint1_linear_183_1825" x1="5.16699" y1="24" x2="44.167" y2="24" gradientUnits="userSpaceOnUse">
<stop stop-color="#0E7490"/>
<stop offset="1" stop-color="#139ABF"/>
</linearGradient>
<linearGradient id="paint2_linear_183_1825" x1="17.167" y1="24.75" x2="32.167" y2="24.75" gradientUnits="userSpaceOnUse">
<stop stop-color="#0E7490"/>
<stop offset="1" stop-color="#139ABF"/>
</linearGradient>
<clipPath id="clip0_183_1825">
<rect width="48" height="48" fill="white" transform="translate(0.666992)"/>
</clipPath>
</defs>
</svg>
