<svg width="48" height="48" viewBox="0 0 48 48" fill="none" xmlns="http://www.w3.org/2000/svg">
<g clip-path="url(#clip0_120_1130)">
<path opacity="0.2" d="M15.8006 32.1994L5.47126 28.3931C5.18644 28.288 4.94069 28.0981 4.76712 27.849C4.59354 27.5999 4.50049 27.3036 4.50049 27C4.50049 26.6964 4.59354 26.4001 4.76712 26.151C4.94069 25.9019 5.18644 25.712 5.47126 25.6069L15.8006 21.8006L19.6069 11.4713C19.712 11.1864 19.9019 10.9407 20.151 10.7671C20.4001 10.5935 20.6964 10.5005 21 10.5005C21.3036 10.5005 21.5999 10.5935 21.849 10.7671C22.0981 10.9407 22.288 11.1864 22.3931 11.4713L26.1994 21.8006L36.5288 25.6069C36.8136 25.712 37.0593 25.9019 37.2329 26.151C37.4065 26.4001 37.4995 26.6964 37.4995 27C37.4995 27.3036 37.4065 27.5999 37.2329 27.849C37.0593 28.0981 36.8136 28.288 36.5288 28.3931L26.1994 32.1994L22.3931 42.5288C22.288 42.8136 22.0981 43.0593 21.849 43.2329C21.5999 43.4065 21.3036 43.4995 21 43.4995C20.6964 43.4995 20.4001 43.4065 20.151 43.2329C19.9019 43.0593 19.712 42.8136 19.6069 42.5288L15.8006 32.1994Z" fill="url(#paint0_linear_120_1130)"/>
<path d="M15.8006 32.1994L5.47126 28.3931C5.18644 28.288 4.94069 28.0981 4.76712 27.849C4.59354 27.5999 4.50049 27.3036 4.50049 27C4.50049 26.6964 4.59354 26.4001 4.76712 26.151C4.94069 25.9019 5.18644 25.712 5.47126 25.6069L15.8006 21.8006L19.6069 11.4713C19.712 11.1864 19.9019 10.9407 20.151 10.7671C20.4001 10.5935 20.6964 10.5005 21 10.5005C21.3036 10.5005 21.5999 10.5935 21.849 10.7671C22.0981 10.9407 22.288 11.1864 22.3931 11.4713L26.1994 21.8006L36.5288 25.6069C36.8136 25.712 37.0593 25.9019 37.2329 26.151C37.4065 26.4001 37.4995 26.6964 37.4995 27C37.4995 27.3036 37.4065 27.5999 37.2329 27.849C37.0593 28.0981 36.8136 28.288 36.5288 28.3931L26.1994 32.1994L22.3931 42.5288C22.288 42.8136 22.0981 43.0593 21.849 43.2329C21.5999 43.4065 21.3036 43.4995 21 43.4995C20.6964 43.4995 20.4001 43.4065 20.151 43.2329C19.9019 43.0593 19.712 42.8136 19.6069 42.5288L15.8006 32.1994Z" stroke="url(#paint1_linear_120_1130)" stroke-width="3" stroke-linecap="round" stroke-linejoin="round"/>
<path d="M33 3V12" stroke="url(#paint2_linear_120_1130)" stroke-width="3" stroke-linecap="round" stroke-linejoin="round"/>
<path d="M42 13.5V19.5" stroke="url(#paint3_linear_120_1130)" stroke-width="3" stroke-linecap="round" stroke-linejoin="round"/>
<path d="M28.5 7.5H37.5" stroke="url(#paint4_linear_120_1130)" stroke-width="3" stroke-linecap="round" stroke-linejoin="round"/>
<path d="M39 16.5H45" stroke="url(#paint5_linear_120_1130)" stroke-width="3" stroke-linecap="round" stroke-linejoin="round"/>
</g>
<defs>
<linearGradient id="paint0_linear_120_1130" x1="4.50049" y1="27" x2="37.4995" y2="27" gradientUnits="userSpaceOnUse">
<stop stop-color="#EF4444"/>
<stop offset="1" stop-color="#B91C1C"/>
</linearGradient>
<linearGradient id="paint1_linear_120_1130" x1="4.50049" y1="27" x2="37.4995" y2="27" gradientUnits="userSpaceOnUse">
<stop stop-color="#EF4444"/>
<stop offset="1" stop-color="#B91C1C"/>
</linearGradient>
<linearGradient id="paint2_linear_120_1130" x1="33" y1="7.5" x2="34" y2="7.5" gradientUnits="userSpaceOnUse">
<stop stop-color="#EF4444"/>
<stop offset="1" stop-color="#B91C1C"/>
</linearGradient>
<linearGradient id="paint3_linear_120_1130" x1="42" y1="16.5" x2="43" y2="16.5" gradientUnits="userSpaceOnUse">
<stop stop-color="#EF4444"/>
<stop offset="1" stop-color="#B91C1C"/>
</linearGradient>
<linearGradient id="paint4_linear_120_1130" x1="28.5" y1="8" x2="37.5" y2="8" gradientUnits="userSpaceOnUse">
<stop stop-color="#EF4444"/>
<stop offset="1" stop-color="#B91C1C"/>
</linearGradient>
<linearGradient id="paint5_linear_120_1130" x1="39" y1="17" x2="45" y2="17" gradientUnits="userSpaceOnUse">
<stop stop-color="#EF4444"/>
<stop offset="1" stop-color="#B91C1C"/>
</linearGradient>
<clipPath id="clip0_120_1130">
<rect width="48" height="48" fill="white"/>
</clipPath>
</defs>
</svg>
