<svg width="32" height="32" viewBox="0 0 32 32" fill="none" xmlns="http://www.w3.org/2000/svg">
<g clip-path="url(#clip0_182_1903)">
<path opacity="0.2" d="M3.73671 23.3238C3.23689 21.9025 2.98777 20.4053 3.00046 18.8988C3.05546 11.75 8.96671 5.93628 16.1255 6.00003C18.1937 6.02169 20.2269 6.53611 22.0566 7.50063C23.8863 8.46514 25.4597 9.85195 26.6463 11.5461C27.8329 13.2402 28.5985 15.1928 28.8797 17.2419C29.1608 19.291 28.9494 21.3777 28.263 23.3288C28.1946 23.5252 28.0667 23.6953 27.8971 23.8157C27.7275 23.936 27.5246 24.0004 27.3167 24H4.68296C4.47464 23.9991 4.27173 23.9336 4.10224 23.8125C3.93275 23.6913 3.80503 23.5206 3.73671 23.3238Z" fill="url(#paint0_linear_182_1903)"/>
<path d="M15 20L27 8" stroke="url(#paint1_linear_182_1903)" stroke-width="2" stroke-linecap="round" stroke-linejoin="round"/>
<path d="M7.055 19.9999C7.01837 19.6678 7.00001 19.334 7 18.9999C7.00121 17.5716 7.34207 16.164 7.99444 14.8934C8.64681 13.6228 9.59199 12.5255 10.752 11.6921C11.912 10.8588 13.2535 10.3132 14.6659 10.1005C16.0783 9.88774 17.521 10.0139 18.875 10.4686" stroke="url(#paint2_linear_182_1903)" stroke-width="2" stroke-linecap="round" stroke-linejoin="round"/>
<path d="M27.578 13.08C28.3798 14.6533 28.854 16.3729 28.9717 18.1348C29.0894 19.8966 28.8483 21.6641 28.263 23.33C28.1946 23.5264 28.0667 23.6966 27.8971 23.8169C27.7275 23.9372 27.5247 24.0017 27.3167 24.0013H4.68297C4.47465 24.0004 4.27174 23.9348 4.10225 23.8137C3.93276 23.6926 3.80504 23.5218 3.73672 23.325C3.23676 21.9034 2.98763 20.4057 3.00047 18.8988C3.05547 11.75 8.96672 5.93628 16.1255 6.00003C18.1432 6.01622 20.1292 6.50332 21.9255 7.42253" stroke="url(#paint3_linear_182_1903)" stroke-width="2" stroke-linecap="round" stroke-linejoin="round"/>
</g>
<defs>
<linearGradient id="paint0_linear_182_1903" x1="3" y1="14.9998" x2="29.0004" y2="14.9998" gradientUnits="userSpaceOnUse">
<stop stop-color="#EF4444"/>
<stop offset="1" stop-color="#B91C1C"/>
</linearGradient>
<linearGradient id="paint1_linear_182_1903" x1="15" y1="14" x2="27" y2="14" gradientUnits="userSpaceOnUse">
<stop stop-color="#EF4444"/>
<stop offset="1" stop-color="#B91C1C"/>
</linearGradient>
<linearGradient id="paint2_linear_182_1903" x1="7" y1="14.9999" x2="18.875" y2="14.9999" gradientUnits="userSpaceOnUse">
<stop stop-color="#EF4444"/>
<stop offset="1" stop-color="#B91C1C"/>
</linearGradient>
<linearGradient id="paint3_linear_182_1903" x1="3" y1="15.0004" x2="29.0007" y2="15.0004" gradientUnits="userSpaceOnUse">
<stop stop-color="#EF4444"/>
<stop offset="1" stop-color="#B91C1C"/>
</linearGradient>
<clipPath id="clip0_182_1903">
<rect width="32" height="32" fill="white"/>
</clipPath>
</defs>
</svg>
