<svg width="48" height="48" viewBox="0 0 48 48" fill="none" xmlns="http://www.w3.org/2000/svg">
<g clip-path="url(#clip0_183_1737)">
<path opacity="0.2" d="M12.6523 30H35.3473L31.1736 18H16.8261L12.6523 30Z" fill="url(#paint0_linear_183_1737)"/>
<path d="M9 40.5L20.6494 7.00688C20.7518 6.71261 20.9433 6.45755 21.1974 6.27711C21.4514 6.09667 21.7553 5.99982 22.0669 6H25.9331C26.2447 5.99982 26.5486 6.09667 26.8026 6.27711C27.0567 6.45755 27.2482 6.71261 27.3506 7.00688L39 40.5" stroke="url(#paint1_linear_183_1737)" stroke-width="3" stroke-linecap="round" stroke-linejoin="round"/>
<path d="M43.5 40.5H4.5" stroke="url(#paint2_linear_183_1737)" stroke-width="3" stroke-linecap="round" stroke-linejoin="round"/>
<path d="M31.1737 18H16.8262" stroke="url(#paint3_linear_183_1737)" stroke-width="3" stroke-linecap="round" stroke-linejoin="round"/>
<path d="M35.3473 30H12.6523" stroke="url(#paint4_linear_183_1737)" stroke-width="3" stroke-linecap="round" stroke-linejoin="round"/>
</g>
<defs>
<linearGradient id="paint0_linear_183_1737" x1="12.6523" y1="24" x2="35.3473" y2="24" gradientUnits="userSpaceOnUse">
<stop stop-color="#EF4444"/>
<stop offset="1" stop-color="#B91C1C"/>
</linearGradient>
<linearGradient id="paint1_linear_183_1737" x1="9" y1="23.25" x2="39" y2="23.25" gradientUnits="userSpaceOnUse">
<stop stop-color="#EF4444"/>
<stop offset="1" stop-color="#B91C1C"/>
</linearGradient>
<linearGradient id="paint2_linear_183_1737" x1="4.5" y1="41" x2="43.5" y2="41" gradientUnits="userSpaceOnUse">
<stop stop-color="#EF4444"/>
<stop offset="1" stop-color="#B91C1C"/>
</linearGradient>
<linearGradient id="paint3_linear_183_1737" x1="16.8262" y1="18.5" x2="31.1737" y2="18.5" gradientUnits="userSpaceOnUse">
<stop stop-color="#EF4444"/>
<stop offset="1" stop-color="#B91C1C"/>
</linearGradient>
<linearGradient id="paint4_linear_183_1737" x1="12.6523" y1="30.5" x2="35.3473" y2="30.5" gradientUnits="userSpaceOnUse">
<stop stop-color="#EF4444"/>
<stop offset="1" stop-color="#B91C1C"/>
</linearGradient>
<clipPath id="clip0_183_1737">
<rect width="48" height="48" fill="white"/>
</clipPath>
</defs>
</svg>
