<svg width="32" height="32" viewBox="0 0 32 32" fill="none" xmlns="http://www.w3.org/2000/svg">
<g clip-path="url(#clip0_183_3423)">
<path opacity="0.2" d="M16 22.2426C17.4734 23.425 19.3191 24.0453 21.2075 23.9926C25.4488 23.8851 29.0113 20.2151 29 15.9726C28.9955 14.3799 28.5157 12.8249 27.622 11.5065C26.7284 10.1882 25.4615 9.16661 23.9838 8.5726C23.3857 6.93588 22.2991 5.52251 20.8711 4.52391C19.443 3.52531 17.7426 2.98975 16 2.98975C14.2575 2.98975 12.557 3.52531 11.129 4.52391C9.70093 5.52251 8.61431 6.93588 8.01628 8.5726C6.53773 9.16693 5.27036 10.1893 4.37664 11.5086C3.48292 12.8279 3.00356 14.3841 3.00003 15.9776C2.98878 20.2201 6.55253 23.8901 10.7938 23.9976C12.6824 24.0487 14.5277 23.4267 16 22.2426Z" fill="url(#paint0_linear_183_3423)"/>
<path d="M16 29V11" stroke="url(#paint1_linear_183_3423)" stroke-width="2" stroke-linecap="round" stroke-linejoin="round"/>
<path d="M16 19L10 16" stroke="url(#paint2_linear_183_3423)" stroke-width="2" stroke-linecap="round" stroke-linejoin="round"/>
<path d="M16 16L22 13" stroke="url(#paint3_linear_183_3423)" stroke-width="2" stroke-linecap="round" stroke-linejoin="round"/>
<path d="M16 22.2426C17.4734 23.425 19.3191 24.0453 21.2075 23.9926C25.4488 23.8851 29.0113 20.2151 29 15.9726C28.9955 14.3799 28.5157 12.8249 27.622 11.5065C26.7284 10.1882 25.4615 9.16661 23.9838 8.5726C23.3857 6.93588 22.2991 5.52251 20.8711 4.52391C19.443 3.52531 17.7426 2.98975 16 2.98975C14.2575 2.98975 12.557 3.52531 11.129 4.52391C9.70093 5.52251 8.61431 6.93588 8.01628 8.5726C6.53773 9.16693 5.27036 10.1893 4.37664 11.5086C3.48292 12.8279 3.00356 14.3841 3.00003 15.9776C2.98878 20.2201 6.55253 23.8901 10.7938 23.9976C12.6824 24.0487 14.5277 23.4267 16 22.2426Z" stroke="url(#paint4_linear_183_3423)" stroke-width="2" stroke-linecap="round" stroke-linejoin="round"/>
</g>
<defs>
<linearGradient id="paint0_linear_183_3423" x1="3" y1="13.4951" x2="29.0001" y2="13.4951" gradientUnits="userSpaceOnUse">
<stop stop-color="#EF4444"/>
<stop offset="1" stop-color="#B91C1C"/>
</linearGradient>
<linearGradient id="paint1_linear_183_3423" x1="16" y1="20" x2="17" y2="20" gradientUnits="userSpaceOnUse">
<stop stop-color="#EF4444"/>
<stop offset="1" stop-color="#B91C1C"/>
</linearGradient>
<linearGradient id="paint2_linear_183_3423" x1="10" y1="17.5" x2="16" y2="17.5" gradientUnits="userSpaceOnUse">
<stop stop-color="#EF4444"/>
<stop offset="1" stop-color="#B91C1C"/>
</linearGradient>
<linearGradient id="paint3_linear_183_3423" x1="16" y1="14.5" x2="22" y2="14.5" gradientUnits="userSpaceOnUse">
<stop stop-color="#EF4444"/>
<stop offset="1" stop-color="#B91C1C"/>
</linearGradient>
<linearGradient id="paint4_linear_183_3423" x1="3" y1="13.4951" x2="29.0001" y2="13.4951" gradientUnits="userSpaceOnUse">
<stop stop-color="#EF4444"/>
<stop offset="1" stop-color="#B91C1C"/>
</linearGradient>
<clipPath id="clip0_183_3423">
<rect width="32" height="32" fill="white"/>
</clipPath>
</defs>
</svg>
