<svg width="48" height="48" viewBox="0 0 48 48" fill="none" xmlns="http://www.w3.org/2000/svg">
<g clip-path="url(#clip0_120_1167)">
<path opacity="0.2" d="M24 34.5C28.1421 34.5 31.5 31.1421 31.5 27C31.5 22.8579 28.1421 19.5 24 19.5C19.8579 19.5 16.5 22.8579 16.5 27C16.5 31.1421 19.8579 34.5 24 34.5Z" fill="url(#paint0_linear_120_1167)"/>
<path opacity="0.2" d="M12 22.5C15.3137 22.5 18 19.8137 18 16.5C18 13.1863 15.3137 10.5 12 10.5C8.68629 10.5 6 13.1863 6 16.5C6 19.8137 8.68629 22.5 12 22.5Z" fill="url(#paint1_linear_120_1167)"/>
<path opacity="0.2" d="M36 22.5C39.3137 22.5 42 19.8137 42 16.5C42 13.1863 39.3137 10.5 36 10.5C32.6863 10.5 30 13.1863 30 16.5C30 19.8137 32.6863 22.5 36 22.5Z" fill="url(#paint2_linear_120_1167)"/>
<path d="M36 22.5C37.7467 22.4987 39.4697 22.9047 41.032 23.6859C42.5944 24.4671 43.953 25.6018 45 27" stroke="url(#paint3_linear_120_1167)" stroke-width="3" stroke-linecap="round" stroke-linejoin="round"/>
<path d="M3 27C4.04699 25.6018 5.40562 24.4671 6.96795 23.6859C8.53029 22.9047 10.2533 22.4987 12 22.5" stroke="url(#paint4_linear_120_1167)" stroke-width="3" stroke-linecap="round" stroke-linejoin="round"/>
<path d="M24 34.5C28.1421 34.5 31.5 31.1421 31.5 27C31.5 22.8579 28.1421 19.5 24 19.5C19.8579 19.5 16.5 22.8579 16.5 27C16.5 31.1421 19.8579 34.5 24 34.5Z" stroke="url(#paint5_linear_120_1167)" stroke-width="3" stroke-linecap="round" stroke-linejoin="round"/>
<path d="M13.5 40.5C14.5768 38.6727 16.1118 37.1581 17.9533 36.1058C19.7948 35.0535 21.879 34.5 24 34.5C26.121 34.5 28.2052 35.0535 30.0467 36.1058C31.8882 37.1581 33.4232 38.6727 34.5 40.5" stroke="url(#paint6_linear_120_1167)" stroke-width="3" stroke-linecap="round" stroke-linejoin="round"/>
<path d="M30.1875 15C30.468 13.9136 31.0476 12.9275 31.8603 12.1539C32.6731 11.3803 33.6865 10.8502 34.7855 10.6236C35.8844 10.397 37.0249 10.4832 38.0774 10.8722C39.1298 11.2613 40.0521 11.9377 40.7395 12.8246C41.4268 13.7115 41.8517 14.7734 41.9658 15.8896C42.08 17.0059 41.8789 18.1317 41.3852 19.1394C40.8916 20.1471 40.1254 20.9962 39.1734 21.5902C38.2215 22.1842 37.1221 22.4994 36 22.5" stroke="url(#paint7_linear_120_1167)" stroke-width="3" stroke-linecap="round" stroke-linejoin="round"/>
<path d="M11.9999 22.5C10.8778 22.4994 9.7784 22.1842 8.82647 21.5902C7.87454 20.9962 7.10827 20.1471 6.61466 19.1394C6.12106 18.1317 5.91991 17.0059 6.03406 15.8896C6.14821 14.7734 6.57309 13.7115 7.26044 12.8246C7.94779 11.9377 8.87007 11.2613 9.92254 10.8722C10.975 10.4832 12.1155 10.397 13.2144 10.6236C14.3134 10.8502 15.3268 11.3803 16.1396 12.1539C16.9523 12.9275 17.5319 13.9136 17.8124 15" stroke="url(#paint8_linear_120_1167)" stroke-width="3" stroke-linecap="round" stroke-linejoin="round"/>
</g>
<defs>
<linearGradient id="paint0_linear_120_1167" x1="16.5" y1="27" x2="31.5" y2="27" gradientUnits="userSpaceOnUse">
<stop stop-color="#0E7490"/>
<stop offset="1" stop-color="#139ABF"/>
</linearGradient>
<linearGradient id="paint1_linear_120_1167" x1="6" y1="16.5" x2="18" y2="16.5" gradientUnits="userSpaceOnUse">
<stop stop-color="#0E7490"/>
<stop offset="1" stop-color="#139ABF"/>
</linearGradient>
<linearGradient id="paint2_linear_120_1167" x1="30" y1="16.5" x2="42" y2="16.5" gradientUnits="userSpaceOnUse">
<stop stop-color="#0E7490"/>
<stop offset="1" stop-color="#139ABF"/>
</linearGradient>
<linearGradient id="paint3_linear_120_1167" x1="36" y1="24.75" x2="45" y2="24.75" gradientUnits="userSpaceOnUse">
<stop stop-color="#0E7490"/>
<stop offset="1" stop-color="#139ABF"/>
</linearGradient>
<linearGradient id="paint4_linear_120_1167" x1="3" y1="24.75" x2="12" y2="24.75" gradientUnits="userSpaceOnUse">
<stop stop-color="#0E7490"/>
<stop offset="1" stop-color="#139ABF"/>
</linearGradient>
<linearGradient id="paint5_linear_120_1167" x1="16.5" y1="27" x2="31.5" y2="27" gradientUnits="userSpaceOnUse">
<stop stop-color="#0E7490"/>
<stop offset="1" stop-color="#139ABF"/>
</linearGradient>
<linearGradient id="paint6_linear_120_1167" x1="13.5" y1="37.5" x2="34.5" y2="37.5" gradientUnits="userSpaceOnUse">
<stop stop-color="#0E7490"/>
<stop offset="1" stop-color="#139ABF"/>
</linearGradient>
<linearGradient id="paint7_linear_120_1167" x1="30.1875" y1="16.5" x2="41.997" y2="16.5" gradientUnits="userSpaceOnUse">
<stop stop-color="#0E7490"/>
<stop offset="1" stop-color="#139ABF"/>
</linearGradient>
<linearGradient id="paint8_linear_120_1167" x1="6.00293" y1="16.5" x2="17.8124" y2="16.5" gradientUnits="userSpaceOnUse">
<stop stop-color="#0E7490"/>
<stop offset="1" stop-color="#139ABF"/>
</linearGradient>
<clipPath id="clip0_120_1167">
<rect width="48" height="48" fill="white"/>
</clipPath>
</defs>
</svg>
