<svg width="48" height="48" viewBox="0 0 48 48" fill="none" xmlns="http://www.w3.org/2000/svg">
<g clip-path="url(#clip0_159_3298)">
<path opacity="0.2" d="M15.75 30C21.1348 30 25.5 25.6348 25.5 20.25C25.5 14.8652 21.1348 10.5 15.75 10.5C10.3652 10.5 6 14.8652 6 20.25C6 25.6348 10.3652 30 15.75 30Z" fill="url(#paint0_linear_159_3298)"/>
<path d="M1.91797 37.5C3.41626 35.1963 5.46621 33.3033 7.88172 31.9929C10.2972 30.6825 13.0018 29.9961 15.7498 29.9961C18.4979 29.9961 21.2025 30.6825 23.618 31.9929C26.0335 33.3033 28.0834 35.1963 29.5817 37.5" stroke="url(#paint1_linear_159_3298)" stroke-width="3" stroke-linecap="round" stroke-linejoin="round"/>
<path d="M32.25 30C34.9979 29.9984 37.7027 30.6837 40.1184 31.9935C42.534 33.3033 44.584 35.1962 46.0819 37.5" stroke="url(#paint2_linear_159_3298)" stroke-width="3" stroke-linecap="round" stroke-linejoin="round"/>
<path d="M15.75 30C21.1348 30 25.5 25.6348 25.5 20.25C25.5 14.8652 21.1348 10.5 15.75 10.5C10.3652 10.5 6 14.8652 6 20.25C6 25.6348 10.3652 30 15.75 30Z" stroke="url(#paint3_linear_159_3298)" stroke-width="3" stroke-linecap="round" stroke-linejoin="round"/>
<path d="M28.6289 11.1937C29.9626 10.6618 31.3974 10.431 32.8306 10.5179C34.2639 10.6047 35.6603 11.007 36.92 11.6961C38.1797 12.3852 39.2717 13.344 40.1179 14.5041C40.9641 15.6641 41.5437 16.9968 41.8151 18.4068C42.0866 19.8167 42.0432 21.2693 41.6882 22.6606C41.3332 24.0519 40.6753 25.3476 39.7615 26.4552C38.8476 27.5627 37.7004 28.4548 36.4019 29.0675C35.1033 29.6803 33.6854 29.9987 32.2495 30" stroke="url(#paint4_linear_159_3298)" stroke-width="3" stroke-linecap="round" stroke-linejoin="round"/>
</g>
<defs>
<linearGradient id="paint0_linear_159_3298" x1="6" y1="20.25" x2="25.5" y2="20.25" gradientUnits="userSpaceOnUse">
<stop stop-color="#EF4444"/>
<stop offset="1" stop-color="#B91C1C"/>
</linearGradient>
<linearGradient id="paint1_linear_159_3298" x1="1.91797" y1="33.7481" x2="29.5817" y2="33.7481" gradientUnits="userSpaceOnUse">
<stop stop-color="#EF4444"/>
<stop offset="1" stop-color="#B91C1C"/>
</linearGradient>
<linearGradient id="paint2_linear_159_3298" x1="32.25" y1="33.75" x2="46.0819" y2="33.75" gradientUnits="userSpaceOnUse">
<stop stop-color="#EF4444"/>
<stop offset="1" stop-color="#B91C1C"/>
</linearGradient>
<linearGradient id="paint3_linear_159_3298" x1="6" y1="20.25" x2="25.5" y2="20.25" gradientUnits="userSpaceOnUse">
<stop stop-color="#EF4444"/>
<stop offset="1" stop-color="#B91C1C"/>
</linearGradient>
<linearGradient id="paint4_linear_159_3298" x1="28.6289" y1="20.25" x2="41.9909" y2="20.25" gradientUnits="userSpaceOnUse">
<stop stop-color="#EF4444"/>
<stop offset="1" stop-color="#B91C1C"/>
</linearGradient>
<clipPath id="clip0_159_3298">
<rect width="48" height="48" fill="white"/>
</clipPath>
</defs>
</svg>
