<svg width="100" height="101" viewBox="0 0 100 101" fill="none" xmlns="http://www.w3.org/2000/svg">
<g clip-path="url(#clip0_20_150)">
<path opacity="0.2" d="M50 72.375C58.6294 72.375 65.625 65.3794 65.625 56.75C65.625 48.1206 58.6294 41.125 50 41.125C41.3706 41.125 34.375 48.1206 34.375 56.75C34.375 65.3794 41.3706 72.375 50 72.375Z" fill="#E7FDFF"/>
<path opacity="0.2" d="M25 47.375C31.9036 47.375 37.5 41.7786 37.5 34.875C37.5 27.9714 31.9036 22.375 25 22.375C18.0964 22.375 12.5 27.9714 12.5 34.875C12.5 41.7786 18.0964 47.375 25 47.375Z" fill="#E7FDFF"/>
<path opacity="0.2" d="M75 47.375C81.9036 47.375 87.5 41.7786 87.5 34.875C87.5 27.9714 81.9036 22.375 75 22.375C68.0964 22.375 62.5 27.9714 62.5 34.875C62.5 41.7786 68.0964 47.375 75 47.375Z" fill="#E7FDFF"/>
<path d="M75 47.375C78.639 47.3723 82.2286 48.2182 85.4834 49.8457C88.7383 51.4731 91.5688 53.8371 93.75 56.75" stroke="#E7FDFF" stroke-width="4" stroke-linecap="round" stroke-linejoin="round"/>
<path d="M6.25 56.75C8.43124 53.8371 11.2617 51.4731 14.5166 49.8457C17.7714 48.2182 21.361 47.3723 25 47.375" stroke="#E7FDFF" stroke-width="4" stroke-linecap="round" stroke-linejoin="round"/>
<path d="M50 72.375C58.6294 72.375 65.625 65.3794 65.625 56.75C65.625 48.1206 58.6294 41.125 50 41.125C41.3706 41.125 34.375 48.1206 34.375 56.75C34.375 65.3794 41.3706 72.375 50 72.375Z" stroke="#E7FDFF" stroke-width="4" stroke-linecap="round" stroke-linejoin="round"/>
<path d="M28.125 84.875C30.3683 81.0682 33.5663 77.9127 37.4027 75.7204C41.2392 73.5281 45.5813 72.375 50 72.375C54.4187 72.375 58.7608 73.5281 62.5973 75.7204C66.4337 77.9127 69.6317 81.0682 71.875 84.875" stroke="#E7FDFF" stroke-width="4" stroke-linecap="round" stroke-linejoin="round"/>
<path d="M62.8906 31.75C63.475 29.4866 64.6824 27.4324 66.3757 25.8207C68.069 24.209 70.1802 23.1045 72.4697 22.6325C74.7592 22.1605 77.1352 22.3399 79.3279 23.1505C81.5205 23.961 83.4419 25.3701 84.8739 27.2179C86.3059 29.0656 87.191 31.2778 87.4288 33.6033C87.6667 35.9289 87.2476 38.2745 86.2193 40.3738C85.1909 42.4731 83.5945 44.242 81.6113 45.4796C79.6281 46.7172 77.3377 47.3738 75 47.375" stroke="#E7FDFF" stroke-width="4" stroke-linecap="round" stroke-linejoin="round"/>
<path d="M25 47.375C22.6623 47.3738 20.3719 46.7172 18.3887 45.4796C16.4055 44.242 14.8091 42.4731 13.7807 40.3738C12.7524 38.2745 12.3333 35.9289 12.5711 33.6033C12.809 31.2778 13.6941 29.0656 15.1261 27.2179C16.5581 25.3701 18.4795 23.961 20.6721 23.1505C22.8648 22.3399 25.2408 22.1605 27.5303 22.6325C29.8198 23.1045 31.931 24.209 33.6243 25.8207C35.3176 27.4324 36.525 29.4866 37.1094 31.75" stroke="#E7FDFF" stroke-width="4" stroke-linecap="round" stroke-linejoin="round"/>
</g>
<defs>
<clipPath id="clip0_20_150">
<rect width="100" height="100" fill="white" transform="translate(0 0.5)"/>
</clipPath>
</defs>
</svg>
