<svg width="32" height="32" viewBox="0 0 32 32" fill="none" xmlns="http://www.w3.org/2000/svg">
<g clip-path="url(#clip0_90_2709)">
<path opacity="0.2" d="M26 16V25C26 25.2652 25.8946 25.5196 25.7071 25.7071C25.5196 25.8946 25.2652 26 25 26H7C6.73478 26 6.48043 25.8946 6.29289 25.7071C6.10536 25.5196 6 25.2652 6 25V16H26Z" fill="url(#paint0_linear_90_2709)"/>
<path d="M27 10H5C4.44772 10 4 10.4477 4 11V15C4 15.5523 4.44772 16 5 16H27C27.5523 16 28 15.5523 28 15V11C28 10.4477 27.5523 10 27 10Z" stroke="url(#paint1_linear_90_2709)" stroke-width="2" stroke-linecap="round" stroke-linejoin="round"/>
<path d="M26 16V25C26 25.2652 25.8946 25.5196 25.7071 25.7071C25.5196 25.8946 25.2652 26 25 26H7C6.73478 26 6.48043 25.8946 6.29289 25.7071C6.10536 25.5196 6 25.2652 6 25V16" stroke="url(#paint2_linear_90_2709)" stroke-width="2" stroke-linecap="round" stroke-linejoin="round"/>
<path d="M16 10V26" stroke="url(#paint3_linear_90_2709)" stroke-width="2" stroke-linecap="round" stroke-linejoin="round"/>
<path d="M22.0987 3.90122C23.2662 5.06872 23.335 7.03372 22.0987 8.12872C19.985 9.99997 16 9.99997 16 9.99997C16 9.99997 16 6.01497 17.875 3.90122C18.9662 2.66497 20.9312 2.73372 22.0987 3.90122Z" stroke="url(#paint4_linear_90_2709)" stroke-width="2" stroke-linecap="round" stroke-linejoin="round"/>
<path d="M9.90135 3.90122C8.73385 5.06872 8.6651 7.03372 9.90135 8.12872C12.0151 9.99997 16.0001 9.99997 16.0001 9.99997C16.0001 9.99997 16.0001 6.01497 14.1251 3.90122C13.0338 2.66497 11.0688 2.73372 9.90135 3.90122Z" stroke="url(#paint5_linear_90_2709)" stroke-width="2" stroke-linecap="round" stroke-linejoin="round"/>
</g>
<defs>
<linearGradient id="paint0_linear_90_2709" x1="6" y1="21" x2="26" y2="21" gradientUnits="userSpaceOnUse">
<stop stop-color="#0E7490"/>
<stop offset="1" stop-color="#139ABF"/>
</linearGradient>
<linearGradient id="paint1_linear_90_2709" x1="4" y1="13" x2="28" y2="13" gradientUnits="userSpaceOnUse">
<stop stop-color="#0E7490"/>
<stop offset="1" stop-color="#139ABF"/>
</linearGradient>
<linearGradient id="paint2_linear_90_2709" x1="6" y1="21" x2="26" y2="21" gradientUnits="userSpaceOnUse">
<stop stop-color="#0E7490"/>
<stop offset="1" stop-color="#139ABF"/>
</linearGradient>
<linearGradient id="paint3_linear_90_2709" x1="16" y1="18" x2="17" y2="18" gradientUnits="userSpaceOnUse">
<stop stop-color="#0E7490"/>
<stop offset="1" stop-color="#139ABF"/>
</linearGradient>
<linearGradient id="paint4_linear_90_2709" x1="16" y1="6.4998" x2="23.0003" y2="6.4998" gradientUnits="userSpaceOnUse">
<stop stop-color="#0E7490"/>
<stop offset="1" stop-color="#139ABF"/>
</linearGradient>
<linearGradient id="paint5_linear_90_2709" x1="8.99976" y1="6.4998" x2="16.0001" y2="6.4998" gradientUnits="userSpaceOnUse">
<stop stop-color="#0E7490"/>
<stop offset="1" stop-color="#139ABF"/>
</linearGradient>
<clipPath id="clip0_90_2709">
<rect width="32" height="32" fill="white"/>
</clipPath>
</defs>
</svg>
