<svg width="32" height="32" viewBox="0 0 32 32" fill="none" xmlns="http://www.w3.org/2000/svg">
<g clip-path="url(#clip0_159_3169)">
<path opacity="0.2" d="M6.58594 21.0002L11.2922 25.7077C11.3851 25.8007 11.4953 25.8744 11.6167 25.9247C11.7381 25.9751 11.8683 26.001 11.9997 26.001C12.1311 26.001 12.2612 25.9751 12.3826 25.9247C12.504 25.8744 12.6143 25.8007 12.7072 25.7077L27.7072 10.7077C27.8002 10.6148 27.8739 10.5045 27.9242 10.3831C27.9746 10.2617 28.0005 10.1316 28.0005 10.0002C28.0005 9.86876 27.9746 9.73863 27.9242 9.61724C27.8739 9.49584 27.8002 9.38555 27.7072 9.29268L22.9997 4.58643L6.58594 21.0002Z" fill="url(#paint0_linear_159_3169)"/>
<path d="M31 18V24" stroke="url(#paint1_linear_159_3169)" stroke-width="2" stroke-linecap="round" stroke-linejoin="round"/>
<path d="M22.9997 4.58643L6.58594 21.0002" stroke="url(#paint2_linear_159_3169)" stroke-width="2" stroke-linecap="round" stroke-linejoin="round"/>
<path d="M1.07368 20.5736C1.03893 20.6085 1.01528 20.653 1.00572 20.7013C0.996163 20.7497 1.00111 20.7998 1.01995 20.8453C1.03878 20.8909 1.07066 20.9299 1.11158 20.9573C1.1525 20.9848 1.20063 20.9996 1.24993 20.9998H6.58618L11.2924 25.7073C11.3853 25.8003 11.4956 25.874 11.617 25.9244C11.7384 25.9747 11.8685 26.0006 11.9999 26.0006C12.1313 26.0006 12.2615 25.9747 12.3829 25.9244C12.5043 25.874 12.6146 25.8003 12.7074 25.7073L27.7074 10.7073C27.8004 10.6144 27.8742 10.5041 27.9245 10.3828C27.9748 10.2614 28.0007 10.1312 28.0007 9.99981C28.0007 9.86839 27.9748 9.73827 27.9245 9.61687C27.8742 9.49547 27.8004 9.38518 27.7074 9.29231L20.7074 2.29231C20.6146 2.19933 20.5043 2.12557 20.3829 2.07525C20.2615 2.02493 20.1313 1.99902 19.9999 1.99902C19.8685 1.99902 19.7384 2.02493 19.617 2.07525C19.4956 2.12557 19.3853 2.19933 19.2924 2.29231L1.07368 20.5736Z" stroke="url(#paint3_linear_159_3169)" stroke-width="2" stroke-linecap="round" stroke-linejoin="round"/>
<path d="M20.707 17.7075L23.707 20.7075C23.8944 20.8947 24.1484 20.9999 24.4133 21H30.9995" stroke="url(#paint4_linear_159_3169)" stroke-width="2" stroke-linecap="round" stroke-linejoin="round"/>
</g>
<defs>
<linearGradient id="paint0_linear_159_3169" x1="6.58594" y1="15.2937" x2="28.0005" y2="15.2937" gradientUnits="userSpaceOnUse">
<stop stop-color="#0E7490"/>
<stop offset="1" stop-color="#139ABF"/>
</linearGradient>
<linearGradient id="paint1_linear_159_3169" x1="31" y1="21" x2="32" y2="21" gradientUnits="userSpaceOnUse">
<stop stop-color="#0E7490"/>
<stop offset="1" stop-color="#139ABF"/>
</linearGradient>
<linearGradient id="paint2_linear_159_3169" x1="6.58594" y1="12.7933" x2="22.9997" y2="12.7933" gradientUnits="userSpaceOnUse">
<stop stop-color="#0E7490"/>
<stop offset="1" stop-color="#139ABF"/>
</linearGradient>
<linearGradient id="paint3_linear_159_3169" x1="1.00098" y1="13.9998" x2="28.0007" y2="13.9998" gradientUnits="userSpaceOnUse">
<stop stop-color="#0E7490"/>
<stop offset="1" stop-color="#139ABF"/>
</linearGradient>
<linearGradient id="paint4_linear_159_3169" x1="20.707" y1="19.3538" x2="30.9995" y2="19.3538" gradientUnits="userSpaceOnUse">
<stop stop-color="#0E7490"/>
<stop offset="1" stop-color="#139ABF"/>
</linearGradient>
<clipPath id="clip0_159_3169">
<rect width="32" height="32" fill="white"/>
</clipPath>
</defs>
</svg>
