<svg width="49" height="48" viewBox="0 0 49 48" fill="none" xmlns="http://www.w3.org/2000/svg">
<g clip-path="url(#clip0_159_3285)">
<path opacity="0.2" d="M41.167 21V10.5C41.167 10.1022 41.009 9.72064 40.7277 9.43934C40.4464 9.15804 40.0648 9 39.667 9H9.66699C9.26917 9 8.88764 9.15804 8.60633 9.43934C8.32503 9.72064 8.16699 10.1022 8.16699 10.5V21C8.16699 39 24.667 43.5 24.667 43.5C24.667 43.5 41.167 39 41.167 21Z" fill="url(#paint0_linear_159_3285)"/>
<path d="M41.167 21V10.5C41.167 10.1022 41.009 9.72064 40.7277 9.43934C40.4463 9.15804 40.0648 9 39.667 9H9.66699C9.26917 9 8.88764 9.15804 8.60633 9.43934C8.32503 9.72064 8.16699 10.1022 8.16699 10.5V21C8.16699 39 24.667 43.5 24.667 43.5C24.667 43.5 41.167 39 41.167 21Z" stroke="url(#paint1_linear_159_3285)" stroke-width="3" stroke-linecap="round" stroke-linejoin="round"/>
<path d="M17.167 25.5L21.667 30L32.167 19.5" stroke="url(#paint2_linear_159_3285)" stroke-width="3" stroke-linecap="round" stroke-linejoin="round"/>
</g>
<defs>
<linearGradient id="paint0_linear_159_3285" x1="8.16699" y1="26.25" x2="41.167" y2="26.25" gradientUnits="userSpaceOnUse">
<stop stop-color="#0E7490"/>
<stop offset="1" stop-color="#139ABF"/>
</linearGradient>
<linearGradient id="paint1_linear_159_3285" x1="8.16699" y1="26.25" x2="41.167" y2="26.25" gradientUnits="userSpaceOnUse">
<stop stop-color="#0E7490"/>
<stop offset="1" stop-color="#139ABF"/>
</linearGradient>
<linearGradient id="paint2_linear_159_3285" x1="17.167" y1="24.75" x2="32.167" y2="24.75" gradientUnits="userSpaceOnUse">
<stop stop-color="#0E7490"/>
<stop offset="1" stop-color="#139ABF"/>
</linearGradient>
<clipPath id="clip0_159_3285">
<rect width="48" height="48" fill="white" transform="translate(0.666992)"/>
</clipPath>
</defs>
</svg>
