<svg width="49" height="48" viewBox="0 0 49 48" fill="none" xmlns="http://www.w3.org/2000/svg">
<g clip-path="url(#clip0_159_3266)">
<path opacity="0.2" d="M4.83301 40.5L12.4643 27H36.2018L43.833 40.5H4.83301Z" fill="url(#paint0_linear_159_3266)"/>
<path d="M7.83301 19.5H10.833" stroke="url(#paint1_linear_159_3266)" stroke-width="3" stroke-linecap="round" stroke-linejoin="round"/>
<path d="M12.665 7.83203L14.7875 9.95453" stroke="url(#paint2_linear_159_3266)" stroke-width="3" stroke-linecap="round" stroke-linejoin="round"/>
<path d="M24.333 3V6" stroke="url(#paint3_linear_159_3266)" stroke-width="3" stroke-linecap="round" stroke-linejoin="round"/>
<path d="M36.0014 7.83203L33.8789 9.95453" stroke="url(#paint4_linear_159_3266)" stroke-width="3" stroke-linecap="round" stroke-linejoin="round"/>
<path d="M40.833 19.5H37.833" stroke="url(#paint5_linear_159_3266)" stroke-width="3" stroke-linecap="round" stroke-linejoin="round"/>
<path d="M16.833 19.5C16.833 17.5109 17.6232 15.6032 19.0297 14.1967C20.4362 12.7902 22.3439 12 24.333 12C26.3221 12 28.2298 12.7902 29.6363 14.1967C31.0428 15.6032 31.833 17.5109 31.833 19.5" stroke="url(#paint6_linear_159_3266)" stroke-width="3" stroke-linecap="round" stroke-linejoin="round"/>
<path d="M4.83301 40.5L12.4643 27H36.2018L43.833 40.5H4.83301Z" stroke="url(#paint7_linear_159_3266)" stroke-width="3" stroke-linecap="round" stroke-linejoin="round"/>
<path d="M9.07227 33H39.5935" stroke="url(#paint8_linear_159_3266)" stroke-width="3" stroke-linecap="round" stroke-linejoin="round"/>
<path d="M28.8984 27L31.8328 40.5" stroke="url(#paint9_linear_159_3266)" stroke-width="3" stroke-linecap="round" stroke-linejoin="round"/>
<path d="M16.833 40.5L19.7674 27" stroke="url(#paint10_linear_159_3266)" stroke-width="3" stroke-linecap="round" stroke-linejoin="round"/>
</g>
<defs>
<linearGradient id="paint0_linear_159_3266" x1="4.83301" y1="33.75" x2="43.833" y2="33.75" gradientUnits="userSpaceOnUse">
<stop stop-color="#E7FDFF"/>
<stop offset="1" stop-color="#E7FDFF"/>
</linearGradient>
<linearGradient id="paint1_linear_159_3266" x1="7.83301" y1="20" x2="10.833" y2="20" gradientUnits="userSpaceOnUse">
<stop stop-color="#E7FDFF"/>
<stop offset="1" stop-color="#E7FDFF"/>
</linearGradient>
<linearGradient id="paint2_linear_159_3266" x1="12.665" y1="8.89328" x2="14.7875" y2="8.89328" gradientUnits="userSpaceOnUse">
<stop stop-color="#E7FDFF"/>
<stop offset="1" stop-color="#E7FDFF"/>
</linearGradient>
<linearGradient id="paint3_linear_159_3266" x1="24.333" y1="4.5" x2="25.333" y2="4.5" gradientUnits="userSpaceOnUse">
<stop stop-color="#E7FDFF"/>
<stop offset="1" stop-color="#E7FDFF"/>
</linearGradient>
<linearGradient id="paint4_linear_159_3266" x1="33.8789" y1="8.89328" x2="36.0014" y2="8.89328" gradientUnits="userSpaceOnUse">
<stop stop-color="#E7FDFF"/>
<stop offset="1" stop-color="#E7FDFF"/>
</linearGradient>
<linearGradient id="paint5_linear_159_3266" x1="37.833" y1="20" x2="40.833" y2="20" gradientUnits="userSpaceOnUse">
<stop stop-color="#E7FDFF"/>
<stop offset="1" stop-color="#E7FDFF"/>
</linearGradient>
<linearGradient id="paint6_linear_159_3266" x1="16.833" y1="15.75" x2="31.833" y2="15.75" gradientUnits="userSpaceOnUse">
<stop stop-color="#E7FDFF"/>
<stop offset="1" stop-color="#E7FDFF"/>
</linearGradient>
<linearGradient id="paint7_linear_159_3266" x1="4.83301" y1="33.75" x2="43.833" y2="33.75" gradientUnits="userSpaceOnUse">
<stop stop-color="#E7FDFF"/>
<stop offset="1" stop-color="#E7FDFF"/>
</linearGradient>
<linearGradient id="paint8_linear_159_3266" x1="9.07227" y1="33.5" x2="39.5935" y2="33.5" gradientUnits="userSpaceOnUse">
<stop stop-color="#E7FDFF"/>
<stop offset="1" stop-color="#E7FDFF"/>
</linearGradient>
<linearGradient id="paint9_linear_159_3266" x1="28.8984" y1="33.75" x2="31.8328" y2="33.75" gradientUnits="userSpaceOnUse">
<stop stop-color="#E7FDFF"/>
<stop offset="1" stop-color="#E7FDFF"/>
</linearGradient>
<linearGradient id="paint10_linear_159_3266" x1="16.833" y1="33.75" x2="19.7674" y2="33.75" gradientUnits="userSpaceOnUse">
<stop stop-color="#E7FDFF"/>
<stop offset="1" stop-color="#E7FDFF"/>
</linearGradient>
<clipPath id="clip0_159_3266">
<rect width="48" height="48" fill="white" transform="translate(0.333008)"/>
</clipPath>
</defs>
</svg>
