<svg width="49" height="48" viewBox="0 0 49 48" fill="none" xmlns="http://www.w3.org/2000/svg">
<g clip-path="url(#clip0_120_1190)">
<path opacity="0.2" d="M19.8335 23.8014C18.6344 21.6313 18.1368 19.1432 18.4093 16.6789C18.6817 14.2146 19.7108 11.8952 21.355 10.0395C22.9992 8.18385 25.1778 6.88301 27.5913 6.31581C30.0049 5.74861 32.5349 5.94291 34.8335 6.872L27.3335 15.0001L28.3947 19.9389L33.3335 21.0001L41.4616 13.5001C42.3907 15.7988 42.585 18.3287 42.0178 20.7423C41.4506 23.1558 40.1498 25.3344 38.2941 26.9786C36.4384 28.6228 34.119 29.6519 31.6547 29.9243C29.1904 30.1968 26.7023 29.6992 24.5322 28.5001L14.021 40.6876C13.1756 41.533 12.029 42.0079 10.8335 42.0079C9.63794 42.0079 8.49137 41.533 7.64599 40.6876C6.80061 39.8422 6.32568 38.6957 6.32568 37.5001C6.32568 36.3046 6.80061 35.158 7.64599 34.3126L19.8335 23.8014Z" fill="url(#paint0_linear_120_1190)"/>
<path d="M19.8335 23.8014C18.6344 21.6313 18.1368 19.1432 18.4093 16.6789C18.6817 14.2146 19.7108 11.8952 21.355 10.0395C22.9992 8.18385 25.1778 6.88301 27.5913 6.31581C30.0049 5.74861 32.5349 5.94291 34.8335 6.872L27.3335 15.0001L28.3947 19.9389L33.3335 21.0001L41.4616 13.5001C42.3907 15.7988 42.585 18.3287 42.0178 20.7423C41.4506 23.1558 40.1498 25.3344 38.2941 26.9786C36.4384 28.6228 34.119 29.6519 31.6547 29.9243C29.1904 30.1968 26.7023 29.6992 24.5322 28.5001L14.021 40.6876C13.1756 41.533 12.029 42.0079 10.8335 42.0079C9.63794 42.0079 8.49137 41.533 7.64599 40.6876C6.80061 39.8422 6.32568 38.6957 6.32568 37.5001C6.32568 36.3046 6.80061 35.158 7.64599 34.3126L19.8335 23.8014Z" stroke="url(#paint1_linear_120_1190)" stroke-width="3" stroke-linecap="round" stroke-linejoin="round"/>
</g>
<defs>
<linearGradient id="paint0_linear_120_1190" x1="6.32568" y1="24.0027" x2="42.3361" y2="24.0027" gradientUnits="userSpaceOnUse">
<stop stop-color="#0E7490"/>
<stop offset="1" stop-color="#139ABF"/>
</linearGradient>
<linearGradient id="paint1_linear_120_1190" x1="6.32568" y1="24.0027" x2="42.3361" y2="24.0027" gradientUnits="userSpaceOnUse">
<stop stop-color="#0E7490"/>
<stop offset="1" stop-color="#139ABF"/>
</linearGradient>
<clipPath id="clip0_120_1190">
<rect width="48" height="48" fill="white" transform="translate(0.333496)"/>
</clipPath>
</defs>
</svg>
