<svg width="1275" height="1662" viewBox="0 0 1275 1662" fill="none" xmlns="http://www.w3.org/2000/svg">
<g opacity="0.25" filter="url(#filter0_f_721_5735)">
<ellipse cx="637.67" cy="831.44" rx="214.595" ry="441.958" transform="rotate(15 637.67 831.44)" fill="#EEE8A9"/>
</g>
<g filter="url(#filter1_d_721_5735)">
<path d="M688.704 510.059C685.609 507.841 683.203 504.793 681.765 501.267C680.327 497.741 679.915 493.881 680.577 490.131L688.922 492.367C687.339 498.149 687.264 504.24 688.704 510.059ZM707.64 497.382C704.46 507.845 698.674 514.045 695.198 513.114C691.721 512.182 689.812 503.921 692.288 493.268L707.64 497.382ZM719.314 500.51C718.018 504.096 715.73 507.239 712.716 509.574C709.703 511.909 706.088 513.34 702.292 513.7C706.463 509.39 709.452 504.077 710.969 498.274L719.314 500.51ZM720.211 497.164L711.865 494.928C713.457 489.143 713.526 483.049 712.064 477.231C715.173 479.438 717.59 482.485 719.032 486.014C720.475 489.544 720.883 493.411 720.211 497.164ZM708.537 494.036L693.184 489.923C696.372 479.44 702.15 473.259 705.628 474.191C709.103 475.122 711 483.36 708.537 494.036ZM698.45 473.684C694.291 478.001 691.311 483.314 689.794 489.114L681.448 486.877C682.745 483.295 685.03 480.155 688.04 477.819C691.049 475.484 694.659 474.05 698.45 473.684Z" fill="#EEE8A9"/>
</g>
<g filter="url(#filter2_d_721_5735)">
<path d="M560.554 487.771L548.736 489.855L549.43 493.794L561.248 491.711L560.554 487.771Z" fill="#EEE8A9"/>
</g>
<g filter="url(#filter3_d_721_5735)">
<path d="M553.603 482.905L547.694 483.946L546.721 478.432C542.835 477.005 539.778 473.604 539.007 469.231C537.857 462.712 542.221 456.479 548.741 455.33C555.26 454.18 561.492 458.544 562.642 465.064C563.413 469.436 561.704 473.678 558.539 476.348L559.512 481.863L553.603 482.905Z" fill="#EEE8A9"/>
<path d="M553.603 482.905L547.694 483.946L546.721 478.432C542.835 477.005 539.778 473.604 539.007 469.231C537.857 462.712 542.221 456.479 548.741 455.33C555.26 454.18 561.492 458.544 562.642 465.064C563.413 469.436 561.704 473.678 558.539 476.348L559.512 481.863L553.603 482.905Z" stroke="#EEE8A9" stroke-width="2" stroke-linecap="round" stroke-linejoin="round"/>
</g>
<g filter="url(#filter4_d_721_5735)">
<path d="M786.9 797.914C768.478 798.728 762.199 810.151 756.307 819.612L759.8 821.568L762.47 817.368C763.357 817.869 764.296 818.299 765.005 818.424C786.671 822.244 798.484 789.803 798.484 789.803C795.82 793.395 781.946 791.456 771.75 791.689C761.555 791.922 756.14 799.599 755.445 803.538C754.751 807.477 757.59 811.532 757.59 811.532C767.203 794.441 786.9 797.914 786.9 797.914Z" fill="#EEE8A9"/>
</g>
<g filter="url(#filter5_d_721_5735)">
<path d="M574.82 1049.48C575.557 1053.65 574.604 1057.95 572.17 1061.43C569.736 1064.91 566.02 1067.27 561.841 1068.01C557.663 1068.75 553.362 1067.79 549.886 1065.36C546.41 1062.93 544.043 1059.21 543.306 1055.03C542.569 1050.85 543.523 1046.55 545.957 1043.08C548.391 1039.6 552.106 1037.23 556.285 1036.5C560.464 1035.76 564.764 1036.71 568.24 1039.15C571.716 1041.58 574.083 1045.3 574.82 1049.48Z" fill="#EEE8A9"/>
</g>
<g filter="url(#filter6_d_721_5735)">
<path fill-rule="evenodd" clip-rule="evenodd" d="M554.295 1024.23C554.817 1024.14 555.355 1024.26 555.789 1024.56C556.224 1024.87 556.519 1025.33 556.612 1025.85L557.075 1028.48C557.167 1029 557.048 1029.54 556.743 1029.97C556.439 1030.41 555.975 1030.7 555.452 1030.8C554.93 1030.89 554.392 1030.77 553.958 1030.47C553.523 1030.16 553.227 1029.7 553.135 1029.17L552.672 1026.55C552.58 1026.03 552.699 1025.49 553.004 1025.05C553.308 1024.62 553.772 1024.32 554.295 1024.23ZM535.791 1036.02C536.096 1035.59 536.56 1035.29 537.082 1035.2C537.604 1035.11 538.141 1035.23 538.575 1035.53L539.789 1036.38C540.213 1036.69 540.5 1037.15 540.586 1037.67C540.673 1038.18 540.553 1038.71 540.253 1039.14C539.952 1039.57 539.495 1039.87 538.979 1039.96C538.464 1040.06 537.931 1039.95 537.496 1039.65L536.282 1038.8C535.848 1038.5 535.553 1038.04 535.461 1037.51C535.369 1036.99 535.488 1036.46 535.791 1036.02ZM575.714 1028.98C576.148 1029.29 576.444 1029.75 576.536 1030.27C576.628 1030.79 576.509 1031.33 576.205 1031.77L575.355 1032.98C575.043 1033.39 574.582 1033.67 574.071 1033.75C573.559 1033.83 573.035 1033.71 572.611 1033.41C572.186 1033.12 571.894 1032.67 571.795 1032.16C571.696 1031.65 571.798 1031.12 572.08 1030.69L572.93 1029.47C573.235 1029.04 573.699 1028.74 574.221 1028.65C574.743 1028.56 575.28 1028.68 575.714 1028.98ZM531.041 1057.44C530.949 1056.92 531.068 1056.38 531.373 1055.95C531.677 1055.51 532.141 1055.22 532.664 1055.12L535.29 1054.66C535.812 1054.57 536.35 1054.69 536.784 1054.99C537.219 1055.3 537.515 1055.76 537.607 1056.28C537.699 1056.81 537.58 1057.34 537.275 1057.78C536.971 1058.21 536.507 1058.51 535.984 1058.6L533.358 1059.06C532.836 1059.15 532.298 1059.04 531.864 1058.73C531.429 1058.43 531.133 1057.96 531.041 1057.44ZM580.938 1048.64C580.846 1048.12 580.965 1047.58 581.27 1047.15C581.574 1046.71 582.038 1046.42 582.561 1046.33L585.187 1045.86C585.709 1045.77 586.247 1045.89 586.681 1046.19C587.116 1046.5 587.412 1046.96 587.504 1047.48C587.596 1048.01 587.477 1048.54 587.172 1048.98C586.868 1049.41 586.404 1049.71 585.881 1049.8L583.255 1050.26C582.733 1050.36 582.195 1050.24 581.761 1049.93C581.326 1049.63 581.03 1049.16 580.938 1048.64ZM578.265 1065.76C578.569 1065.33 579.033 1065.03 579.555 1064.94C580.077 1064.85 580.614 1064.97 581.049 1065.27L582.263 1066.12C582.488 1066.27 582.682 1066.46 582.832 1066.68C582.982 1066.9 583.086 1067.15 583.137 1067.42C583.189 1067.68 583.186 1067.95 583.131 1068.21C583.075 1068.48 582.967 1068.73 582.812 1068.95C582.658 1069.17 582.462 1069.35 582.234 1069.49C582.006 1069.64 581.752 1069.73 581.487 1069.77C581.221 1069.82 580.95 1069.8 580.69 1069.74C580.429 1069.67 580.184 1069.56 579.97 1069.4L578.756 1068.55C578.322 1068.24 578.026 1067.78 577.934 1067.25C577.842 1066.73 577.961 1066.2 578.265 1065.76ZM545.974 1071.46C546.408 1071.76 546.703 1072.22 546.795 1072.75C546.887 1073.27 546.768 1073.8 546.465 1074.24L545.615 1075.45C545.468 1075.68 545.278 1075.87 545.056 1076.02C544.833 1076.17 544.582 1076.28 544.319 1076.33C544.055 1076.38 543.784 1076.38 543.521 1076.32C543.258 1076.26 543.01 1076.16 542.79 1076C542.57 1075.85 542.383 1075.65 542.241 1075.42C542.098 1075.2 542.003 1074.94 541.961 1074.68C541.919 1074.41 541.931 1074.14 541.996 1073.88C542.061 1073.62 542.178 1073.37 542.34 1073.16L543.188 1071.95C543.338 1071.73 543.53 1071.55 543.751 1071.41C543.973 1071.27 544.22 1071.17 544.479 1071.12C544.738 1071.08 545.003 1071.08 545.259 1071.14C545.516 1071.2 545.759 1071.3 545.974 1071.46ZM563.093 1074.13C563.615 1074.04 564.153 1074.16 564.587 1074.46C565.022 1074.76 565.318 1075.23 565.41 1075.75L565.873 1078.38C565.965 1078.9 565.846 1079.44 565.541 1079.87C565.237 1080.31 564.773 1080.6 564.25 1080.69C563.728 1080.79 563.191 1080.67 562.756 1080.36C562.322 1080.06 562.026 1079.59 561.934 1079.07L561.47 1076.45C561.378 1075.92 561.498 1075.39 561.802 1074.95C562.106 1074.52 562.57 1074.22 563.093 1074.13Z" fill="#EEE8A9"/>
</g>
<g filter="url(#filter7_d_721_5735)">
<path d="M732.486 1155.5L734.326 1145.06C733.249 1144.27 732.704 1142.75 732.947 1141.37L734.336 1133.49C734.58 1132.11 735.576 1131.07 736.896 1130.49L737.001 1129.9C737.383 1127.73 735.923 1125.65 733.756 1125.27C731.589 1124.88 729.504 1126.34 729.122 1128.51C728.74 1130.68 730.2 1132.76 732.367 1133.14L728.428 1132.45C727.443 1132.28 726.284 1133.09 726.111 1134.07L724.721 1141.95C724.548 1142.93 725.359 1144.09 726.344 1144.27L724.607 1154.11L732.486 1155.5ZM756.002 1137.31L752.063 1136.62C754.23 1137 756.315 1135.54 756.697 1133.37C757.079 1131.21 755.619 1129.12 753.452 1128.74C751.286 1128.36 749.2 1129.82 748.818 1131.98L748.714 1132.57C749.757 1133.57 750.336 1134.89 750.093 1136.27L748.704 1144.15C748.461 1145.53 747.43 1146.77 746.144 1147.15L744.303 1157.59L752.182 1158.98L753.918 1149.13C754.903 1149.3 756.062 1148.49 756.235 1147.51L757.624 1139.63C757.798 1138.64 756.987 1137.48 756.002 1137.31ZM747.196 1129.67C747.115 1130.19 746.93 1130.7 746.652 1131.15C746.373 1131.61 746.007 1132 745.574 1132.31C745.141 1132.62 744.65 1132.84 744.131 1132.96C743.611 1133.08 743.073 1133.09 742.548 1133C742.024 1132.91 741.523 1132.71 741.075 1132.42C740.627 1132.13 740.241 1131.76 739.941 1131.32C739.64 1130.88 739.43 1130.38 739.323 1129.86C739.216 1129.34 739.215 1128.8 739.319 1128.28C739.523 1127.25 740.121 1126.35 740.984 1125.76C741.847 1125.17 742.906 1124.94 743.936 1125.12C744.965 1125.3 745.883 1125.88 746.492 1126.73C747.102 1127.58 747.354 1128.63 747.196 1129.67Z" fill="#EEE8A9"/>
</g>
<g filter="url(#filter8_d_721_5735)">
<path d="M746.501 1133.61L738.623 1132.22C737.638 1132.04 736.48 1132.85 736.306 1133.84L734.917 1141.72C734.743 1142.7 735.554 1143.86 736.539 1144.03L734.455 1155.85L742.334 1157.24L744.418 1145.42C745.402 1145.6 746.561 1144.79 746.735 1143.8L748.124 1135.92C748.297 1134.94 747.486 1133.78 746.501 1133.61Z" fill="#EEE8A9"/>
</g>
<g opacity="0.5" clip-path="url(#clip0_721_5735)">
<g filter="url(#filter9_d_721_5735)">
<path fill-rule="evenodd" clip-rule="evenodd" d="M479.241 859.806L478.242 874.198L488.09 872.462L468.507 902.316L470.078 879.699L462.199 881.089L463.484 862.584L479.241 859.806Z" fill="#EEE8A9"/>
</g>
</g>
<g opacity="0.6">
<g opacity="0.5" filter="url(#filter10_d_721_5735)">
<path d="M520.894 1173.12L515.786 1178.99C514.936 1179.97 515 1181.44 515.932 1182.34C516.919 1183.29 518.502 1183.23 519.42 1182.22L524.694 1176.39C525.067 1175.98 525.695 1175.94 526.11 1176.31C526.524 1176.69 526.553 1177.32 526.181 1177.73L525.071 1178.95L535.016 1185.32L532.966 1173.7L532.923 1173.71L532.656 1173.6L527.683 1171.53C526.635 1171.09 525.477 1170.96 524.357 1171.16C523.015 1171.4 521.791 1172.09 520.894 1173.12ZM523.647 1180.53L520.901 1183.56C519.229 1185.42 516.347 1185.52 514.543 1183.78C512.845 1182.14 512.728 1179.46 514.274 1177.68L518.664 1172.64C517.897 1172.46 517.101 1172.45 516.319 1172.58C515.161 1172.78 514.095 1173.32 513.242 1174.14L509.331 1177.87L511.762 1191.66L513.498 1191.35L520.029 1195.49C521.429 1196.38 523.279 1195.97 524.168 1194.57C524.441 1194.13 524.591 1193.65 524.628 1193.18L525.844 1193.95C527.238 1194.84 529.095 1194.43 529.985 1193.04C530.209 1192.69 530.35 1192.3 530.415 1191.92C531.751 1192.51 533.346 1192.05 534.156 1190.78C535.046 1189.39 534.637 1187.53 533.242 1186.64L523.647 1180.53ZM502.437 1179.09C501.896 1179.18 501.531 1179.7 501.626 1180.24L503.884 1193.05C504.076 1194.14 505.111 1194.86 506.201 1194.67L508.17 1194.32C509.26 1194.13 509.985 1193.09 509.793 1192.01L507.361 1178.22L502.437 1179.09ZM506.491 1190.56C506.752 1190.51 507.021 1190.57 507.238 1190.72C507.455 1190.87 507.603 1191.11 507.649 1191.37C507.695 1191.63 507.636 1191.9 507.484 1192.12C507.332 1192.33 507.099 1192.48 506.838 1192.53C506.577 1192.57 506.308 1192.51 506.091 1192.36C505.874 1192.21 505.726 1191.98 505.68 1191.72C505.634 1191.45 505.693 1191.19 505.845 1190.97C505.997 1190.75 506.23 1190.6 506.491 1190.56ZM534.936 1173.36L537.367 1187.14C537.559 1188.23 538.595 1188.96 539.684 1188.77L541.654 1188.42C542.743 1188.23 543.468 1187.19 543.276 1186.1L541.019 1173.3C540.923 1172.76 540.402 1172.39 539.86 1172.49L534.936 1173.36ZM539.163 1185.81C539.117 1185.55 539.177 1185.28 539.329 1185.06C539.481 1184.85 539.713 1184.7 539.974 1184.65C540.236 1184.61 540.504 1184.67 540.722 1184.82C540.939 1184.97 541.087 1185.2 541.133 1185.46C541.179 1185.73 541.119 1185.99 540.967 1186.21C540.815 1186.43 540.583 1186.58 540.322 1186.62C540.06 1186.67 539.792 1186.61 539.574 1186.46C539.357 1186.3 539.209 1186.07 539.163 1185.81Z" fill="#EEE8A9"/>
</g>
</g>
<g opacity="0.5">
<g filter="url(#filter11_d_721_5735)">
<path d="M421.462 611.28L429.449 591.047L422.755 591.633L421.662 579.14L413.396 599.398L420.369 598.788L421.462 611.28ZM419.321 575.33C424.8 574.851 429.656 576.433 433.881 579.979C438.106 583.524 440.509 588.032 440.988 593.511C441.467 598.99 439.884 603.846 436.339 608.071C432.794 612.296 428.286 614.698 422.807 615.178C417.328 615.657 412.472 614.074 408.247 610.529C404.021 606.984 401.619 602.476 401.14 596.997C400.661 591.518 402.243 586.662 405.789 582.436C409.334 578.211 413.842 575.809 419.321 575.33Z" fill="#EEE8A9"/>
</g>
</g>
<g filter="url(#filter12_d_721_5735)">
<path d="M546.293 682.728C540.49 683.751 536.203 686.931 536.715 689.833C536.971 691.283 538.354 692.252 539.804 691.996L555.561 689.217C557.011 688.962 557.98 687.579 557.724 686.128C557.212 683.226 552.097 681.705 546.293 682.728ZM539.652 675.776C539.897 677.169 540.686 678.407 541.845 679.218C543.004 680.03 544.437 680.348 545.83 680.102C547.223 679.856 548.462 679.067 549.273 677.909C550.084 676.75 550.402 675.317 550.156 673.924M542.627 665.774C542.233 665.843 542.019 666.165 542.086 666.546L542.665 669.829C542.729 670.191 542.487 670.537 542.124 670.601C541.762 670.665 541.416 670.423 541.352 670.06L541.141 668.865C541.019 668.175 540.266 667.871 539.828 668.418C539.229 669.167 538.616 670.359 538.707 672.053C538.732 672.534 538.44 673.023 538.226 673.454C538.19 673.528 538.157 673.611 538.131 673.703C537.979 674.234 538.548 674.617 539.092 674.521L550.208 672.561C550.769 672.462 551.172 671.878 550.823 671.427C550.777 671.368 550.73 671.316 550.683 671.269C550.344 670.935 549.913 670.569 549.774 670.112C549.281 668.483 548.295 667.57 547.474 667.07C546.876 666.705 546.272 667.249 546.393 667.939L546.604 669.134C546.668 669.497 546.426 669.843 546.063 669.907C545.701 669.971 545.355 669.728 545.291 669.366L544.712 666.083C544.645 665.702 544.347 665.471 543.94 665.542L542.627 665.774Z" fill="#EEE8A9"/>
</g>
<g opacity="0.5">
<g filter="url(#filter13_d_721_5735)">
<path d="M819.062 604.588C818.782 604.539 818.565 604.404 818.41 604.183C818.256 603.962 818.202 603.711 818.251 603.429C818.299 603.148 818.434 602.93 818.656 602.776C818.878 602.622 819.13 602.569 819.411 602.619L822.783 603.213C823.063 603.263 823.28 603.398 823.436 603.619C823.592 603.84 823.645 604.091 823.594 604.372C823.543 604.652 823.408 604.87 823.188 605.025C822.969 605.18 822.717 605.232 822.434 605.182L819.062 604.588ZM813.79 631.075L812.661 633.969C812.297 634.931 812.361 635.855 812.852 636.74C813.343 637.625 814.099 638.158 815.119 638.338L827.565 640.533L828.767 633.716L813.79 631.075ZM820.494 613.329L823.317 611.354C823.534 611.202 823.774 611.15 824.038 611.196C824.302 611.243 824.514 611.375 824.675 611.593C824.857 611.823 824.918 612.075 824.856 612.348C824.794 612.621 824.651 612.838 824.427 612.997L821.6 614.977C821.384 615.128 821.144 615.18 820.88 615.134C820.616 615.087 820.404 614.955 820.245 614.738C820.063 614.506 820.002 614.253 820.062 613.978C820.123 613.703 820.267 613.486 820.494 613.329ZM814.547 629.178L829.114 631.746L830.337 624.813L819.76 622.948C818.985 622.812 818.269 622.932 817.611 623.308C816.953 623.685 816.476 624.23 816.181 624.943L814.547 629.178ZM831.132 620.307L831.726 616.937C831.775 616.656 831.911 616.438 832.131 616.283C832.352 616.128 832.603 616.076 832.884 616.125C833.165 616.175 833.383 616.31 833.538 616.531C833.692 616.752 833.745 617.003 833.695 617.284L833.101 620.654C833.052 620.935 832.916 621.153 832.696 621.307C832.475 621.462 832.224 621.515 831.943 621.465C831.662 621.416 831.444 621.28 831.289 621.059C831.135 620.839 831.082 620.588 831.132 620.307ZM829.534 640.882L841.943 643.07C842.963 643.25 843.856 643.008 844.62 642.344C845.384 641.678 845.761 640.831 845.75 639.803L845.676 636.697L830.737 634.063L829.534 640.882ZM831.084 632.093L845.614 634.655L845.527 630.117C845.493 629.347 845.232 628.672 844.742 628.092C844.253 627.513 843.62 627.156 842.844 627.02L832.306 625.162L831.084 632.093ZM843.92 618.9L841.912 616.03C841.761 615.813 841.712 615.574 841.767 615.311C841.821 615.049 841.962 614.838 842.189 614.679C842.405 614.528 842.641 614.475 842.897 614.52C843.152 614.565 843.355 614.695 843.506 614.912L845.572 617.753C845.757 617.975 845.825 618.218 845.779 618.482C845.732 618.746 845.581 618.968 845.326 619.148C845.071 619.328 844.818 619.395 844.566 619.349C844.314 619.303 844.099 619.154 843.92 618.9ZM849.819 610.011L846.447 609.417C846.168 609.367 845.95 609.232 845.794 609.011C845.638 608.79 845.585 608.539 845.636 608.258C845.687 607.978 845.823 607.76 846.044 607.605C846.265 607.45 846.515 607.398 846.795 607.447L850.167 608.042C850.446 608.091 850.664 608.226 850.82 608.447C850.976 608.668 851.029 608.919 850.978 609.2C850.927 609.481 850.792 609.699 850.572 609.854C850.352 610.009 850.102 610.061 849.819 610.011ZM833.392 613.248C831.473 612.91 829.9 612.01 828.671 610.549C827.443 609.09 826.798 607.42 826.737 605.539C826.723 605.102 826.891 604.745 827.241 604.468C827.59 604.192 827.992 604.093 828.446 604.173L841.142 606.412C841.572 606.488 841.908 606.716 842.151 607.097C842.394 607.479 842.437 607.873 842.281 608.28C841.581 610.025 840.404 611.374 838.751 612.327C837.098 613.278 835.311 613.586 833.392 613.248Z" fill="#EEE8A9"/>
</g>
</g>
<g opacity="0.5">
<g filter="url(#filter14_d_721_5735)">
<path d="M419.259 1020.57C419.199 1020.37 419.095 1020.18 418.955 1020.01C418.814 1019.85 418.64 1019.72 418.445 1019.63L412.595 1016.94L412.023 1010.66C412.003 1010.45 411.937 1010.24 411.829 1010.05C411.72 1009.86 411.572 1009.7 411.395 1009.57C409.224 1008.04 406.782 1006.93 404.199 1006.31C403.995 1006.26 403.783 1006.26 403.577 1006.29C403.371 1006.33 403.175 1006.41 403.002 1006.53L397.656 1010.16L391.755 1007.51C391.563 1007.42 391.356 1007.38 391.146 1007.37C390.936 1007.37 390.729 1007.42 390.536 1007.5C388.102 1008.57 385.892 1010.09 384.024 1011.98C383.871 1012.13 383.754 1012.32 383.68 1012.52C383.606 1012.72 383.577 1012.94 383.595 1013.16L384.117 1019.44L378.822 1023.11C378.645 1023.23 378.497 1023.39 378.387 1023.57C378.276 1023.76 378.207 1023.96 378.184 1024.18C377.899 1026.79 378.129 1029.42 378.863 1031.94C378.923 1032.15 379.027 1032.34 379.168 1032.5C379.308 1032.67 379.482 1032.8 379.678 1032.89L385.528 1035.57L386.1 1041.85C386.119 1042.07 386.186 1042.28 386.294 1042.47C386.403 1042.66 386.55 1042.82 386.728 1042.94C388.898 1044.48 391.341 1045.58 393.924 1046.2C394.128 1046.25 394.34 1046.26 394.546 1046.22C394.752 1046.19 394.948 1046.11 395.121 1045.99L400.472 1042.35L406.373 1045C406.606 1045.11 406.863 1045.15 407.118 1045.12C407.281 1045.11 407.441 1045.07 407.591 1045C410.025 1043.94 412.235 1042.42 414.104 1040.53C414.256 1040.38 414.374 1040.19 414.448 1039.99C414.522 1039.79 414.551 1039.57 414.533 1039.35L414.011 1033.06L419.305 1029.4C419.482 1029.28 419.631 1029.12 419.741 1028.93C419.851 1028.75 419.92 1028.54 419.943 1028.33C420.226 1025.72 419.994 1023.09 419.259 1020.57ZM399.717 1033.73C398.24 1033.85 396.757 1033.54 395.456 1032.83C394.156 1032.12 393.096 1031.03 392.411 1029.72C391.726 1028.4 391.447 1026.91 391.608 1025.44C391.77 1023.96 392.365 1022.57 393.318 1021.43C394.272 1020.3 395.541 1019.47 396.965 1019.05C398.389 1018.64 399.904 1018.65 401.319 1019.1C402.734 1019.55 403.984 1020.4 404.913 1021.56C405.841 1022.72 406.406 1024.12 406.535 1025.6C406.709 1027.58 406.088 1029.55 404.809 1031.07C403.531 1032.6 401.699 1033.55 399.717 1033.73Z" fill="#EEE8A9"/>
</g>
</g>
<g opacity="0.5" filter="url(#filter15_d_721_5735)">
<path d="M816.958 1000.49L817.652 996.552C818.016 994.462 817.749 992.312 816.885 990.375C816.02 988.438 814.598 986.802 812.8 985.677L811.55 992.768L810.237 992.537L812.089 982.032L806.837 981.106L804.984 991.61L803.671 991.379L804.922 984.288C802.847 984.73 800.951 985.78 799.477 987.305C798.002 988.83 797.015 990.759 796.643 992.847L795.948 996.787L793.322 996.324L792.859 998.95L819.121 1003.58L819.584 1000.95L816.958 1000.49Z" fill="#EEE8A9"/>
</g>
<g opacity="0.5" filter="url(#filter16_d_721_5735)">
<path d="M878.851 884.89L880.546 885.038L882.42 863.612C882.467 863.078 882.681 862.573 883.031 862.167C883.381 861.761 883.849 861.476 884.371 861.352L898.327 858.019C898.72 857.925 899.13 857.926 899.523 858.022C899.916 858.117 900.281 858.305 900.587 858.569C900.893 858.833 901.132 859.166 901.284 859.541C901.436 859.916 901.497 860.321 901.462 860.724L899.192 886.669L900.887 886.818L902.224 871.545C902.235 871.419 902.273 871.298 902.337 871.189C902.4 871.081 902.487 870.988 902.591 870.917C902.695 870.846 902.813 870.799 902.938 870.779C903.062 870.759 903.189 870.767 903.31 870.803L906.967 871.874C907.533 872.04 908.025 872.396 908.357 872.883C908.69 873.37 908.844 873.957 908.793 874.545L907.668 887.411L909.363 887.559C909.812 887.599 910.228 887.815 910.518 888.161C910.808 888.506 910.949 888.953 910.91 889.403C910.87 889.852 910.654 890.268 910.308 890.558C909.963 890.848 909.516 890.989 909.066 890.95L878.554 888.28C878.105 888.241 877.689 888.024 877.399 887.679C877.109 887.333 876.968 886.886 877.007 886.437C877.047 885.987 877.263 885.572 877.609 885.281C877.954 884.991 878.401 884.85 878.851 884.89Z" fill="#EEE8A9"/>
</g>
<defs>
<filter id="filter0_f_721_5735" x="0.876221" y="0.895386" width="1273.59" height="1661.09" filterUnits="userSpaceOnUse" color-interpolation-filters="sRGB">
<feFlood flood-opacity="0" result="BackgroundImageFix"/>
<feBlend mode="normal" in="SourceGraphic" in2="BackgroundImageFix" result="shape"/>
<feGaussianBlur stdDeviation="200" result="effect1_foregroundBlur_721_5735"/>
</filter>
<filter id="filter1_d_721_5735" x="630.27" y="423.684" width="140.256" height="140.016" filterUnits="userSpaceOnUse" color-interpolation-filters="sRGB">
<feFlood flood-opacity="0" result="BackgroundImageFix"/>
<feColorMatrix in="SourceAlpha" type="matrix" values="0 0 0 0 0 0 0 0 0 0 0 0 0 0 0 0 0 0 127 0" result="hardAlpha"/>
<feOffset/>
<feGaussianBlur stdDeviation="25"/>
<feComposite in2="hardAlpha" operator="out"/>
<feColorMatrix type="matrix" values="0 0 0 0 1 0 0 0 0 1 0 0 0 0 1 0 0 0 1 0"/>
<feBlend mode="overlay" in2="BackgroundImageFix" result="effect1_dropShadow_721_5735"/>
<feBlend mode="normal" in="SourceGraphic" in2="effect1_dropShadow_721_5735" result="shape"/>
</filter>
<filter id="filter2_d_721_5735" x="498.736" y="437.771" width="112.512" height="106.023" filterUnits="userSpaceOnUse" color-interpolation-filters="sRGB">
<feFlood flood-opacity="0" result="BackgroundImageFix"/>
<feColorMatrix in="SourceAlpha" type="matrix" values="0 0 0 0 0 0 0 0 0 0 0 0 0 0 0 0 0 0 127 0" result="hardAlpha"/>
<feOffset/>
<feGaussianBlur stdDeviation="25"/>
<feComposite in2="hardAlpha" operator="out"/>
<feColorMatrix type="matrix" values="0 0 0 0 1 0 0 0 0 1 0 0 0 0 1 0 0 0 1 0"/>
<feBlend mode="overlay" in2="BackgroundImageFix" result="effect1_dropShadow_721_5735"/>
<feBlend mode="normal" in="SourceGraphic" in2="effect1_dropShadow_721_5735" result="shape"/>
</filter>
<filter id="filter3_d_721_5735" x="487.823" y="404.146" width="126.003" height="130.801" filterUnits="userSpaceOnUse" color-interpolation-filters="sRGB">
<feFlood flood-opacity="0" result="BackgroundImageFix"/>
<feColorMatrix in="SourceAlpha" type="matrix" values="0 0 0 0 0 0 0 0 0 0 0 0 0 0 0 0 0 0 127 0" result="hardAlpha"/>
<feOffset/>
<feGaussianBlur stdDeviation="25"/>
<feComposite in2="hardAlpha" operator="out"/>
<feColorMatrix type="matrix" values="0 0 0 0 1 0 0 0 0 1 0 0 0 0 1 0 0 0 1 0"/>
<feBlend mode="overlay" in2="BackgroundImageFix" result="effect1_dropShadow_721_5735"/>
<feBlend mode="normal" in="SourceGraphic" in2="effect1_dropShadow_721_5735" result="shape"/>
</filter>
<filter id="filter4_d_721_5735" x="705.336" y="739.803" width="143.148" height="131.765" filterUnits="userSpaceOnUse" color-interpolation-filters="sRGB">
<feFlood flood-opacity="0" result="BackgroundImageFix"/>
<feColorMatrix in="SourceAlpha" type="matrix" values="0 0 0 0 0 0 0 0 0 0 0 0 0 0 0 0 0 0 127 0" result="hardAlpha"/>
<feOffset/>
<feGaussianBlur stdDeviation="25"/>
<feComposite in2="hardAlpha" operator="out"/>
<feColorMatrix type="matrix" values="0 0 0 0 1 0 0 0 0 1 0 0 0 0 1 0 0 0 1 0"/>
<feBlend mode="overlay" in2="BackgroundImageFix" result="effect1_dropShadow_721_5735"/>
<feBlend mode="normal" in="SourceGraphic" in2="effect1_dropShadow_721_5735" result="shape"/>
</filter>
<filter id="filter5_d_721_5735" x="493.063" y="986.253" width="132" height="132" filterUnits="userSpaceOnUse" color-interpolation-filters="sRGB">
<feFlood flood-opacity="0" result="BackgroundImageFix"/>
<feColorMatrix in="SourceAlpha" type="matrix" values="0 0 0 0 0 0 0 0 0 0 0 0 0 0 0 0 0 0 127 0" result="hardAlpha"/>
<feOffset/>
<feGaussianBlur stdDeviation="25"/>
<feComposite in2="hardAlpha" operator="out"/>
<feColorMatrix type="matrix" values="0 0 0 0 1 0 0 0 0 1 0 0 0 0 1 0 0 0 1 0"/>
<feBlend mode="overlay" in2="BackgroundImageFix" result="effect1_dropShadow_721_5735"/>
<feBlend mode="normal" in="SourceGraphic" in2="effect1_dropShadow_721_5735" result="shape"/>
</filter>
<filter id="filter6_d_721_5735" x="481.011" y="974.201" width="156.523" height="156.523" filterUnits="userSpaceOnUse" color-interpolation-filters="sRGB">
<feFlood flood-opacity="0" result="BackgroundImageFix"/>
<feColorMatrix in="SourceAlpha" type="matrix" values="0 0 0 0 0 0 0 0 0 0 0 0 0 0 0 0 0 0 127 0" result="hardAlpha"/>
<feOffset/>
<feGaussianBlur stdDeviation="25"/>
<feComposite in2="hardAlpha" operator="out"/>
<feColorMatrix type="matrix" values="0 0 0 0 1 0 0 0 0 1 0 0 0 0 1 0 0 0 1 0"/>
<feBlend mode="overlay" in2="BackgroundImageFix" result="effect1_dropShadow_721_5735"/>
<feBlend mode="normal" in="SourceGraphic" in2="effect1_dropShadow_721_5735" result="shape"/>
</filter>
<filter id="filter7_d_721_5735" x="674.607" y="1075.06" width="133.041" height="133.917" filterUnits="userSpaceOnUse" color-interpolation-filters="sRGB">
<feFlood flood-opacity="0" result="BackgroundImageFix"/>
<feColorMatrix in="SourceAlpha" type="matrix" values="0 0 0 0 0 0 0 0 0 0 0 0 0 0 0 0 0 0 127 0" result="hardAlpha"/>
<feOffset/>
<feGaussianBlur stdDeviation="25"/>
<feComposite in2="hardAlpha" operator="out"/>
<feColorMatrix type="matrix" values="0 0 0 0 1 0 0 0 0 1 0 0 0 0 1 0 0 0 1 0"/>
<feBlend mode="overlay" in2="BackgroundImageFix" result="effect1_dropShadow_721_5735"/>
<feBlend mode="normal" in="SourceGraphic" in2="effect1_dropShadow_721_5735" result="shape"/>
</filter>
<filter id="filter8_d_721_5735" x="684.456" y="1082.19" width="113.692" height="125.048" filterUnits="userSpaceOnUse" color-interpolation-filters="sRGB">
<feFlood flood-opacity="0" result="BackgroundImageFix"/>
<feColorMatrix in="SourceAlpha" type="matrix" values="0 0 0 0 0 0 0 0 0 0 0 0 0 0 0 0 0 0 127 0" result="hardAlpha"/>
<feOffset/>
<feGaussianBlur stdDeviation="25"/>
<feComposite in2="hardAlpha" operator="out"/>
<feColorMatrix type="matrix" values="0 0 0 0 1 0 0 0 0 1 0 0 0 0 1 0 0 0 1 0"/>
<feBlend mode="overlay" in2="BackgroundImageFix" result="effect1_dropShadow_721_5735"/>
<feBlend mode="normal" in="SourceGraphic" in2="effect1_dropShadow_721_5735" result="shape"/>
</filter>
<filter id="filter9_d_721_5735" x="412.199" y="809.806" width="125.891" height="142.51" filterUnits="userSpaceOnUse" color-interpolation-filters="sRGB">
<feFlood flood-opacity="0" result="BackgroundImageFix"/>
<feColorMatrix in="SourceAlpha" type="matrix" values="0 0 0 0 0 0 0 0 0 0 0 0 0 0 0 0 0 0 127 0" result="hardAlpha"/>
<feOffset/>
<feGaussianBlur stdDeviation="25"/>
<feComposite in2="hardAlpha" operator="out"/>
<feColorMatrix type="matrix" values="0 0 0 0 1 0 0 0 0 1 0 0 0 0 1 0 0 0 1 0"/>
<feBlend mode="overlay" in2="BackgroundImageFix" result="effect1_dropShadow_721_5735"/>
<feBlend mode="normal" in="SourceGraphic" in2="effect1_dropShadow_721_5735" result="shape"/>
</filter>
<filter id="filter10_d_721_5735" x="451.611" y="1121.07" width="141.696" height="124.893" filterUnits="userSpaceOnUse" color-interpolation-filters="sRGB">
<feFlood flood-opacity="0" result="BackgroundImageFix"/>
<feColorMatrix in="SourceAlpha" type="matrix" values="0 0 0 0 0 0 0 0 0 0 0 0 0 0 0 0 0 0 127 0" result="hardAlpha"/>
<feOffset/>
<feGaussianBlur stdDeviation="25"/>
<feComposite in2="hardAlpha" operator="out"/>
<feColorMatrix type="matrix" values="0 0 0 0 1 0 0 0 0 1 0 0 0 0 1 0 0 0 1 0"/>
<feBlend mode="overlay" in2="BackgroundImageFix" result="effect1_dropShadow_721_5735"/>
<feBlend mode="normal" in="SourceGraphic" in2="effect1_dropShadow_721_5735" result="shape"/>
</filter>
<filter id="filter11_d_721_5735" x="351.056" y="525.246" width="140.015" height="140.015" filterUnits="userSpaceOnUse" color-interpolation-filters="sRGB">
<feFlood flood-opacity="0" result="BackgroundImageFix"/>
<feColorMatrix in="SourceAlpha" type="matrix" values="0 0 0 0 0 0 0 0 0 0 0 0 0 0 0 0 0 0 127 0" result="hardAlpha"/>
<feOffset/>
<feGaussianBlur stdDeviation="25"/>
<feComposite in2="hardAlpha" operator="out"/>
<feColorMatrix type="matrix" values="0 0 0 0 1 0 0 0 0 1 0 0 0 0 1 0 0 0 1 0"/>
<feBlend mode="overlay" in2="BackgroundImageFix" result="effect1_dropShadow_721_5735"/>
<feBlend mode="normal" in="SourceGraphic" in2="effect1_dropShadow_721_5735" result="shape"/>
</filter>
<filter id="filter12_d_721_5735" x="486.673" y="615.529" width="121.092" height="126.507" filterUnits="userSpaceOnUse" color-interpolation-filters="sRGB">
<feFlood flood-opacity="0" result="BackgroundImageFix"/>
<feColorMatrix in="SourceAlpha" type="matrix" values="0 0 0 0 0 0 0 0 0 0 0 0 0 0 0 0 0 0 127 0" result="hardAlpha"/>
<feOffset/>
<feGaussianBlur stdDeviation="25"/>
<feComposite in2="hardAlpha" operator="out"/>
<feColorMatrix type="matrix" values="0 0 0 0 1 0 0 0 0 1 0 0 0 0 1 0 0 0 1 0"/>
<feBlend mode="overlay" in2="BackgroundImageFix" result="effect1_dropShadow_721_5735"/>
<feBlend mode="normal" in="SourceGraphic" in2="effect1_dropShadow_721_5735" result="shape"/>
</filter>
<filter id="filter13_d_721_5735" x="762.429" y="552.601" width="138.568" height="140.527" filterUnits="userSpaceOnUse" color-interpolation-filters="sRGB">
<feFlood flood-opacity="0" result="BackgroundImageFix"/>
<feColorMatrix in="SourceAlpha" type="matrix" values="0 0 0 0 0 0 0 0 0 0 0 0 0 0 0 0 0 0 127 0" result="hardAlpha"/>
<feOffset/>
<feGaussianBlur stdDeviation="25"/>
<feComposite in2="hardAlpha" operator="out"/>
<feColorMatrix type="matrix" values="0 0 0 0 1 0 0 0 0 1 0 0 0 0 1 0 0 0 1 0"/>
<feBlend mode="overlay" in2="BackgroundImageFix" result="effect1_dropShadow_721_5735"/>
<feBlend mode="normal" in="SourceGraphic" in2="effect1_dropShadow_721_5735" result="shape"/>
</filter>
<filter id="filter14_d_721_5735" x="328.065" y="956.27" width="141.995" height="139.977" filterUnits="userSpaceOnUse" color-interpolation-filters="sRGB">
<feFlood flood-opacity="0" result="BackgroundImageFix"/>
<feColorMatrix in="SourceAlpha" type="matrix" values="0 0 0 0 0 0 0 0 0 0 0 0 0 0 0 0 0 0 127 0" result="hardAlpha"/>
<feOffset/>
<feGaussianBlur stdDeviation="25"/>
<feComposite in2="hardAlpha" operator="out"/>
<feColorMatrix type="matrix" values="0 0 0 0 1 0 0 0 0 1 0 0 0 0 1 0 0 0 1 0"/>
<feBlend mode="overlay" in2="BackgroundImageFix" result="effect1_dropShadow_721_5735"/>
<feBlend mode="normal" in="SourceGraphic" in2="effect1_dropShadow_721_5735" result="shape"/>
</filter>
<filter id="filter15_d_721_5735" x="742.859" y="931.106" width="126.725" height="122.474" filterUnits="userSpaceOnUse" color-interpolation-filters="sRGB">
<feFlood flood-opacity="0" result="BackgroundImageFix"/>
<feColorMatrix in="SourceAlpha" type="matrix" values="0 0 0 0 0 0 0 0 0 0 0 0 0 0 0 0 0 0 127 0" result="hardAlpha"/>
<feOffset/>
<feGaussianBlur stdDeviation="25"/>
<feComposite in2="hardAlpha" operator="out"/>
<feColorMatrix type="matrix" values="0 0 0 0 1 0 0 0 0 1 0 0 0 0 1 0 0 0 1 0"/>
<feBlend mode="overlay" in2="BackgroundImageFix" result="effect1_dropShadow_721_5735"/>
<feBlend mode="normal" in="SourceGraphic" in2="effect1_dropShadow_721_5735" result="shape"/>
</filter>
<filter id="filter16_d_721_5735" x="827.001" y="807.949" width="133.915" height="133.007" filterUnits="userSpaceOnUse" color-interpolation-filters="sRGB">
<feFlood flood-opacity="0" result="BackgroundImageFix"/>
<feColorMatrix in="SourceAlpha" type="matrix" values="0 0 0 0 0 0 0 0 0 0 0 0 0 0 0 0 0 0 127 0" result="hardAlpha"/>
<feOffset/>
<feGaussianBlur stdDeviation="25"/>
<feComposite in2="hardAlpha" operator="out"/>
<feColorMatrix type="matrix" values="0 0 0 0 1 0 0 0 0 1 0 0 0 0 1 0 0 0 1 0"/>
<feBlend mode="overlay" in2="BackgroundImageFix" result="effect1_dropShadow_721_5735"/>
<feBlend mode="normal" in="SourceGraphic" in2="effect1_dropShadow_721_5735" result="shape"/>
</filter>
<clipPath id="clip0_721_5735">
<rect width="48" height="48" fill="white" transform="translate(445.063 861.771) rotate(-10)"/>
</clipPath>
</defs>
</svg>
