<svg width="445" height="227" viewBox="0 0 445 227" fill="none" xmlns="http://www.w3.org/2000/svg">
<g style="mix-blend-mode:plus-lighter" filter="url(#filter0_f_714_5735)">
<ellipse cx="222.5" cy="113.5" rx="122.5" ry="13.5" fill="#333333" fill-opacity="0.5"/>
</g>
<path d="M202.344 110.782C201.705 104.698 187.806 105.215 187.613 98.9675L187.625 94C187.816 100.248 201.705 99.7451 202.344 105.829V110.782Z" fill="url(#paint0_linear_714_5735)"/>
<path d="M186.722 94C186.529 100.248 172.641 99.7451 172 105.829V110.782C172.641 104.698 186.541 105.215 186.732 98.9673L186.722 94Z" fill="url(#paint1_linear_714_5735)"/>
<path d="M187.613 122.353V127.305C187.806 121.058 201.706 121.575 202.344 115.491V110.538C201.705 116.623 187.806 116.105 187.613 122.353Z" fill="url(#paint2_linear_714_5735)"/>
<path d="M186.732 127.305C186.541 121.058 172.641 121.575 172 115.491V110.538C172.641 116.623 186.541 116.105 186.732 122.353V127.305Z" fill="url(#paint3_linear_714_5735)"/>
<path d="M187.613 129.039V133.992C187.806 127.744 201.706 128.261 202.344 122.177V117.224C201.705 123.309 187.806 122.791 187.613 129.039Z" fill="url(#paint4_linear_714_5735)"/>
<path d="M186.808 134C186.617 127.752 172.71 128.317 172.071 122.232V117.28C172.71 123.364 186.612 122.846 186.803 129.094L186.808 134Z" fill="url(#paint5_linear_714_5735)"/>
<path d="M190.056 107.689L195.328 110.572L190.056 113.455L187.173 118.727L184.29 113.455L179.018 110.572L184.29 107.689L187.173 102.417L190.056 107.689Z" fill="url(#paint6_linear_714_5735)"/>
<path d="M216.576 97.258V97.738C216.064 97.754 215.672 97.818 215.4 97.93C215.144 98.026 214.976 98.218 214.896 98.506C214.816 98.778 214.776 99.21 214.776 99.802V111.706C214.776 112.282 214.816 112.714 214.896 113.002C214.992 113.29 215.168 113.482 215.424 113.578C215.68 113.674 216.064 113.738 216.576 113.77V114.25C216.144 114.218 215.6 114.202 214.944 114.202C214.288 114.186 213.624 114.178 212.952 114.178C212.168 114.178 211.44 114.186 210.768 114.202C210.112 114.202 209.576 114.218 209.16 114.25V113.77C209.672 113.738 210.056 113.674 210.312 113.578C210.568 113.482 210.736 113.29 210.816 113.002C210.912 112.714 210.96 112.282 210.96 111.706V99.802C210.96 99.21 210.912 98.778 210.816 98.506C210.736 98.218 210.56 98.026 210.288 97.93C210.032 97.818 209.656 97.754 209.16 97.738V97.258C209.576 97.274 210.112 97.29 210.768 97.306C211.44 97.322 212.168 97.33 212.952 97.33C213.624 97.33 214.288 97.322 214.944 97.306C215.6 97.29 216.144 97.274 216.576 97.258ZM234 97.258V97.738C233.488 97.802 233.104 97.938 232.848 98.146C232.592 98.338 232.416 98.65 232.32 99.082C232.24 99.514 232.2 100.122 232.2 100.906V114.298C232.008 114.282 231.808 114.274 231.6 114.274C231.408 114.274 231.2 114.282 230.976 114.298L220.56 101.098V110.314C220.56 111.194 220.608 111.874 220.704 112.354C220.8 112.818 221.008 113.154 221.328 113.362C221.664 113.554 222.184 113.69 222.888 113.77V114.25C222.584 114.218 222.184 114.202 221.688 114.202C221.192 114.186 220.728 114.178 220.296 114.178C219.928 114.178 219.552 114.186 219.168 114.202C218.784 114.202 218.464 114.218 218.208 114.25V113.77C218.72 113.69 219.104 113.554 219.36 113.362C219.616 113.17 219.784 112.858 219.864 112.426C219.96 111.978 220.008 111.37 220.008 110.602V99.802C220.008 99.21 219.96 98.778 219.864 98.506C219.784 98.218 219.608 98.026 219.336 97.93C219.08 97.818 218.704 97.754 218.208 97.738V97.258C218.464 97.274 218.784 97.29 219.168 97.306C219.552 97.322 219.928 97.33 220.296 97.33C220.68 97.33 221.048 97.322 221.4 97.306C221.752 97.29 222.072 97.274 222.36 97.258L231.648 108.706V101.194C231.648 100.314 231.6 99.642 231.504 99.178C231.408 98.698 231.192 98.354 230.856 98.146C230.536 97.938 230.024 97.802 229.32 97.738V97.258C229.624 97.274 230.024 97.29 230.52 97.306C231.016 97.322 231.48 97.33 231.912 97.33C232.296 97.33 232.672 97.322 233.04 97.306C233.424 97.29 233.744 97.274 234 97.258ZM242.92 97.258C246.072 97.258 248.416 97.978 249.952 99.418C251.488 100.842 252.256 102.89 252.256 105.562C252.256 107.306 251.88 108.834 251.128 110.146C250.376 111.442 249.28 112.45 247.84 113.17C246.416 113.89 244.704 114.25 242.704 114.25C242.448 114.25 242.112 114.242 241.696 114.226C241.28 114.21 240.848 114.202 240.4 114.202C239.952 114.186 239.552 114.178 239.2 114.178C238.496 114.178 237.8 114.186 237.112 114.202C236.44 114.202 235.904 114.218 235.504 114.25V113.77C236.016 113.738 236.4 113.674 236.656 113.578C236.912 113.482 237.08 113.29 237.16 113.002C237.256 112.714 237.304 112.282 237.304 111.706V99.802C237.304 99.21 237.256 98.778 237.16 98.506C237.08 98.218 236.904 98.026 236.632 97.93C236.376 97.818 236 97.754 235.504 97.738V97.258C235.904 97.274 236.44 97.298 237.112 97.33C237.8 97.346 238.48 97.346 239.152 97.33C239.728 97.314 240.376 97.298 241.096 97.282C241.832 97.266 242.44 97.258 242.92 97.258ZM242.896 97.69C242.16 97.69 241.68 97.826 241.456 98.098C241.232 98.37 241.12 98.922 241.12 99.754V111.754C241.12 112.586 241.232 113.138 241.456 113.41C241.696 113.682 242.184 113.818 242.92 113.818C244.264 113.818 245.32 113.506 246.088 112.882C246.872 112.242 247.432 111.314 247.768 110.098C248.104 108.882 248.272 107.402 248.272 105.658C248.272 103.866 248.088 102.386 247.72 101.218C247.368 100.034 246.8 99.154 246.016 98.578C245.232 97.986 244.192 97.69 242.896 97.69ZM262.849 96.922C264.545 96.922 266.025 97.266 267.289 97.954C268.569 98.642 269.561 99.634 270.265 100.93C270.969 102.21 271.321 103.77 271.321 105.61C271.321 107.402 270.961 108.97 270.241 110.314C269.521 111.658 268.513 112.706 267.217 113.458C265.937 114.21 264.473 114.586 262.825 114.586C261.129 114.586 259.641 114.242 258.361 113.554C257.097 112.866 256.113 111.874 255.409 110.578C254.705 109.282 254.353 107.722 254.353 105.898C254.353 104.106 254.713 102.538 255.433 101.194C256.169 99.85 257.169 98.802 258.433 98.05C259.713 97.298 261.185 96.922 262.849 96.922ZM262.753 97.354C261.857 97.354 261.073 97.714 260.401 98.434C259.745 99.154 259.233 100.146 258.865 101.41C258.513 102.674 258.337 104.138 258.337 105.802C258.337 107.498 258.537 108.978 258.937 110.242C259.353 111.49 259.905 112.458 260.593 113.146C261.297 113.818 262.073 114.154 262.921 114.154C263.817 114.154 264.593 113.794 265.249 113.074C265.921 112.354 266.433 111.362 266.785 110.098C267.153 108.818 267.337 107.354 267.337 105.706C267.337 103.994 267.129 102.514 266.713 101.266C266.313 100.018 265.761 99.058 265.057 98.386C264.369 97.698 263.601 97.354 262.753 97.354Z" fill="#F5F5F5"/>
<path d="M215.292 117.754C216.084 117.754 216.726 117.874 217.218 118.114C217.71 118.342 218.16 118.612 218.568 118.924C218.724 119.044 218.844 119.104 218.928 119.104C219.156 119.104 219.306 118.738 219.378 118.006H219.792C219.768 118.462 219.75 119.014 219.738 119.662C219.726 120.298 219.72 121.15 219.72 122.218H219.306C219.222 121.642 219.108 121.108 218.964 120.616C218.832 120.124 218.598 119.704 218.262 119.356C217.938 118.972 217.512 118.672 216.984 118.456C216.468 118.24 215.94 118.132 215.4 118.132C214.776 118.132 214.224 118.288 213.744 118.6C213.264 118.9 212.856 119.332 212.52 119.896C212.196 120.46 211.944 121.126 211.764 121.894C211.596 122.65 211.512 123.484 211.512 124.396C211.512 126.556 211.842 128.14 212.502 129.148C213.174 130.144 214.182 130.642 215.526 130.642C215.91 130.642 216.24 130.588 216.516 130.48C216.804 130.372 217.032 130.264 217.2 130.156C217.404 130.012 217.536 129.874 217.596 129.742C217.656 129.598 217.686 129.412 217.686 129.184V127.438C217.686 126.922 217.638 126.544 217.542 126.304C217.458 126.052 217.284 125.884 217.02 125.8C216.756 125.704 216.372 125.65 215.868 125.638V125.278C216.096 125.29 216.366 125.302 216.678 125.314C216.99 125.314 217.314 125.32 217.65 125.332C217.998 125.332 218.31 125.332 218.586 125.332C219.018 125.332 219.408 125.326 219.756 125.314C220.116 125.302 220.41 125.29 220.638 125.278V125.638C220.386 125.65 220.194 125.692 220.062 125.764C219.942 125.836 219.858 125.98 219.81 126.196C219.774 126.412 219.756 126.742 219.756 127.186V130.75H219.396C219.384 130.546 219.336 130.324 219.252 130.084C219.18 129.844 219.066 129.724 218.91 129.724C218.826 129.724 218.736 129.742 218.64 129.778C218.556 129.814 218.406 129.904 218.19 130.048C217.77 130.336 217.332 130.57 216.876 130.75C216.42 130.918 215.904 131.002 215.328 131.002C214.044 131.002 212.946 130.75 212.034 130.246C211.122 129.73 210.426 128.992 209.946 128.032C209.478 127.06 209.244 125.908 209.244 124.576C209.244 123.184 209.502 121.978 210.018 120.958C210.546 119.938 211.26 119.152 212.16 118.6C213.072 118.036 214.116 117.754 215.292 117.754ZM221.896 118.006C222.172 118.018 222.526 118.03 222.958 118.042C223.402 118.054 223.84 118.06 224.272 118.06C224.848 118.06 225.394 118.054 225.91 118.042C226.438 118.03 226.81 118.024 227.026 118.024C228.046 118.024 228.892 118.156 229.564 118.42C230.248 118.684 230.752 119.056 231.076 119.536C231.412 120.004 231.58 120.544 231.58 121.156C231.58 121.528 231.502 121.924 231.346 122.344C231.202 122.752 230.944 123.136 230.572 123.496C230.2 123.844 229.696 124.132 229.06 124.36C228.424 124.588 227.614 124.702 226.63 124.702H224.902V124.342H226.45C227.254 124.342 227.866 124.21 228.286 123.946C228.718 123.67 229.006 123.31 229.15 122.866C229.306 122.41 229.384 121.906 229.384 121.354C229.384 120.406 229.18 119.674 228.772 119.158C228.364 118.63 227.656 118.366 226.648 118.366C226.132 118.366 225.79 118.468 225.622 118.672C225.466 118.876 225.388 119.29 225.388 119.914V128.842C225.388 129.274 225.424 129.598 225.496 129.814C225.568 130.03 225.706 130.174 225.91 130.246C226.114 130.318 226.414 130.366 226.81 130.39V130.75C226.522 130.726 226.156 130.714 225.712 130.714C225.28 130.702 224.836 130.696 224.38 130.696C223.876 130.696 223.402 130.702 222.958 130.714C222.526 130.714 222.172 130.726 221.896 130.75V130.39C222.304 130.366 222.61 130.318 222.814 130.246C223.018 130.174 223.15 130.03 223.21 129.814C223.282 129.598 223.318 129.274 223.318 128.842V119.914C223.318 119.47 223.282 119.146 223.21 118.942C223.15 118.726 223.012 118.582 222.796 118.51C222.592 118.426 222.292 118.378 221.896 118.366V118.006ZM224.938 124.396C225.55 124.42 226.042 124.45 226.414 124.486C226.786 124.51 227.098 124.534 227.35 124.558C227.602 124.582 227.836 124.612 228.052 124.648C228.952 124.768 229.606 125.008 230.014 125.368C230.434 125.728 230.722 126.28 230.878 127.024L231.328 128.86C231.436 129.376 231.55 129.742 231.67 129.958C231.802 130.174 231.994 130.282 232.246 130.282C232.438 130.27 232.594 130.216 232.714 130.12C232.846 130.012 232.984 129.868 233.128 129.688L233.38 129.886C233.104 130.258 232.816 130.54 232.516 130.732C232.216 130.912 231.814 131.002 231.31 131.002C230.794 131.002 230.35 130.87 229.978 130.606C229.618 130.33 229.36 129.814 229.204 129.058L228.844 127.258C228.736 126.742 228.616 126.298 228.484 125.926C228.352 125.542 228.166 125.242 227.926 125.026C227.698 124.81 227.362 124.702 226.918 124.702H224.974L224.938 124.396ZM239.969 117.754C241.145 117.754 242.177 118.012 243.065 118.528C243.965 119.044 244.661 119.788 245.153 120.76C245.645 121.72 245.891 122.89 245.891 124.27C245.891 125.614 245.639 126.79 245.135 127.798C244.631 128.806 243.929 129.592 243.029 130.156C242.129 130.72 241.103 131.002 239.951 131.002C238.763 131.002 237.725 130.744 236.837 130.228C235.949 129.712 235.259 128.968 234.767 127.996C234.275 127.024 234.029 125.854 234.029 124.486C234.029 123.142 234.281 121.966 234.785 120.958C235.301 119.95 236.003 119.164 236.891 118.6C237.779 118.036 238.805 117.754 239.969 117.754ZM239.897 118.078C239.153 118.078 238.505 118.348 237.953 118.888C237.401 119.428 236.975 120.172 236.675 121.12C236.375 122.068 236.225 123.166 236.225 124.414C236.225 125.686 236.393 126.796 236.729 127.744C237.065 128.68 237.521 129.406 238.097 129.922C238.673 130.426 239.315 130.678 240.023 130.678C240.767 130.678 241.409 130.408 241.949 129.868C242.501 129.328 242.927 128.584 243.227 127.636C243.539 126.676 243.695 125.578 243.695 124.342C243.695 123.058 243.521 121.948 243.173 121.012C242.837 120.076 242.381 119.356 241.805 118.852C241.241 118.336 240.605 118.078 239.897 118.078ZM258.544 118.006V118.366C258.148 118.39 257.848 118.462 257.644 118.582C257.44 118.702 257.302 118.9 257.23 119.176C257.158 119.44 257.122 119.818 257.122 120.31V125.512C257.122 126.328 257.068 127.054 256.96 127.69C256.852 128.326 256.66 128.872 256.384 129.328C256.084 129.832 255.64 130.24 255.052 130.552C254.476 130.852 253.786 131.002 252.982 131.002C252.406 131.002 251.848 130.936 251.308 130.804C250.768 130.672 250.294 130.42 249.886 130.048C249.526 129.724 249.244 129.37 249.04 128.986C248.836 128.602 248.698 128.14 248.626 127.6C248.554 127.048 248.518 126.37 248.518 125.566V119.914C248.518 119.47 248.482 119.146 248.41 118.942C248.35 118.726 248.218 118.582 248.014 118.51C247.81 118.426 247.504 118.378 247.096 118.366V118.006C247.372 118.018 247.726 118.03 248.158 118.042C248.602 118.054 249.076 118.06 249.58 118.06C250.036 118.06 250.486 118.054 250.93 118.042C251.386 118.03 251.758 118.018 252.046 118.006V118.366C251.638 118.378 251.326 118.426 251.11 118.51C250.906 118.582 250.768 118.726 250.696 118.942C250.624 119.146 250.588 119.47 250.588 119.914V126.142C250.588 126.754 250.618 127.318 250.678 127.834C250.75 128.35 250.876 128.8 251.056 129.184C251.248 129.556 251.524 129.85 251.884 130.066C252.256 130.27 252.736 130.372 253.324 130.372C254.212 130.372 254.896 130.174 255.376 129.778C255.868 129.37 256.21 128.818 256.402 128.122C256.606 127.414 256.708 126.61 256.708 125.71V120.382C256.708 119.866 256.66 119.47 256.564 119.194C256.468 118.918 256.3 118.72 256.06 118.6C255.82 118.468 255.478 118.39 255.034 118.366V118.006C255.262 118.018 255.556 118.03 255.916 118.042C256.276 118.054 256.606 118.06 256.906 118.06C257.218 118.06 257.518 118.054 257.806 118.042C258.106 118.03 258.352 118.018 258.544 118.006ZM259.671 118.006C259.947 118.018 260.301 118.03 260.733 118.042C261.177 118.054 261.615 118.06 262.047 118.06C262.623 118.06 263.169 118.054 263.685 118.042C264.213 118.03 264.585 118.024 264.801 118.024C266.325 118.024 267.465 118.354 268.221 119.014C268.977 119.674 269.355 120.526 269.355 121.57C269.355 122.002 269.277 122.458 269.121 122.938C268.977 123.406 268.719 123.844 268.347 124.252C267.975 124.648 267.471 124.972 266.835 125.224C266.199 125.476 265.389 125.602 264.405 125.602H262.641V125.242H264.225C265.029 125.242 265.641 125.08 266.061 124.756C266.493 124.432 266.781 124.006 266.925 123.478C267.081 122.95 267.159 122.38 267.159 121.768C267.159 120.628 266.955 119.776 266.547 119.212C266.139 118.648 265.431 118.366 264.423 118.366C263.907 118.366 263.565 118.468 263.397 118.672C263.241 118.876 263.163 119.29 263.163 119.914V128.806C263.163 129.25 263.211 129.586 263.307 129.814C263.403 130.03 263.583 130.174 263.847 130.246C264.111 130.318 264.501 130.36 265.017 130.372V130.75C264.693 130.726 264.273 130.714 263.757 130.714C263.241 130.702 262.707 130.696 262.155 130.696C261.675 130.696 261.213 130.702 260.769 130.714C260.337 130.714 259.971 130.726 259.671 130.75V130.39C260.079 130.366 260.385 130.318 260.589 130.246C260.793 130.174 260.925 130.03 260.985 129.814C261.057 129.598 261.093 129.274 261.093 128.842V119.914C261.093 119.47 261.057 119.146 260.985 118.942C260.925 118.726 260.787 118.582 260.571 118.51C260.367 118.426 260.067 118.378 259.671 118.366V118.006Z" fill="#F5F5F5"/>
<defs>
<filter id="filter0_f_714_5735" x="0" y="0" width="445" height="227" filterUnits="userSpaceOnUse" color-interpolation-filters="sRGB">
<feFlood flood-opacity="0" result="BackgroundImageFix"/>
<feBlend mode="normal" in="SourceGraphic" in2="BackgroundImageFix" result="shape"/>
<feGaussianBlur stdDeviation="50" result="effect1_foregroundBlur_714_5735"/>
</filter>
<linearGradient id="paint0_linear_714_5735" x1="187.613" y1="102.391" x2="202.344" y2="102.391" gradientUnits="userSpaceOnUse">
<stop stop-color="#0E7490"/>
<stop offset="1" stop-color="#139ABF"/>
</linearGradient>
<linearGradient id="paint1_linear_714_5735" x1="172" y1="102.391" x2="186.732" y2="102.391" gradientUnits="userSpaceOnUse">
<stop stop-color="#0E7490"/>
<stop offset="1" stop-color="#139ABF"/>
</linearGradient>
<linearGradient id="paint2_linear_714_5735" x1="187.613" y1="118.922" x2="202.344" y2="118.922" gradientUnits="userSpaceOnUse">
<stop stop-color="#0E7490"/>
<stop offset="1" stop-color="#139ABF"/>
</linearGradient>
<linearGradient id="paint3_linear_714_5735" x1="172" y1="118.922" x2="186.732" y2="118.922" gradientUnits="userSpaceOnUse">
<stop stop-color="#0E7490"/>
<stop offset="1" stop-color="#139ABF"/>
</linearGradient>
<linearGradient id="paint4_linear_714_5735" x1="187.613" y1="125.608" x2="202.344" y2="125.608" gradientUnits="userSpaceOnUse">
<stop stop-color="#0E7490"/>
<stop offset="1" stop-color="#139ABF"/>
</linearGradient>
<linearGradient id="paint5_linear_714_5735" x1="172.071" y1="125.64" x2="186.808" y2="125.64" gradientUnits="userSpaceOnUse">
<stop stop-color="#0E7490"/>
<stop offset="1" stop-color="#139ABF"/>
</linearGradient>
<linearGradient id="paint6_linear_714_5735" x1="179.018" y1="110.572" x2="195.328" y2="110.572" gradientUnits="userSpaceOnUse">
<stop stop-color="#0E7490"/>
<stop offset="1" stop-color="#139ABF"/>
</linearGradient>
</defs>
</svg>
