<svg width="49" height="48" viewBox="0 0 49 48" fill="none" xmlns="http://www.w3.org/2000/svg">
<g clip-path="url(#clip0_120_1141)">
<path opacity="0.2" d="M40.8335 9H7.8335C7.00507 9 6.3335 9.67157 6.3335 10.5V33C6.3335 33.8284 7.00507 34.5 7.8335 34.5H40.8335C41.6619 34.5 42.3335 33.8284 42.3335 33V10.5C42.3335 9.67157 41.6619 9 40.8335 9Z" fill="url(#paint0_linear_120_1141)"/>
<path d="M40.8335 9H7.8335C7.00507 9 6.3335 9.67157 6.3335 10.5V33C6.3335 33.8284 7.00507 34.5 7.8335 34.5H40.8335C41.6619 34.5 42.3335 33.8284 42.3335 33V10.5C42.3335 9.67157 41.6619 9 40.8335 9Z" stroke="url(#paint1_linear_120_1141)" stroke-width="3" stroke-linecap="round" stroke-linejoin="round"/>
<path d="M30.3335 34.5L36.3335 42" stroke="url(#paint2_linear_120_1141)" stroke-width="3" stroke-linecap="round" stroke-linejoin="round"/>
<path d="M18.3335 34.5L12.3335 42" stroke="url(#paint3_linear_120_1141)" stroke-width="3" stroke-linecap="round" stroke-linejoin="round"/>
<path d="M18.3335 22.5V27" stroke="url(#paint4_linear_120_1141)" stroke-width="3" stroke-linecap="round" stroke-linejoin="round"/>
<path d="M24.3335 19.5V27" stroke="url(#paint5_linear_120_1141)" stroke-width="3" stroke-linecap="round" stroke-linejoin="round"/>
<path d="M30.3335 16.5V27" stroke="url(#paint6_linear_120_1141)" stroke-width="3" stroke-linecap="round" stroke-linejoin="round"/>
<path d="M24.3335 9V4.5" stroke="url(#paint7_linear_120_1141)" stroke-width="3" stroke-linecap="round" stroke-linejoin="round"/>
</g>
<defs>
<linearGradient id="paint0_linear_120_1141" x1="6.3335" y1="21.75" x2="42.3335" y2="21.75" gradientUnits="userSpaceOnUse">
<stop stop-color="#EF4444"/>
<stop offset="1" stop-color="#B91C1C"/>
</linearGradient>
<linearGradient id="paint1_linear_120_1141" x1="6.3335" y1="21.75" x2="42.3335" y2="21.75" gradientUnits="userSpaceOnUse">
<stop stop-color="#EF4444"/>
<stop offset="1" stop-color="#B91C1C"/>
</linearGradient>
<linearGradient id="paint2_linear_120_1141" x1="30.3335" y1="38.25" x2="36.3335" y2="38.25" gradientUnits="userSpaceOnUse">
<stop stop-color="#EF4444"/>
<stop offset="1" stop-color="#B91C1C"/>
</linearGradient>
<linearGradient id="paint3_linear_120_1141" x1="12.3335" y1="38.25" x2="18.3335" y2="38.25" gradientUnits="userSpaceOnUse">
<stop stop-color="#EF4444"/>
<stop offset="1" stop-color="#B91C1C"/>
</linearGradient>
<linearGradient id="paint4_linear_120_1141" x1="18.3335" y1="24.75" x2="19.3335" y2="24.75" gradientUnits="userSpaceOnUse">
<stop stop-color="#EF4444"/>
<stop offset="1" stop-color="#B91C1C"/>
</linearGradient>
<linearGradient id="paint5_linear_120_1141" x1="24.3335" y1="23.25" x2="25.3335" y2="23.25" gradientUnits="userSpaceOnUse">
<stop stop-color="#EF4444"/>
<stop offset="1" stop-color="#B91C1C"/>
</linearGradient>
<linearGradient id="paint6_linear_120_1141" x1="30.3335" y1="21.75" x2="31.3335" y2="21.75" gradientUnits="userSpaceOnUse">
<stop stop-color="#EF4444"/>
<stop offset="1" stop-color="#B91C1C"/>
</linearGradient>
<linearGradient id="paint7_linear_120_1141" x1="24.3335" y1="6.75" x2="25.3335" y2="6.75" gradientUnits="userSpaceOnUse">
<stop stop-color="#EF4444"/>
<stop offset="1" stop-color="#B91C1C"/>
</linearGradient>
<clipPath id="clip0_120_1141">
<rect width="48" height="48" fill="white" transform="translate(0.333496)"/>
</clipPath>
</defs>
</svg>
