<svg width="32" height="32" viewBox="0 0 32 32" fill="none" xmlns="http://www.w3.org/2000/svg">
<g clip-path="url(#clip0_566_6082)">
<path opacity="0.2" d="M16 16.1362L4.0875 9.61621C4.03021 9.74401 4.0004 9.88241 4 10.0225V21.9775C4.00041 22.1565 4.04888 22.3322 4.14035 22.4861C4.23181 22.64 4.36293 22.7665 4.52 22.8525L15.52 28.875C15.667 28.9563 15.832 28.9993 16 29V16.1362Z" fill="#EEE8A9"/>
<path d="M4.08789 9.61523L16.0004 16.1352L27.9129 9.61523" stroke="#EEE8A9" stroke-width="2" stroke-linecap="round" stroke-linejoin="round"/>
<path d="M16 16.1362V28.9962" stroke="#EEE8A9" stroke-width="2" stroke-linecap="round" stroke-linejoin="round"/>
<path d="M27.48 22.8552L16.48 28.8777C16.3328 28.9582 16.1678 29.0004 16 29.0004C15.8322 29.0004 15.6672 28.9582 15.52 28.8777L4.52 22.8552C4.36293 22.7692 4.23181 22.6427 4.14035 22.4888C4.04888 22.3349 4.00041 22.1592 4 21.9802V10.0227C4.00041 9.84363 4.04888 9.66798 4.14035 9.51406C4.23181 9.36015 4.36293 9.23361 4.52 9.14767L15.52 3.12517C15.6672 3.04465 15.8322 3.00244 16 3.00244C16.1678 3.00244 16.3328 3.04465 16.48 3.12517L27.48 9.14767C27.6371 9.23361 27.7682 9.36015 27.8597 9.51406C27.9511 9.66798 27.9996 9.84363 28 10.0227V21.9777C28 22.1571 27.9518 22.3333 27.8603 22.4877C27.7688 22.6421 27.6374 22.769 27.48 22.8552Z" stroke="#EEE8A9" stroke-width="2" stroke-linecap="round" stroke-linejoin="round"/>
<path d="M10.1953 6.03857L22.0003 12.4998V18.9998" stroke="#EEE8A9" stroke-width="2" stroke-linecap="round" stroke-linejoin="round"/>
</g>
<defs>
<clipPath id="clip0_566_6082">
<rect width="32" height="32" fill="white"/>
</clipPath>
</defs>
</svg>
