<svg width="31" height="24" viewBox="0 0 31 24" fill="none" xmlns="http://www.w3.org/2000/svg">
<path d="M25.3429 14.8837C24.1441 15.6124 22.7671 15.9957 21.3642 15.9912C20.1888 15.9818 19.0268 15.7414 17.9442 15.2837C17.1098 16.4616 16.6633 17.8702 16.6667 19.3137V22.9999C16.667 23.137 16.6391 23.2727 16.5847 23.3985C16.5304 23.5244 16.4508 23.6377 16.3508 23.7315C16.2508 23.8253 16.1326 23.8975 16.0035 23.9437C15.8744 23.9899 15.7372 24.009 15.6004 23.9999C15.3434 23.9775 15.1043 23.8588 14.9311 23.6676C14.758 23.4763 14.6635 23.2267 14.6667 22.9687V21.4137L9.83917 16.5862C9.12155 16.8539 8.36259 16.9939 7.59667 16.9999C6.54226 17.0025 5.50759 16.714 4.60667 16.1662C1.88292 14.5112 0.416672 10.7024 0.700422 5.97366C0.714709 5.72902 0.818331 5.49814 0.991615 5.32486C1.1649 5.15157 1.39578 5.04795 1.64042 5.03366C6.36917 4.75491 10.1779 6.21616 11.8279 8.93991C12.4762 10.0075 12.7592 11.2572 12.6342 12.4999C12.6264 12.5962 12.5909 12.6882 12.532 12.7647C12.473 12.8413 12.3932 12.8991 12.3021 12.9312C12.211 12.9633 12.1125 12.9684 12.0186 12.9458C11.9247 12.9231 11.8394 12.8738 11.7729 12.8037L9.37292 10.2912C9.18386 10.1115 8.93211 10.0129 8.67135 10.0162C8.41059 10.0196 8.16145 10.1246 7.97704 10.309C7.79264 10.4934 7.68757 10.7426 7.68423 11.0033C7.68089 11.2641 7.77955 11.5159 7.95917 11.7049L14.6942 18.6112C14.7017 18.5137 14.7104 18.4162 14.7204 18.3199C14.9391 16.4658 15.7572 14.7339 17.0504 13.3874L23.3742 6.70491C23.5618 6.51744 23.6673 6.2631 23.6674 5.99786C23.6675 5.73261 23.5623 5.47818 23.3748 5.29054C23.1873 5.1029 22.933 4.99742 22.6677 4.9973C22.4025 4.99718 22.1481 5.10244 21.9604 5.28991L15.8354 11.7674C15.7741 11.8324 15.6965 11.8797 15.6107 11.9045C15.5249 11.9293 15.4341 11.9307 15.3476 11.9085C15.2611 11.8863 15.1821 11.8413 15.1188 11.7783C15.0556 11.7152 15.0104 11.6364 14.9879 11.5499C14.3954 9.36491 14.6567 7.18991 15.7879 5.32241C18.0204 1.63741 23.2154 -0.335086 29.6854 0.0449141C29.9301 0.0592009 30.1609 0.162823 30.3342 0.336107C30.5075 0.50939 30.6111 0.740271 30.6254 0.984914C31.0004 7.45616 29.0279 12.6512 25.3429 14.8837Z" fill="url(#paint0_linear_22_329)"/>
<defs>
<linearGradient id="paint0_linear_22_329" x1="0.665649" y1="12.0003" x2="30.6707" y2="12.0003" gradientUnits="userSpaceOnUse">
<stop stop-color="#EF4444"/>
<stop offset="1" stop-color="#B91C1C"/>
</linearGradient>
</defs>
</svg>
