<svg width="30" height="22" viewBox="0 0 30 22" fill="none" xmlns="http://www.w3.org/2000/svg">
<path d="M7.01501 12.4752C7.0184 12.5429 7.00798 12.6106 6.98438 12.6742C6.96077 12.7378 6.92448 12.7959 6.87771 12.845C6.83094 12.8941 6.77466 12.9332 6.71231 12.9599C6.64996 12.9866 6.58283 13.0003 6.51501 13.0002H1.00001C0.774308 13.0005 0.555124 12.9245 0.378105 12.7845C0.201086 12.6445 0.0766438 12.4487 0.0250138 12.2289C-0.00713503 12.0786 -0.00565299 11.9229 0.0293538 11.7732C0.0643607 11.6234 0.132027 11.4832 0.227514 11.3627C1.10977 10.1927 2.28038 9.27143 3.62501 8.68894C3.03467 8.15069 2.5819 7.47883 2.30461 6.72961C2.02732 5.9804 1.9336 5.17564 2.03128 4.38275C2.12897 3.58987 2.41522 2.83193 2.86606 2.17242C3.31691 1.51291 3.91922 0.971032 4.62255 0.592168C5.32588 0.213304 6.10976 0.00848611 6.90852 -0.00513268C7.70729 -0.0187515 8.49769 0.159226 9.21353 0.513893C9.92937 0.86856 10.5498 1.38959 11.0229 2.03335C11.4959 2.6771 11.8079 3.42484 11.9325 4.21394C11.9486 4.32006 11.9296 4.42852 11.8784 4.52284C11.8272 4.61716 11.7465 4.69216 11.6488 4.73644C10.2618 5.37766 9.0871 6.40224 8.2634 7.68929C7.4397 8.97633 7.00133 10.4721 7.00001 12.0002C7.00001 12.1602 7.00001 12.3177 7.01501 12.4752ZM29.765 11.3614C28.8848 10.1928 27.7169 9.27204 26.375 8.68894C26.9654 8.15069 27.4181 7.47883 27.6954 6.72961C27.9727 5.9804 28.0664 5.17564 27.9687 4.38275C27.8711 3.58987 27.5848 2.83193 27.134 2.17242C26.6831 1.51291 26.0808 0.971032 25.3775 0.592168C24.6741 0.213304 23.8903 0.00848611 23.0915 -0.00513268C22.2927 -0.0187515 21.5023 0.159226 20.7865 0.513893C20.0707 0.86856 19.4502 1.38959 18.9772 2.03335C18.5041 2.6771 18.1922 3.42484 18.0675 4.21394C18.0514 4.32006 18.0704 4.42852 18.1216 4.52284C18.1729 4.61716 18.2535 4.69216 18.3513 4.73644C19.7383 5.37766 20.9129 6.40224 21.7366 7.68929C22.5603 8.97633 22.9987 10.4721 23 12.0002C23 12.1602 23 12.3177 22.985 12.4752C22.9816 12.5429 22.992 12.6106 23.0157 12.6742C23.0393 12.7378 23.0755 12.7959 23.1223 12.845C23.1691 12.8941 23.2254 12.9332 23.2877 12.9599C23.3501 12.9866 23.4172 13.0003 23.485 13.0002H29C29.2257 13.0005 29.4449 12.9245 29.6219 12.7845C29.7989 12.6445 29.9234 12.4487 29.975 12.2289C30.0074 12.0783 30.0059 11.9223 29.9706 11.7723C29.9354 11.6223 29.8673 11.482 29.7713 11.3614H29.765ZM18.64 16.7589C19.6357 15.9964 20.3674 14.941 20.7323 13.7411C21.0972 12.5413 21.0769 11.2572 20.6744 10.0694C20.2718 8.88166 19.5071 7.8499 18.4879 7.11915C17.4686 6.3884 16.246 5.99541 14.9919 5.99541C13.7377 5.99541 12.5151 6.3884 11.4959 7.11915C10.4766 7.8499 9.71198 8.88166 9.30941 10.0694C8.90683 11.2572 8.88657 12.5413 9.25147 13.7411C9.61636 14.941 10.3481 15.9964 11.3438 16.7589C9.57693 17.5245 8.1016 18.8356 7.13376 20.5002C7.04599 20.6522 6.99978 20.8247 6.99979 21.0002C6.9998 21.1758 7.04603 21.3483 7.13382 21.5003C7.22161 21.6523 7.34788 21.7785 7.49993 21.8663C7.65199 21.9541 7.82446 22.0002 8.00001 22.0002H22C22.1756 22.0002 22.348 21.9541 22.5001 21.8663C22.6521 21.7785 22.7784 21.6523 22.8662 21.5003C22.954 21.3483 23.0002 21.1758 23.0002 21.0002C23.0002 20.8247 22.954 20.6522 22.8663 20.5002C21.8964 18.8345 20.4183 17.5233 18.6488 16.7589H18.64Z" fill="url(#paint0_linear_22_336)"/>
<defs>
<linearGradient id="paint0_linear_22_336" x1="0.00195313" y1="10.9972" x2="29.9982" y2="10.9972" gradientUnits="userSpaceOnUse">
<stop stop-color="#EF4444"/>
<stop offset="1" stop-color="#B91C1C"/>
</linearGradient>
</defs>
</svg>
