<svg width="29" height="28" viewBox="0 0 29 28" fill="none" xmlns="http://www.w3.org/2000/svg">
<path d="M11.3334 11H17.3334V17H11.3334V11ZM28.3334 17C28.3334 17.2652 28.228 17.5196 28.0405 17.7071C27.8529 17.8946 27.5986 18 27.3334 18H25.3334V23C25.3334 23.5304 25.1227 24.0391 24.7476 24.4142C24.3725 24.7893 23.8638 25 23.3334 25H18.3334V27C18.3334 27.2652 18.228 27.5196 18.0405 27.7071C17.8529 27.8946 17.5986 28 17.3334 28C17.0682 28 16.8138 27.8946 16.6263 27.7071C16.4387 27.5196 16.3334 27.2652 16.3334 27V25H12.3334V27C12.3334 27.2652 12.228 27.5196 12.0405 27.7071C11.8529 27.8946 11.5986 28 11.3334 28C11.0682 28 10.8138 27.8946 10.6263 27.7071C10.4387 27.5196 10.3334 27.2652 10.3334 27V25H5.33337C4.80294 25 4.29423 24.7893 3.91916 24.4142C3.54409 24.0391 3.33337 23.5304 3.33337 23V18H1.33337C1.06816 18 0.813804 17.8946 0.626267 17.7071C0.438731 17.5196 0.333374 17.2652 0.333374 17C0.333374 16.7348 0.438731 16.4804 0.626267 16.2929C0.813804 16.1054 1.06816 16 1.33337 16H3.33337V12H1.33337C1.06816 12 0.813804 11.8946 0.626267 11.7071C0.438731 11.5196 0.333374 11.2652 0.333374 11C0.333374 10.7348 0.438731 10.4804 0.626267 10.2929C0.813804 10.1054 1.06816 10 1.33337 10H3.33337V5C3.33337 4.46957 3.54409 3.96086 3.91916 3.58579C4.29423 3.21071 4.80294 3 5.33337 3H10.3334V1C10.3334 0.734784 10.4387 0.48043 10.6263 0.292893C10.8138 0.105357 11.0682 0 11.3334 0C11.5986 0 11.8529 0.105357 12.0405 0.292893C12.228 0.48043 12.3334 0.734784 12.3334 1V3H16.3334V1C16.3334 0.734784 16.4387 0.48043 16.6263 0.292893C16.8138 0.105357 17.0682 0 17.3334 0C17.5986 0 17.8529 0.105357 18.0405 0.292893C18.228 0.48043 18.3334 0.734784 18.3334 1V3H23.3334C23.8638 3 24.3725 3.21071 24.7476 3.58579C25.1227 3.96086 25.3334 4.46957 25.3334 5V10H27.3334C27.5986 10 27.8529 10.1054 28.0405 10.2929C28.228 10.4804 28.3334 10.7348 28.3334 11C28.3334 11.2652 28.228 11.5196 28.0405 11.7071C27.8529 11.8946 27.5986 12 27.3334 12H25.3334V16H27.3334C27.5986 16 27.8529 16.1054 28.0405 16.2929C28.228 16.4804 28.3334 16.7348 28.3334 17ZM19.3334 10C19.3334 9.73478 19.228 9.48043 19.0405 9.29289C18.8529 9.10536 18.5986 9 18.3334 9H10.3334C10.0682 9 9.8138 9.10536 9.62627 9.29289C9.43873 9.48043 9.33337 9.73478 9.33337 10V18C9.33337 18.2652 9.43873 18.5196 9.62627 18.7071C9.8138 18.8946 10.0682 19 10.3334 19H18.3334C18.5986 19 18.8529 18.8946 19.0405 18.7071C19.228 18.5196 19.3334 18.2652 19.3334 18V10Z" fill="url(#paint0_linear_22_322)"/>
<defs>
<linearGradient id="paint0_linear_22_322" x1="0.333374" y1="14" x2="28.3334" y2="14" gradientUnits="userSpaceOnUse">
<stop stop-color="#EF4444"/>
<stop offset="1" stop-color="#B91C1C"/>
</linearGradient>
</defs>
</svg>
